<?xml version="1.0" encoding="utf-8"?>
<!-- Generator: Adobe Illustrator 13.0.0, SVG Export Plug-In . SVG Version: 6.00 Build 14948)  -->
<!DOCTYPE svg PUBLIC "-//W3C//DTD SVG 1.1//EN" "http://www.w3.org/Graphics/SVG/1.1/DTD/svg11.dtd">
<svg version="1.1" id="Ebene_1" xmlns="http://www.w3.org/2000/svg" xmlns:xlink="http://www.w3.org/1999/xlink" x="0px" y="0px"
	 width="100px" height="100px" viewBox="0 0 100 100" enable-background="new 0 0 100 100" xml:space="preserve">
<path d="M99.5,39.5v-20c-18.927,0.003-36.304,6.588-50,17.573C35.803,26.088,18.426,19.502-0.5,19.5v20
	c13.538,0.005,25.967,4.461,35.999,12.001c-4.042,5.382-7.411,11.295-10.007,17.609C18.501,63.125,9.428,59.502-0.5,59.499v19.999
	c11.04,0.021,19.979,8.96,20,20.002h20c0.005-12.29,3.683-23.663,10-33.162c6.318,9.499,9.995,20.872,10,33.162h20.002
	c0-0.013-0.001-0.025-0.001-0.038c0.042-11.024,8.971-19.942,20-19.964V59.499c-9.929,0.003-19.002,3.626-25.993,9.61
	c-2.596-6.313-5.965-12.227-10.007-17.608C73.531,43.961,85.961,39.505,99.5,39.5z"/>
</svg>
