<?xml version="1.0" encoding="utf-8"?>
<!-- Generator: Adobe Illustrator 13.0.0, SVG Export Plug-In . SVG Version: 6.00 Build 14948)  -->
<!DOCTYPE svg PUBLIC "-//W3C//DTD SVG 1.1//EN" "http://www.w3.org/Graphics/SVG/1.1/DTD/svg11.dtd">
<svg version="1.1" id="Ebene_1" xmlns="http://www.w3.org/2000/svg" xmlns:xlink="http://www.w3.org/1999/xlink" x="0px" y="0px"
	 width="100px" height="100px" viewBox="0 0 100 100" enable-background="new 0 0 100 100" xml:space="preserve">
<path d="M99.5,19.5c-11.042-0.021-19.98-8.959-20.002-20H59.499c0.003,9.928,3.626,19.001,9.611,25.992
	c-6.314,2.596-12.228,5.964-17.609,10.007C43.961,25.467,39.505,13.038,39.5-0.5h-20c0.003,18.926,6.588,36.303,17.573,49.999
	C26.088,63.196,19.502,80.573,19.5,99.5h20c0.005-13.539,4.461-25.969,12.001-36.001c5.382,4.043,11.296,7.411,17.609,10.007
	c-5.985,6.991-9.608,16.065-9.611,25.994h19.999c0.021-11.042,8.96-19.98,20.002-20.002V59.499c-12.29-0.005-23.663-3.682-33.162-10
	c9.499-6.317,20.872-9.995,33.162-10V19.5z"/>
</svg>
