<?xml version="1.0" encoding="utf-8"?>
<!-- Generator: Adobe Illustrator 13.0.0, SVG Export Plug-In . SVG Version: 6.00 Build 14948)  -->
<!DOCTYPE svg PUBLIC "-//W3C//DTD SVG 1.1//EN" "http://www.w3.org/Graphics/SVG/1.1/DTD/svg11.dtd">
<svg version="1.1" id="Ebene_1" xmlns="http://www.w3.org/2000/svg" xmlns:xlink="http://www.w3.org/1999/xlink" x="0px" y="0px"
	 width="100px" height="100px" viewBox="0 0 100 100" enable-background="new 0 0 100 100" xml:space="preserve">
<path d="M63.499,47.499c4.044-5.382,7.412-11.296,10.008-17.611c6.991,5.985,16.064,9.609,25.992,9.613l0.002-20h-0.002
	C88.457,19.48,79.519,10.541,79.5-0.501H59.499c-0.004,12.291-3.682,23.664-10,33.164C43.181,23.164,39.503,11.79,39.5-0.501h-20v0
	H19.5c-0.021,11.04-8.96,19.979-20,20v20c9.928-0.003,19.002-3.626,25.993-9.612c2.595,6.315,5.964,12.229,10.007,17.612
	c-10.032,7.54-22.463,11.996-36.001,12v20.002c18.927-0.003,36.304-6.589,50-17.573c13.697,10.983,31.073,17.569,50,17.572l0.002-20
	h-0.002C85.962,59.495,73.532,55.039,63.499,47.499z"/>
</svg>
