<?xml version="1.0" encoding="utf-8"?>
<!-- Generator: Adobe Illustrator 13.0.0, SVG Export Plug-In . SVG Version: 6.00 Build 14948)  -->
<!DOCTYPE svg PUBLIC "-//W3C//DTD SVG 1.1//EN" "http://www.w3.org/Graphics/SVG/1.1/DTD/svg11.dtd">
<svg version="1.1" id="Ebene_1" xmlns="http://www.w3.org/2000/svg" xmlns:xlink="http://www.w3.org/1999/xlink" x="0px" y="0px"
	 width="87.5px" height="87.5px" viewBox="0 0 87.5 87.5" enable-background="new 0 0 87.5 87.5" xml:space="preserve">

<path fill="#0FE976" d="M75.551,85.449l-73.5-73.498c-2.734-2.734-2.734-7.167,0-9.9l0,0c2.732-2.734,7.166-2.734,9.9,0l0,0
	l73.498,73.5c2.734,2.731,2.734,7.165,0,9.897l0,0C84.083,86.816,82.292,87.5,80.5,87.5l0,0
	C78.708,87.5,76.917,86.816,75.551,85.449L75.551,85.449z"/>
<path fill="#0FE976" d="M2.051,85.449c-2.734-2.732-2.734-7.166,0-9.897l0,0l73.5-73.5c2.731-2.734,7.165-2.734,9.897,0l0,0
	c2.734,2.732,2.734,7.166,0,9.9l0,0L11.951,85.449C10.583,86.816,8.792,87.5,7,87.5l0,0C5.208,87.5,3.417,86.816,2.051,85.449
	L2.051,85.449z"/>
</svg>
