<?xml version="1.0" encoding="utf-8"?>
<!-- Generator: Adobe Illustrator 13.0.0, SVG Export Plug-In . SVG Version: 6.00 Build 14948)  -->
<!DOCTYPE svg PUBLIC "-//W3C//DTD SVG 1.1//EN" "http://www.w3.org/Graphics/SVG/1.1/DTD/svg11.dtd">
<svg version="1.1" id="Ebene_1" xmlns="http://www.w3.org/2000/svg" xmlns:xlink="http://www.w3.org/1999/xlink" x="0px" y="0px"
	 width="100px" height="100px" viewBox="0 0 100 100" enable-background="new 0 0 100 100" xml:space="preserve">
<path d="M59.499,99.5h20.002c-0.004-18.927-6.59-36.304-17.574-50C72.911,35.803,79.496,18.426,79.499-0.501h-20
	c-0.004,13.538-4.46,25.969-12,36.001c-5.382-4.043-11.296-7.412-17.611-10.008C35.873,18.501,39.497,9.427,39.5-0.5h-20
	c-0.021,11.04-8.96,19.979-20,20v20h0l0,0c12.29,0.005,23.662,3.683,33.161,10.001c-9.499,6.318-20.872,9.995-33.162,9.999v20.002
	c0.013,0,0.025-0.001,0.038-0.001c11.023,0.042,19.942,8.971,19.962,20h20c-0.003-9.928-3.626-19.002-9.61-25.993
	c6.314-2.596,12.228-5.964,17.609-10.007C55.039,73.531,59.493,85.961,59.499,99.5z"/>
</svg>
