<?xml version="1.0" encoding="utf-8"?>
<!-- Generator: Adobe Illustrator 13.0.0, SVG Export Plug-In . SVG Version: 6.00 Build 14948)  -->
<!DOCTYPE svg PUBLIC "-//W3C//DTD SVG 1.1//EN" "http://www.w3.org/Graphics/SVG/1.1/DTD/svg11.dtd">
<svg version="1.1" id="Ebene_1" xmlns="http://www.w3.org/2000/svg" xmlns:xlink="http://www.w3.org/1999/xlink" x="0px" y="0px"
	 width="100px" height="100px" viewBox="0 0 100 100" enable-background="new 0 0 100 100" xml:space="preserve">
<path d="M79.5,89.5c0-5.523-4.477-10-10-10s-10,4.477-10,10h-0.001l0.002,10l9.979-0.001c0.007,0,0.013,0.001,0.02,0.001
	s0.013-0.001,0.02-0.001l9.981-0.001l-0.003-9.96C79.498,89.525,79.5,89.513,79.5,89.5z M39.5,89.5c0-5.523-4.477-10-10-10
	s-10,4.477-10,10h0v10l9.981-0.001c0.007,0,0.013,0.001,0.02,0.001s0.013-0.001,0.02-0.001l9.982-0.001L39.5,89.51
	C39.5,89.507,39.5,89.503,39.5,89.5z M89.5,39.501c0.003,0,0.007,0,0.01,0h9.991l-0.002-20h-10c-5.523,0-9.999,4.478-9.999,10
	C79.5,35.024,83.977,39.501,89.5,39.501z M89.499,59.5L89.499,59.5c-5.523,0.002-9.999,4.479-9.999,10.001s4.477,10,10,10
	c0.007,0,0.013-0.001,0.02-0.001h9.981l-0.002-20H89.499z"/>
</svg>
