<?xml version="1.0" encoding="utf-8"?>
<!-- Generator: Adobe Illustrator 13.0.0, SVG Export Plug-In . SVG Version: 6.00 Build 14948)  -->
<!DOCTYPE svg PUBLIC "-//W3C//DTD SVG 1.1//EN" "http://www.w3.org/Graphics/SVG/1.1/DTD/svg11.dtd">
<svg version="1.1" id="Ebene_1" xmlns="http://www.w3.org/2000/svg" xmlns:xlink="http://www.w3.org/1999/xlink" x="0px" y="0px"
	 width="100px" height="100px" viewBox="0 0 100 100" enable-background="new 0 0 100 100" xml:space="preserve">
<path d="M79.498,89.538c0-0.013,0.002-0.025,0.002-0.038c0-5.523-4.477-10-10-10s-10,4.477-10,10h-0.001l0.002,10l9.979-0.001
	c0.007,0,0.013,0.001,0.02,0.001s0.013-0.001,0.02-0.001l9.981-0.001L79.498,89.538z M39.5,89.5c0-5.523-4.477-10-10-10
	s-10,4.477-10,10h0v10l9.981-0.001c0.007,0,0.013,0.001,0.02,0.001s0.013-0.001,0.02-0.001l9.982-0.001L39.5,89.51
	C39.5,89.507,39.5,89.503,39.5,89.5z M-0.499,39.5l9.989-0.002c0.003,0,0.006,0,0.01,0c5.523,0,10-4.477,10-10s-4.477-10-10-10h0v0
	L-0.499,19.5v9.979c0,0.007-0.001,0.013-0.001,0.02s0.001,0.013,0.001,0.02V39.5z M9.5,59.499L9.5,59.499l-10,0.001l0.001,9.979
	c0,0.007-0.001,0.013-0.001,0.02s0.001,0.013,0.001,0.02l0.001,9.981l9.979-0.002c0.006,0,0.013,0.001,0.019,0.001
	c5.523,0,10-4.478,10-10S15.023,59.499,9.5,59.499z"/>
</svg>
