<?xml version="1.0" encoding="utf-8"?>
<!-- Generator: Adobe Illustrator 13.0.0, SVG Export Plug-In . SVG Version: 6.00 Build 14948)  -->
<!DOCTYPE svg PUBLIC "-//W3C//DTD SVG 1.1//EN" "http://www.w3.org/Graphics/SVG/1.1/DTD/svg11.dtd">
<svg version="1.1" id="Ebene_1" xmlns="http://www.w3.org/2000/svg" xmlns:xlink="http://www.w3.org/1999/xlink" x="0px" y="0px"
	 width="100px" height="100px" viewBox="0 0 100 100" enable-background="new 0 0 100 100" xml:space="preserve">
<path d="M79.5,89.5c0-5.523-4.477-10-10-10s-10,4.477-10,10h-0.001l0.002,10l9.979-0.001c0.007,0,0.013,0.001,0.02,0.001
	s0.013-0.001,0.02-0.001l9.981-0.001l-0.003-9.96C79.498,89.525,79.5,89.513,79.5,89.5z M39.5,89.5c0-5.523-4.477-10-10-10
	s-10,4.477-10,10h0v10l9.981-0.001c0.007,0,0.013,0.001,0.02,0.001s0.013-0.001,0.02-0.001l9.982-0.001L39.5,89.51
	C39.5,89.507,39.5,89.503,39.5,89.5z M89.5,39.499c0.003,0,0.007,0,0.01,0h9.991l-0.002-20h-10v0c-5.523,0-9.999,4.478-9.999,10
	C79.5,35.022,83.977,39.499,89.5,39.499z M89.499,59.498L89.499,59.498C83.976,59.5,79.5,63.977,79.5,69.499s4.477,10,10,10
	c0.001,0,0.001,0,0.002,0V79.5l9.999-0.003l-0.002-19.999H89.499z M9.5,59.499c0,0-0.001,0-0.001,0v-0.001l-10,0.002l0.002,20
	l9.98-0.002c0.007,0,0.013,0.001,0.02,0.001c5.523,0,10-4.478,10-10S15.023,59.499,9.5,59.499z M9.49,39.499c0.003,0,0.006,0,0.01,0
	c5.523,0,10-4.477,10-10s-4.477-10-10-10h0v0L-0.501,19.5l0.002,20L9.49,39.499z"/>
</svg>
