<?xml version="1.0" encoding="utf-8"?>
<!-- Generator: Adobe Illustrator 13.0.0, SVG Export Plug-In . SVG Version: 6.00 Build 14948)  -->
<!DOCTYPE svg PUBLIC "-//W3C//DTD SVG 1.1//EN" "http://www.w3.org/Graphics/SVG/1.1/DTD/svg11.dtd">
<svg version="1.1" id="Ebene_1" xmlns="http://www.w3.org/2000/svg" xmlns:xlink="http://www.w3.org/1999/xlink" x="0px" y="0px"
	 width="100px" height="100px" viewBox="0 0 100 100" enable-background="new 0 0 100 100" xml:space="preserve">
<path d="M9.501,59.501L9.501,59.501L9.501,59.501L-0.5,59.502l0.002,20L9.481,79.5c0.007,0,0.013,0.001,0.02,0.001
	c5.523,0,10-4.478,10-10S15.024,59.501,9.501,59.501z M9.501,19.5L9.501,19.5L9.501,19.5L-0.5,19.501l0.002,20L9.491,39.5
	c0.003,0,0.006,0,0.01,0c5.523,0,10-4.477,10-10S15.024,19.5,9.501,19.5z M29.5-0.5c-0.006,0-0.013,0.001-0.02,0.001H19.5V9.49
	c0,0.003,0,0.006,0,0.01c0,5.523,4.477,10,10,10s10-4.477,10-10v0h0v-9.999H29.52C29.513-0.499,29.506-0.5,29.5-0.5z M59.5-0.5v10
	c0,5.522,4.477,10,10,10s10-4.477,10-10v-10H59.5z"/>
</svg>
