<?xml version="1.0" encoding="utf-8"?>
<!-- Generator: Adobe Illustrator 13.0.0, SVG Export Plug-In . SVG Version: 6.00 Build 14948)  -->
<!DOCTYPE svg PUBLIC "-//W3C//DTD SVG 1.1//EN" "http://www.w3.org/Graphics/SVG/1.1/DTD/svg11.dtd">
<svg version="1.1" id="Ebene_1" xmlns="http://www.w3.org/2000/svg" xmlns:xlink="http://www.w3.org/1999/xlink" x="0px" y="0px"
	 width="100px" height="100px" viewBox="0 0 100 100" enable-background="new 0 0 100 100" xml:space="preserve">
<path d="M89.5,39.5c0.001,0,0.001,0,0.002,0v0l9.999-0.002l-0.002-20l-9.979,0.002c-0.007,0-0.013-0.001-0.02-0.001
	c-5.523,0-10,4.477-10,10S83.977,39.5,89.5,39.5z M89.499,59.5c-5.523,0.001-9.999,4.477-9.999,10s4.477,10,10,10
	c0.001,0,0.001,0,0.002,0h9.999l-0.002-20.002L89.499,59.5z M19.499-0.499L19.5,9.49c0,0.003,0,0.006,0,0.01c0,5.523,4.477,10,10,10
	s10-4.477,10-10v0h0L39.499-0.501L19.499-0.499z M69.5,19.5c5.523,0,10-4.477,10-10c0,0,0-0.001,0-0.001l-0.002-10l-20,0.002
	l0.002,10C59.5,15.023,63.977,19.5,69.5,19.5z M79.501,89.5c0-5.523-4.478-10-10-10s-10,4.477-10,10c0,0.001,0,0.001,0,0.002H59.5
	l0.002,9.999l20-0.002L79.5,89.52C79.5,89.513,79.501,89.507,79.501,89.5z M29.5,79.5c-5.523,0-10,4.477-10,10
	c0,0.007,0.001,0.013,0.001,0.02v9.981l20-0.002v-10h0C39.5,83.976,35.022,79.5,29.5,79.5z M9.5,59.5L9.5,59.5L9.5,59.5
	l-10.001,0.001l0.002,20l9.979-0.002c0.007,0,0.013,0.001,0.02,0.001c5.523,0,10-4.477,10-10S15.023,59.5,9.5,59.5z M9.5,39.5
	c5.523,0,10-4.477,10-10s-4.477-10-10-10c0,0-0.001,0-0.001,0v0L-0.5,19.501v20L9.49,39.5C9.494,39.5,9.497,39.5,9.5,39.5z"/>
</svg>
