<?xml version="1.0" encoding="utf-8"?>
<!-- Generator: Adobe Illustrator 13.0.0, SVG Export Plug-In . SVG Version: 6.00 Build 14948)  -->
<!DOCTYPE svg PUBLIC "-//W3C//DTD SVG 1.1//EN" "http://www.w3.org/Graphics/SVG/1.1/DTD/svg11.dtd">
<svg version="1.1" id="Ebene_1" xmlns="http://www.w3.org/2000/svg" xmlns:xlink="http://www.w3.org/1999/xlink" x="0px" y="0px"
	 width="100px" height="100px" viewBox="0 0 100 100" enable-background="new 0 0 100 100" xml:space="preserve">
<g>
	<path d="M79.499,39.5L79.5,59.499H19.499L19.498,39.5H79.499 M75.499,43.5H23.498l0.001,11.999H75.5L75.499,43.5L75.499,43.5z"/>
</g>
<g>
	<path d="M59.498,19.5v60.001L39.5,79.502V19.5H59.498 M55.498,23.5H43.5v52.002l11.999-0.001L55.498,23.5L55.498,23.5z"/>
</g>
<circle cx="71.134" cy="46.864" r="1.366"/>
<circle cx="71.134" cy="52.5" r="1.366"/>
<circle cx="27" cy="46.614" r="1.366"/>
<circle cx="27" cy="52.25" r="1.366"/>
<circle cx="52.137" cy="71.267" r="1.366"/>
<circle cx="46.5" cy="71.267" r="1.366"/>
<circle cx="52.387" cy="27.134" r="1.366"/>
<circle cx="46.75" cy="27.134" r="1.366"/>
</svg>
