<?xml version="1.0" encoding="utf-8"?>
<!-- Generator: Adobe Illustrator 13.0.0, SVG Export Plug-In . SVG Version: 6.00 Build 14948)  -->
<!DOCTYPE svg PUBLIC "-//W3C//DTD SVG 1.1//EN" "http://www.w3.org/Graphics/SVG/1.1/DTD/svg11.dtd">
<svg version="1.1" id="Ebene_1" xmlns="http://www.w3.org/2000/svg" xmlns:xlink="http://www.w3.org/1999/xlink" x="0px" y="0px"
	 width="100px" height="100px" viewBox="0 0 100 100" enable-background="new 0 0 100 100" xml:space="preserve">
<g>
	<path d="M99.498,19.5l0.002,20H49.52c-0.007,0-0.013,0.001-0.02,0.001c-5.523,0-10-4.477-10-10s4.476-10,9.999-10l0,0L99.498,19.5
		 M99.5,59.501v20H49.52c-0.007,0-0.013,0.001-0.02,0.001c-5.523,0-10-4.477-10-10s4.476-9.999,9.999-10v-0.001H99.5 M95.498,23.5
		H49.499c-3.308,0-5.999,2.692-5.999,6c0,3.309,2.691,6,6,6h46L95.498,23.5L95.498,23.5z M95.5,63.501H49.499
		c-3.308,0.001-5.999,2.692-5.999,6.001s2.691,6,6,6l46-0.001V63.501L95.5,63.501z"/>
</g>
<circle cx="88.936" cy="26.821" r="1.366"/>
<circle cx="88.936" cy="32.457" r="1.366"/>
<circle cx="88.936" cy="66.912" r="1.366"/>
<circle cx="88.936" cy="72.548" r="1.366"/>
</svg>
