<?xml version="1.0" encoding="utf-8"?>
<!-- Generator: Adobe Illustrator 13.0.0, SVG Export Plug-In . SVG Version: 6.00 Build 14948)  -->
<!DOCTYPE svg PUBLIC "-//W3C//DTD SVG 1.1//EN" "http://www.w3.org/Graphics/SVG/1.1/DTD/svg11.dtd">
<svg version="1.1" id="Ebene_1" xmlns="http://www.w3.org/2000/svg" xmlns:xlink="http://www.w3.org/1999/xlink" x="0px" y="0px"
	 width="100px" height="100px" viewBox="0 0 100 100" enable-background="new 0 0 100 100" xml:space="preserve">
<g>
	<path d="M69.5,39.499c5.523,0,10,4.477,10,10c0,0.013-0.002,0.025-0.002,0.039l0.002,49.96H59.501L59.499,49.5H59.5
		c0,0,0,0,0-0.001C59.5,43.976,63.977,39.499,69.5,39.499 M29.5,39.499c5.523,0,10,4.477,10,10c0,0.013-0.002,0.025-0.002,0.039
		v49.961H19.5V49.5v-0.001C19.5,43.976,23.977,39.499,29.5,39.499 M69.5,43.499c-3.309,0-6,2.692-6,6l0.001,45.999H75.5
		l-0.002-45.96C75.5,46.191,72.809,43.499,69.5,43.499L69.5,43.499z M29.5,43.499c-3.309,0-6,2.692-6,6v46h11.998V49.538
		C35.5,46.191,32.809,43.499,29.5,43.499L29.5,43.499z"/>
</g>
<circle cx="72.502" cy="90.968" r="1.366"/>
<circle cx="66.866" cy="90.968" r="1.366"/>
<circle cx="32.411" cy="90.968" r="1.366"/>
<circle cx="26.775" cy="90.968" r="1.366"/>
</svg>
