<?xml version="1.0" encoding="utf-8"?>
<!-- Generator: Adobe Illustrator 13.0.0, SVG Export Plug-In . SVG Version: 6.00 Build 14948)  -->
<!DOCTYPE svg PUBLIC "-//W3C//DTD SVG 1.1//EN" "http://www.w3.org/Graphics/SVG/1.1/DTD/svg11.dtd">
<svg version="1.1" id="Ebene_1" xmlns="http://www.w3.org/2000/svg" xmlns:xlink="http://www.w3.org/1999/xlink" x="0px" y="0px"
	 width="100px" height="100px" viewBox="0 0 100 100" enable-background="new 0 0 100 100" xml:space="preserve">
<g>
	<path d="M99.5,19.499V39.5c-16.602,0.004-31.537,6.698-42.43,17.572c-10.875,10.89-17.566,25.826-17.571,42.427H19.498
		C19.505,55.313,55.313,19.506,99.5,19.499 M99.5,59.499V79.5c-11.043,0.02-19.98,8.958-20.001,19.999H59.498
		C59.505,77.402,77.402,59.506,99.5,59.499 M95.5,23.604c-38.723,2.025-69.872,33.173-71.897,71.895h12.02
		c0.959-15.58,7.485-30.104,18.619-41.253C65.396,43.108,79.921,36.582,95.5,35.624V23.604L95.5,23.604z M95.5,63.721
		c-16.658,1.855-29.925,15.122-31.779,31.778h12.118C77.544,85.48,85.482,77.545,95.5,75.84V63.721L95.5,63.721z"/>
</g>
<circle cx="92.314" cy="26.821" r="1.366"/>
<circle cx="92.314" cy="32.457" r="1.366"/>
<circle cx="92.371" cy="67.425" r="1.366"/>
<circle cx="92.314" cy="72.548" r="1.366"/>
<circle cx="73.671" cy="92.58" r="1.366"/>
<circle cx="68.035" cy="92.58" r="1.366"/>
<circle cx="32.882" cy="92.582" r="1.366"/>
<circle cx="27.056" cy="92.582" r="1.366"/>
</svg>
