<?xml version="1.0" encoding="utf-8"?>
<!-- Generator: Adobe Illustrator 13.0.0, SVG Export Plug-In . SVG Version: 6.00 Build 14948)  -->
<!DOCTYPE svg PUBLIC "-//W3C//DTD SVG 1.1//EN" "http://www.w3.org/Graphics/SVG/1.1/DTD/svg11.dtd">
<svg version="1.1" id="Ebene_1" xmlns="http://www.w3.org/2000/svg" xmlns:xlink="http://www.w3.org/1999/xlink" x="0px" y="0px"
	 width="100px" height="100px" viewBox="0 0 100 100" enable-background="new 0 0 100 100" xml:space="preserve">
<g>
	<path d="M49.499,19.499L49.499,19.499c0,0.001,0.001,0.001,0.002,0.001c5.525,0,10.001,4.477,10.001,10s-4.477,10-10.001,10
		c0,0-0.001,0-0.002,0H-0.5V19.499H49.499 M49.5,59.5c5.525,0,10.001,4.477,10.001,10s-4.477,10-10.001,10
		c-0.006,0-0.013-0.001-0.02-0.001l-49.982,0.002V59.5h50C49.499,59.5,49.5,59.5,49.5,59.5 M49.499,23.499H3.5V35.5h45.999
		c3.312,0,6.003-2.691,6.003-6s-2.691-6-6.001-6L49.499,23.499L49.499,23.499z M49.5,63.5h-0.002h-46v12.001l45.982-0.002
		c3.33,0.001,6.021-2.69,6.021-5.999S52.811,63.5,49.5,63.5L49.5,63.5z"/>
</g>
<circle cx="9.579" cy="26.528" r="1.366"/>
<circle cx="9.579" cy="32.164" r="1.366"/>
<circle cx="9.579" cy="66.619" r="1.366"/>
<circle cx="9.579" cy="72.255" r="1.366"/>
</svg>
