<?xml version="1.0" encoding="utf-8"?>
<!-- Generator: Adobe Illustrator 13.0.0, SVG Export Plug-In . SVG Version: 6.00 Build 14948)  -->
<!DOCTYPE svg PUBLIC "-//W3C//DTD SVG 1.1//EN" "http://www.w3.org/Graphics/SVG/1.1/DTD/svg11.dtd">
<svg version="1.1" id="Ebene_1" xmlns="http://www.w3.org/2000/svg" xmlns:xlink="http://www.w3.org/1999/xlink" x="0px" y="0px"
	 width="100px" height="100px" viewBox="0 0 100 100" enable-background="new 0 0 100 100" xml:space="preserve">
<g>
	<path d="M99.501,59.501v20h-100v-20H99.501 M95.501,63.501h-92v12h92V63.501L95.501,63.501z"/>
</g>
<g>
	<path d="M99.499,19.5l0.002,19.999h-100L-0.501,19.5H99.499 M95.499,23.5h-92l0.002,11.999h92L95.499,23.5L95.499,23.5z"/>
</g>
<circle cx="89.484" cy="26.554" r="1.366"/>
<circle cx="89.484" cy="32.189" r="1.366"/>
<circle cx="9.307" cy="26.528" r="1.366"/>
<circle cx="9.307" cy="32.164" r="1.366"/>
<circle cx="9.307" cy="66.619" r="1.366"/>
<circle cx="9.307" cy="72.255" r="1.366"/>
<circle cx="89.486" cy="66.619" r="1.366"/>
<circle cx="89.486" cy="72.255" r="1.366"/>
</svg>
