<?xml version="1.0" encoding="utf-8"?>
<!-- Generator: Adobe Illustrator 13.0.0, SVG Export Plug-In . SVG Version: 6.00 Build 14948)  -->
<!DOCTYPE svg PUBLIC "-//W3C//DTD SVG 1.1//EN" "http://www.w3.org/Graphics/SVG/1.1/DTD/svg11.dtd">
<svg version="1.1" id="Ebene_1" xmlns="http://www.w3.org/2000/svg" xmlns:xlink="http://www.w3.org/1999/xlink" x="0px" y="0px"
	 width="100px" height="100px" viewBox="0 0 100 100" enable-background="new 0 0 100 100" xml:space="preserve">
<g>
	<path d="M-0.5,19.499c44.187,0.006,79.995,35.813,80.002,80H59.498c-0.004-16.601-6.699-31.536-17.571-42.427
		C31.036,46.199,16.101,39.504-0.5,39.5V19.499 M3.5,23.604v12.02c15.578,0.958,30.101,7.484,41.253,18.618
		c11.14,11.156,17.664,25.68,18.623,41.258h12.022C73.371,56.775,42.222,25.628,3.5,23.604L3.5,23.604z"/>
</g>
<g>
	<path d="M-0.5,59.498C21.594,59.507,39.494,77.404,39.501,99.5H19.499C19.479,88.457,10.541,79.52-0.5,79.499V59.498 M-0.5,79.499
		v0.002V79.499 M3.5,63.721v12.118c10.017,1.706,17.954,9.644,19.658,19.661h12.12C33.423,78.844,20.157,65.577,3.5,63.721
		L3.5,63.721z"/>
</g>
<circle cx="7.529" cy="26.554" r="1.366"/>
<circle cx="7.529" cy="32.189" r="1.366"/>
<circle cx="7.532" cy="67.343" r="1.366"/>
<circle cx="7.532" cy="73.169" r="1.366"/>
<circle cx="72.918" cy="92.76" r="1.366"/>
<circle cx="67.281" cy="92.76" r="1.366"/>
<circle cx="32.128" cy="92.762" r="1.366"/>
<circle cx="26.303" cy="92.762" r="1.366"/>
</svg>
