<?xml version="1.0" encoding="utf-8"?>
<!-- Generator: Adobe Illustrator 13.0.0, SVG Export Plug-In . SVG Version: 6.00 Build 14948)  -->
<!DOCTYPE svg PUBLIC "-//W3C//DTD SVG 1.1//EN" "http://www.w3.org/Graphics/SVG/1.1/DTD/svg11.dtd">
<svg version="1.1" id="Ebene_1" xmlns="http://www.w3.org/2000/svg" xmlns:xlink="http://www.w3.org/1999/xlink" x="0px" y="0px"
	 width="100px" height="100px" viewBox="0 0 100 100" enable-background="new 0 0 100 100" xml:space="preserve">
<g>
	<path d="M99.5,19.5v19.999c-16.602,0.004-31.537,6.7-42.428,17.574C46.197,67.963,39.504,82.898,39.5,99.5h0.002H19.499
		C19.505,55.313,55.313,19.505,99.5,19.5 M95.5,23.604C56.777,25.628,25.628,56.775,23.604,95.5h12.02
		c0.959-15.58,7.485-30.104,18.619-41.253c11.157-11.14,25.682-17.666,41.26-18.625V23.604H95.5z"/>
</g>
<g>
	<path d="M99.5,59.5v19.999c-11.043,0.021-19.98,8.958-20,20.001h0.002H59.498C59.506,77.402,77.404,59.505,99.5,59.5 M95.5,63.723
		C78.842,65.576,65.576,78.842,63.721,95.5H75.84c1.705-10.018,9.645-17.956,19.66-19.661V63.723L95.5,63.723z"/>
</g>
<g>
	<path d="M-0.5,19.499C43.687,19.506,79.494,55.313,79.502,99.5H59.498c-0.004-16.602-6.697-31.538-17.572-42.427
		C31.035,46.198,16.101,39.505-0.5,39.499V19.499 M-0.5,39.499v0.002V39.499 M3.5,23.604v12.019
		c15.578,0.96,30.102,7.487,41.252,18.62C55.891,65.396,62.418,79.92,63.375,95.5h12.021C73.371,56.777,42.223,25.629,3.5,23.604
		L3.5,23.604z"/>
</g>
<g>
	<path d="M-0.5,59.498C21.596,59.505,39.493,77.404,39.501,99.5H19.499C19.479,88.458,10.542,79.52-0.5,79.499V59.498 M-0.5,79.499
		v0.002V79.499 M3.5,63.721v12.118c10.017,1.705,17.954,9.644,19.659,19.661h12.12C33.422,78.842,20.155,65.575,3.5,63.721
		L3.5,63.721z"/>
</g>
<circle cx="7.753" cy="26.554" r="1.366"/>
<circle cx="7.753" cy="32.189" r="1.366"/>
<circle cx="7.755" cy="67.343" r="1.366"/>
<circle cx="7.755" cy="73.169" r="1.366"/>
<circle cx="90.381" cy="26.554" r="1.366"/>
<circle cx="90.381" cy="32.189" r="1.366"/>
<circle cx="90.383" cy="67.343" r="1.366"/>
<circle cx="90.383" cy="73.169" r="1.366"/>
</svg>
