<?xml version="1.0" encoding="utf-8"?>
<!-- Generator: Adobe Illustrator 13.0.0, SVG Export Plug-In . SVG Version: 6.00 Build 14948)  -->
<!DOCTYPE svg PUBLIC "-//W3C//DTD SVG 1.1//EN" "http://www.w3.org/Graphics/SVG/1.1/DTD/svg11.dtd">
<svg version="1.1" id="Ebene_1" xmlns="http://www.w3.org/2000/svg" xmlns:xlink="http://www.w3.org/1999/xlink" x="0px" y="0px"
	 width="100px" height="100px" viewBox="0 0 100 100" enable-background="new 0 0 100 100" xml:space="preserve">
<g>
	<path d="M79.5-0.501v50.002c-0.001,5.522-4.477,9.999-10,9.999s-9.999-4.477-10-9.999h-0.001V-0.501H79.5 M39.5-0.501v50.002
		c0,5.522-4.477,9.999-10,9.999s-10-4.479-10-10c0-0.003,0-0.007,0-0.01V-0.501H39.5 M75.5,3.499H63.499v46.002
		C63.5,52.811,66.191,55.5,69.5,55.5s5.999-2.689,6-6V3.499L75.5,3.499z M35.5,3.499h-12V49.49c0,3.316,2.691,6.01,6,6.01
		c3.308,0,6-2.689,6-5.999V3.499L35.5,3.499z"/>
</g>
<circle cx="72.234" cy="8.946" r="1.366"/>
<circle cx="66.6" cy="8.946" r="1.366"/>
<circle cx="32.144" cy="8.946" r="1.366"/>
<circle cx="26.508" cy="8.946" r="1.366"/>
</svg>
