<?xml version="1.0" encoding="utf-8"?>
<!-- Generator: Adobe Illustrator 13.0.0, SVG Export Plug-In . SVG Version: 6.00 Build 14948)  -->
<!DOCTYPE svg PUBLIC "-//W3C//DTD SVG 1.1//EN" "http://www.w3.org/Graphics/SVG/1.1/DTD/svg11.dtd">
<svg version="1.1" id="Ebene_1" xmlns="http://www.w3.org/2000/svg" xmlns:xlink="http://www.w3.org/1999/xlink" x="0px" y="0px"
	 width="100px" height="100px" viewBox="0 0 100 100" enable-background="new 0 0 100 100" xml:space="preserve">
<g>
	<path d="M79.5-0.501c0.021,11.04,8.959,19.979,19.999,19.999v20C77.402,39.492,59.506,21.595,59.5-0.501H79.5 M39.499-0.5
		c0.006,16.599,6.699,31.536,17.573,42.425C67.962,52.8,82.898,59.493,99.5,59.499V79.5c-44.188-0.008-79.994-35.813-80-80H39.499
		 M75.84,3.499H63.723c1.854,16.657,15.119,29.923,31.776,31.777V23.158C85.48,21.453,77.545,13.516,75.84,3.499L75.84,3.499z
		 M35.622,3.5H23.604C25.629,42.221,56.775,73.369,95.5,75.396V63.375c-15.581-0.96-30.104-7.486-41.253-18.621
		C43.109,33.603,36.583,19.08,35.622,3.5L35.622,3.5z"/>
</g>
<circle cx="90.626" cy="25.228" r="1.366"/>
<circle cx="90.626" cy="30.864" r="1.366"/>
<circle cx="90.628" cy="66.018" r="1.366"/>
<circle cx="90.628" cy="71.844" r="1.366"/>
<circle cx="73.688" cy="7.242" r="1.366"/>
<circle cx="68.055" cy="7.242" r="1.366"/>
<circle cx="32.899" cy="7.244" r="1.366"/>
<circle cx="27.073" cy="7.244" r="1.366"/>
</svg>
