<?xml version="1.0" encoding="utf-8"?>
<!-- Generator: Adobe Illustrator 13.0.0, SVG Export Plug-In . SVG Version: 6.00 Build 14948)  -->
<!DOCTYPE svg PUBLIC "-//W3C//DTD SVG 1.1//EN" "http://www.w3.org/Graphics/SVG/1.1/DTD/svg11.dtd">
<svg version="1.1" id="Ebene_1" xmlns="http://www.w3.org/2000/svg" xmlns:xlink="http://www.w3.org/1999/xlink" x="0px" y="0px"
	 width="100px" height="100px" viewBox="0 0 100 100" enable-background="new 0 0 100 100" xml:space="preserve">
<g>
	<path d="M39.5-0.5c0.005,16.6,6.698,31.535,17.572,42.425c10.892,10.874,25.826,17.568,42.429,17.574V79.5
		c-44.188-0.009-79.995-35.813-80-80H39.5 M35.623,3.5H23.605c2.023,38.72,33.172,69.868,71.896,71.896V63.376
		c-15.579-0.961-30.104-7.487-41.255-18.62C43.108,33.603,36.583,19.079,35.623,3.5L35.623,3.5z"/>
</g>
<g>
	<path d="M79.5-0.5c0.02,11.041,8.958,19.979,20.001,19.999V39.5c-22.097-0.009-39.995-17.906-40-40H79.5 M75.84,3.5H63.723
		c1.854,16.655,15.12,29.921,31.778,31.777V23.159C85.482,21.454,77.545,13.517,75.84,3.5L75.84,3.5z"/>
</g>
<g>
	<path d="M99.501,19.499V39.5c-16.603,0.005-31.537,6.698-42.429,17.572C46.197,67.962,39.505,82.898,39.5,99.499h0.002H19.499
		C19.506,55.313,55.313,19.506,99.501,19.499 M95.501,23.604C56.777,25.629,25.629,56.777,23.604,95.5h12.02
		c0.959-15.58,7.485-30.104,18.619-41.253c11.155-11.138,25.68-17.664,41.259-18.623L95.501,23.604L95.501,23.604z"/>
</g>
<g>
	<path d="M99.501,59.499V79.5C88.458,79.52,79.52,88.458,79.5,99.499h0.002H59.499C59.506,77.404,77.404,59.506,99.501,59.499
		 M95.501,63.721c-16.658,1.855-29.925,15.122-31.778,31.778H75.84c1.705-10.017,9.645-17.954,19.661-19.659V63.721L95.501,63.721z"
		/>
</g>
<circle cx="73.869" cy="92.424" r="1.366"/>
<circle cx="68.232" cy="92.424" r="1.366"/>
<circle cx="33.08" cy="92.426" r="1.366"/>
<circle cx="27.254" cy="92.426" r="1.366"/>
<circle cx="73.869" cy="7.241" r="1.366"/>
<circle cx="68.232" cy="7.241" r="1.366"/>
<circle cx="33.08" cy="7.243" r="1.366"/>
<circle cx="27.254" cy="7.243" r="1.366"/>
<circle cx="90.382" cy="26.414" r="1.366"/>
<circle cx="90.382" cy="32.05" r="1.366"/>
<circle cx="90.384" cy="67.203" r="1.366"/>
<circle cx="90.384" cy="73.029" r="1.366"/>
</svg>
