<?xml version="1.0" encoding="utf-8"?>
<!-- Generator: Adobe Illustrator 13.0.0, SVG Export Plug-In . SVG Version: 6.00 Build 14948)  -->
<!DOCTYPE svg PUBLIC "-//W3C//DTD SVG 1.1//EN" "http://www.w3.org/Graphics/SVG/1.1/DTD/svg11.dtd">
<svg version="1.1" id="Ebene_1" xmlns="http://www.w3.org/2000/svg" xmlns:xlink="http://www.w3.org/1999/xlink" x="0px" y="0px"
	 width="100px" height="100px" viewBox="0 0 100 100" enable-background="new 0 0 100 100" xml:space="preserve">
<g>
	<path d="M79.499-0.5C79.492,43.686,43.686,79.493-0.5,79.501V59.498c16.599-0.004,31.536-6.698,42.425-17.572
		C52.8,31.034,59.493,16.1,59.498-0.5H59.5H79.499 M75.395,3.5h-12.02c-0.959,15.578-7.484,30.101-18.619,41.252
		C33.603,55.891,19.08,62.417,3.5,63.375v12.021C42.221,73.37,73.369,42.222,75.395,3.5L75.395,3.5z"/>
</g>
<g>
	<path d="M39.5-0.501c-0.008,22.096-17.906,39.993-40,40.002V19.498c11.041-0.02,19.98-8.957,20-19.999H39.5 M35.278,3.499H23.16
		C21.455,13.516,13.518,21.453,3.5,23.158v12.12C20.153,33.421,33.42,20.152,35.278,3.499L35.278,3.499z"/>
</g>
<circle cx="7.909" cy="25.121" r="1.366"/>
<circle cx="7.909" cy="30.757" r="1.366"/>
<circle cx="7.911" cy="65.91" r="1.366"/>
<circle cx="7.911" cy="71.736" r="1.366"/>
<circle cx="71.895" cy="7.331" r="1.366"/>
<circle cx="66.259" cy="7.331" r="1.366"/>
<circle cx="31.105" cy="7.333" r="1.366"/>
<circle cx="25.279" cy="7.333" r="1.366"/>
</svg>
