<?xml version="1.0" encoding="utf-8"?>
<!-- Generator: Adobe Illustrator 13.0.0, SVG Export Plug-In . SVG Version: 6.00 Build 14948)  -->
<!DOCTYPE svg PUBLIC "-//W3C//DTD SVG 1.1//EN" "http://www.w3.org/Graphics/SVG/1.1/DTD/svg11.dtd">
<svg version="1.1" id="Ebene_1" xmlns="http://www.w3.org/2000/svg" xmlns:xlink="http://www.w3.org/1999/xlink" x="0px" y="0px"
	 width="100px" height="100px" viewBox="0 0 100 100" enable-background="new 0 0 100 100" xml:space="preserve">
<g>
	<path d="M39.5-0.5c0.006,16.6,6.699,31.534,17.575,42.426C67.963,52.8,82.9,59.494,99.5,59.5l-0.002,20.001
		C55.313,79.493,19.506,43.686,19.5-0.5H39.5 M35.623,3.5H23.604c2.025,38.722,33.173,69.87,71.895,71.896l0.002-12.021
		c-15.58-0.961-30.104-7.484-41.252-18.621C43.109,33.602,36.583,19.078,35.623,3.5L35.623,3.5z"/>
</g>
<g>
	<path d="M79.5-0.501c0.02,11.042,8.959,19.981,20,20.001l-0.002,20.001C77.404,39.492,59.506,21.595,59.5-0.501H79.5 M75.84,3.499
		H63.723c1.854,16.656,15.119,29.923,31.775,31.779L95.5,23.16C85.482,21.455,77.545,13.517,75.84,3.499L75.84,3.499z"/>
</g>
<g>
	<path d="M79.5-0.5c-0.006,44.186-35.813,79.993-80,80.001V59.498c16.6-0.004,31.537-6.698,42.426-17.572
		C52.801,31.034,59.494,16.1,59.498-0.5H59.5H79.5 M75.396,3.5H63.375c-0.959,15.578-7.484,30.101-18.618,41.252
		C33.604,55.891,19.081,62.416,3.5,63.375v12.021C42.223,73.37,73.371,42.221,75.396,3.5L75.396,3.5z"/>
</g>
<g>
	<path d="M39.5-0.501c-0.006,22.096-17.904,39.993-40,40.002V19.498c11.043-0.02,19.979-8.957,19.999-19.999H19.5H39.5
		 M35.277,3.499H23.159C21.454,13.516,13.517,21.453,3.5,23.158v12.12C20.157,33.422,33.423,20.155,35.277,3.499L35.277,3.499z"/>
</g>
<circle cx="7.911" cy="25.121" r="1.366"/>
<circle cx="7.911" cy="30.757" r="1.366"/>
<circle cx="7.913" cy="65.91" r="1.366"/>
<circle cx="7.913" cy="71.736" r="1.366"/>
<circle cx="90.627" cy="25.032" r="1.366"/>
<circle cx="90.627" cy="30.668" r="1.366"/>
<circle cx="90.629" cy="65.821" r="1.366"/>
<circle cx="90.629" cy="71.647" r="1.366"/>
<circle cx="72.836" cy="6.905" r="1.366"/>
<circle cx="67.201" cy="6.905" r="1.366"/>
<circle cx="32.047" cy="6.907" r="1.366"/>
<circle cx="26.222" cy="6.907" r="1.366"/>
</svg>
