<?xml version="1.0" encoding="utf-8"?>
<!-- Generator: Adobe Illustrator 13.0.0, SVG Export Plug-In . SVG Version: 6.00 Build 14948)  -->
<!DOCTYPE svg PUBLIC "-//W3C//DTD SVG 1.1//EN" "http://www.w3.org/Graphics/SVG/1.1/DTD/svg11.dtd">
<svg version="1.1" id="Ebene_1" xmlns="http://www.w3.org/2000/svg" xmlns:xlink="http://www.w3.org/1999/xlink" x="0px" y="0px"
	 width="100px" height="100px" viewBox="0 0 100 100" enable-background="new 0 0 100 100" xml:space="preserve">
<g>
	<path d="M79.499-0.5C79.493,43.686,43.686,79.493-0.5,79.501V59.498c16.6-0.004,31.534-6.698,42.426-17.572
		C52.8,31.034,59.493,16.1,59.498-0.5H59.5H79.499 M75.395,3.5h-12.02c-0.959,15.578-7.484,30.102-18.618,41.252
		C33.601,55.891,19.077,62.416,3.5,63.375v12.021C42.222,73.37,73.37,42.223,75.395,3.5L75.395,3.5z"/>
</g>
<g>
	<path d="M39.5-0.501c-0.009,22.097-17.906,39.993-40,40.002V19.498c11.04-0.02,19.979-8.957,19.999-19.999H39.5 M35.277,3.499
		H23.159C21.454,13.516,13.517,21.453,3.5,23.158v12.119C20.154,33.421,33.421,20.154,35.277,3.499L35.277,3.499z"/>
</g>
<g>
	<path d="M-0.5,19.498c44.187,0.007,79.991,35.813,80,80.002H59.499c-0.006-16.602-6.7-31.537-17.574-42.43
		C31.035,46.197,16.1,39.504-0.5,39.499V19.498 M-0.5,39.499v0.002V39.499 M3.5,23.604v12.02
		c15.579,0.959,30.102,7.484,41.251,18.619c11.138,11.153,17.664,25.68,18.624,41.259h12.021C73.368,56.777,42.22,25.628,3.5,23.604
		L3.5,23.604z"/>
</g>
<g>
	<path d="M-0.5,59.498c22.094,0.007,39.991,17.904,40,40.002H19.499C19.479,88.457,10.541,79.52-0.5,79.499V59.498 M-0.5,79.499
		v0.002V79.499 M3.5,63.721v12.118c10.017,1.705,17.954,9.644,19.659,19.661h12.118C33.421,78.842,20.155,65.575,3.5,63.721
		L3.5,63.721z"/>
</g>
<circle cx="7.238" cy="26.397" r="1.366"/>
<circle cx="7.238" cy="32.033" r="1.366"/>
<circle cx="7.24" cy="67.187" r="1.366"/>
<circle cx="7.24" cy="73.013" r="1.366"/>
<circle cx="72.075" cy="91.235" r="1.366"/>
<circle cx="66.439" cy="91.235" r="1.366"/>
<circle cx="31.286" cy="91.237" r="1.366"/>
<circle cx="25.46" cy="91.237" r="1.366"/>
<circle cx="72.075" cy="7.153" r="1.366"/>
<circle cx="66.439" cy="7.153" r="1.366"/>
<circle cx="31.286" cy="7.155" r="1.366"/>
<circle cx="25.46" cy="7.155" r="1.366"/>
</svg>
