<?xml version="1.0" encoding="utf-8"?>
<!-- Generator: Adobe Illustrator 13.0.0, SVG Export Plug-In . SVG Version: 6.00 Build 14948)  -->
<!DOCTYPE svg PUBLIC "-//W3C//DTD SVG 1.1//EN" "http://www.w3.org/Graphics/SVG/1.1/DTD/svg11.dtd">
<svg version="1.1" id="Ebene_1" xmlns="http://www.w3.org/2000/svg" xmlns:xlink="http://www.w3.org/1999/xlink" x="0px" y="0px"
	 width="100px" height="100px" viewBox="0 0 100 100" enable-background="new 0 0 100 100" xml:space="preserve">
<g>
	<path d="M99.5,19.5v19.999c-16.602,0.005-31.537,6.698-42.428,17.571C46.197,67.963,39.504,82.896,39.5,99.5h0.002H19.499
		C19.505,55.313,55.313,19.505,99.5,19.5 M95.5,23.604C56.777,25.627,25.628,56.775,23.604,95.5h12.02
		c0.959-15.579,7.485-30.104,18.619-41.255c11.155-11.138,25.68-17.664,41.26-18.623V23.604H95.5z"/>
</g>
<g>
	<path d="M99.5,59.5v19.999c-11.043,0.021-19.98,8.958-20,20.001h0.002H59.498C59.506,77.402,77.404,59.505,99.5,59.5 M95.5,63.723
		C78.842,65.576,65.576,78.842,63.721,95.5H75.84c1.705-10.02,9.645-17.956,19.66-19.661V63.723L95.5,63.723z"/>
</g>
<g>
	<path d="M-0.5,19.498C43.687,19.505,79.494,55.313,79.502,99.5H59.498c-0.004-16.604-6.697-31.537-17.571-42.43
		C31.038,46.197,16.1,39.504-0.5,39.499V19.498 M-0.5,39.499v0.002V39.499 M3.5,23.603v12.02
		c15.581,0.959,30.104,7.485,41.253,18.619c11.14,11.154,17.666,25.68,18.623,41.259h12.021C73.371,56.775,42.222,25.628,3.5,23.603
		L3.5,23.603z"/>
</g>
<g>
	<path d="M-0.5,59.498C21.596,59.505,39.494,77.402,39.501,99.5H19.499C19.479,88.457,10.541,79.52-0.5,79.499V59.498 M-0.5,79.499
		v0.002V79.499 M3.5,63.723v12.116c10.017,1.705,17.954,9.646,19.659,19.661h12.12C33.423,78.842,20.157,65.575,3.5,63.723
		L3.5,63.723z"/>
</g>
<g>
	<g>
		<path d="M79.5-0.5c-0.006,44.186-35.813,79.993-80,80.001V59.498c16.6-0.004,31.534-6.698,42.426-17.572
			C52.801,31.034,59.494,16.1,59.498-0.5H59.5H79.5 M75.396,3.5H63.375c-0.957,15.577-7.482,30.1-18.618,41.252
			C33.602,55.893,19.078,62.417,3.5,63.375v12.021C42.223,73.37,73.371,42.222,75.396,3.5L75.396,3.5z"/>
	</g>
</g>
<g>
	<path d="M39.5-0.501c-0.007,22.096-17.904,39.993-40,40.002V19.498c11.042-0.02,19.979-8.957,19.999-19.999H19.5H39.5
		 M35.276,3.499H23.159C21.454,13.516,13.517,21.453,3.5,23.158v12.12C20.157,33.422,33.422,20.155,35.276,3.499L35.276,3.499z"/>
</g>
<g>
	<g>
		<path d="M39.5-0.501c0.005,16.6,6.698,31.538,17.572,42.427C67.963,52.8,82.898,59.494,99.5,59.498V59.5v19.999
			c-44.188-0.006-79.995-35.813-80-80H39.5 M35.623,3.499H23.604C25.627,42.222,56.777,73.37,95.5,75.396V63.375
			c-15.578-0.958-30.102-7.482-41.254-18.618C43.107,33.604,36.582,19.08,35.623,3.499L35.623,3.499z"/>
	</g>
</g>
<g>
	<path d="M79.5-0.501c0.02,11.041,8.957,19.979,20,19.999V19.5v19.999c-22.096-0.006-39.994-17.904-40-40H79.5 M75.84,3.499H63.723
		C65.576,20.156,78.842,33.423,95.5,35.277V23.158C85.482,21.453,77.545,13.516,75.84,3.499L75.84,3.499z"/>
</g>
<circle cx="6.901" cy="25.972" r="1.366"/>
<circle cx="6.901" cy="31.607" r="1.366"/>
<circle cx="6.903" cy="66.761" r="1.366"/>
<circle cx="6.903" cy="72.587" r="1.366"/>
<circle cx="92.512" cy="26.397" r="1.366"/>
<circle cx="92.512" cy="32.033" r="1.366"/>
<circle cx="92.514" cy="67.188" r="1.366"/>
<circle cx="92.514" cy="73.013" r="1.366"/>
<circle cx="73.018" cy="6.478" r="1.366"/>
<circle cx="67.381" cy="6.478" r="1.366"/>
<circle cx="32.228" cy="6.48" r="1.366"/>
<circle cx="26.4" cy="6.48" r="1.366"/>
<circle cx="73.018" cy="92.939" r="1.366"/>
<circle cx="67.381" cy="92.939" r="1.366"/>
<circle cx="32.228" cy="92.941" r="1.366"/>
<circle cx="26.4" cy="92.941" r="1.366"/>
</svg>
