<?xml version="1.0" encoding="utf-8"?>
<!-- Generator: Adobe Illustrator 13.0.0, SVG Export Plug-In . SVG Version: 6.00 Build 14948)  -->
<!DOCTYPE svg PUBLIC "-//W3C//DTD SVG 1.1//EN" "http://www.w3.org/Graphics/SVG/1.1/DTD/svg11.dtd">
<svg version="1.1" id="Ebene_1" xmlns="http://www.w3.org/2000/svg" xmlns:xlink="http://www.w3.org/1999/xlink" x="0px" y="0px"
	 width="100px" height="100px" viewBox="0 0 100 100" enable-background="new 0 0 100 100" xml:space="preserve">
<path d="M89.5,29.5l10,10v-20L89.5,29.5z M99.5,79.5v-20l-10,10L99.5,79.5z M89.495,39.502l-9.994,9.995L79.5,49.496L89.495,39.502
	l-10.001-9.998l-9.999,9.999l9.996,9.996l-9.993,9.993l10,10l9.993-9.993l0.003,0.003l10-10L89.495,39.502z M59.5,99.5h20l-10-10
	L59.5,99.5z M19.5,99.5h20l-10-10L19.5,99.5z M59.498,89.496l10-9.998l-9.999-10l-10,10h0L49.499,79.5l-9.999-10l-10,10l10,10
	l0.001-0.002l9.999,10l10-10L59.498,89.496z M19.499,49.501l-10,10l10,9.999l10-9.999L19.499,49.501z M19.499,49.499L9.5,39.5
	l-9.999,9.999l10,9.999L19.499,49.499z M29.5,39.5l-10-10l-9.999,9.999l10,10L29.5,39.5z M49.5,19.502l10,10l10-10l-10-10
	L49.5,19.502z M49.499,19.499L49.5,19.5l10-10l-10-10l-10,10l0,0L29.5,19.499l9.999,9.999L49.499,19.499z"/>
</svg>
