<?xml version="1.0" encoding="utf-8"?>
<!-- Generator: Adobe Illustrator 13.0.0, SVG Export Plug-In . SVG Version: 6.00 Build 14948)  -->
<!DOCTYPE svg PUBLIC "-//W3C//DTD SVG 1.1//EN" "http://www.w3.org/Graphics/SVG/1.1/DTD/svg11.dtd">
<svg version="1.1" id="Ebene_1" xmlns="http://www.w3.org/2000/svg" xmlns:xlink="http://www.w3.org/1999/xlink" x="0px" y="0px"
	 width="100px" height="100px" viewBox="0 0 100 100" enable-background="new 0 0 100 100" xml:space="preserve">
<path d="M39.501,59.501L29.502,69.5l10,10l9.999-9.999L39.501,59.501z M19.5,79.498l10,10l9.999-9.999l-10-10L19.5,79.498z
	 M9.503,89.5l10,10l9.999-9.999l-10-9.999L9.503,89.5z M9.501,69.502L-0.498,79.5l10,10l9.999-9.998L9.501,69.502z M19.5,59.5l10-10
	l-10-10l-10,10L19.5,59.5z M19.498,59.498l-10-10l-9.999,9.999l10,10L19.498,59.498z M-0.5,59.5v20l10-10L-0.5,59.5z M9.5,49.499
	l10-10l0,0l-10-10l0,0l-0.001-0.001L-0.5,19.5v20l0.001-0.001L9.5,49.499z M9.5,9.5l-10,10l9.999,10l10-10L9.5,9.5z M29.499,9.5
	l-10-10L9.5,9.5l10,10L29.499,9.5z M29.5,29.499L29.5,29.499l9.998,10l10-10L39.5,19.5l0,0L29.501,9.5l-10,10L29.5,29.499z"/>
</svg>
