<?xml version="1.0" encoding="utf-8"?>
<!-- Generator: Adobe Illustrator 13.0.0, SVG Export Plug-In . SVG Version: 6.00 Build 14948)  -->
<!DOCTYPE svg PUBLIC "-//W3C//DTD SVG 1.1//EN" "http://www.w3.org/Graphics/SVG/1.1/DTD/svg11.dtd">
<svg version="1.1" id="Ebene_1" xmlns="http://www.w3.org/2000/svg" xmlns:xlink="http://www.w3.org/1999/xlink" x="0px" y="0px"
	 width="100px" height="100px" viewBox="0 0 100 100" enable-background="new 0 0 100 100" xml:space="preserve">
<path d="M19.499,19.499L19.499,19.499l10-9.999l-10-10l-10,10v0l-10,10v20L9.499,29.5L9.5,29.499L19.499,19.499z M9.499,49.5l10-10
	l-10-10l-10,10L9.499,49.5z M-0.498,59.497l9.999,9.999l9.998-9.998l0,0.001l10-10l-10-10l0,0L9.5,49.499L-0.498,59.497z M9.5,69.5
	l-10,10L9.5,89.498l10-10L9.5,69.5z M9.501,89.5l9.999,9.998l10-10L19.5,79.5L9.501,89.5z M19.501,79.5l9.999,9.998l10-9.999
	L29.5,69.5L19.501,79.5z M-0.5,59.499v20l10-10L-0.5,59.499z M29.5,29.498l9.999-9.999L29.5,9.5l-9.999,9.999L29.5,29.498z
	 M39.502,39.497l9.999-9.999l-9.999-9.999l-10,9.999L39.502,39.497z M49.503,49.498l9.999-9.999L49.503,29.5l-10,9.999
	L49.503,49.498z M59.5,59.504l0.003-0.004l-10-10l-10,10l9.995,9.995l-0.001,0.002L39.502,59.5l-9.999,10l9.999,9.999l9.997-9.997
	l9.996,9.996l9.999-10L59.5,59.504z M69.501,29.498L69.501,29.498l10.001-9.999l9.996-9.998l-9.998-10L69.502,9.5l-10,10v0
	l-9.999,9.999l9.999,10L69.501,29.498z M69.492,49.501L79.49,59.5l10-10l-9.999-9.998L69.492,49.501z M99.498,39.5l-10-10l-10,10
	l10,10L99.498,39.5z M99.498,19.501l-9.999-9.999L79.5,19.501l9.999,9.999l0.001-0.001l10,10v-20L99.498,19.501z M79.5,59.5l10,10
	l10,9.999V59.5l-10-10L79.5,59.5z M79.5,79.5l10,10l10-9.999l-10-10L79.5,79.5z M89.5,89.501l-10-10l-10,9.999l10,10L89.5,89.501z
	 M59.5,79.5l10,10l10-10l-10-10L59.5,79.5z"/>
</svg>
