<?xml version="1.0" encoding="utf-8"?>
<!-- Generator: Adobe Illustrator 13.0.0, SVG Export Plug-In . SVG Version: 6.00 Build 14948)  -->
<!DOCTYPE svg PUBLIC "-//W3C//DTD SVG 1.1//EN" "http://www.w3.org/Graphics/SVG/1.1/DTD/svg11.dtd">
<svg version="1.1" id="Ebene_1" xmlns="http://www.w3.org/2000/svg" xmlns:xlink="http://www.w3.org/1999/xlink" x="0px" y="0px"
	 width="100px" height="100px" viewBox="0 0 100 100" enable-background="new 0 0 100 100" xml:space="preserve">
<path d="M99.5,19.5l-10,10l10,10V19.5z M99.5,79.5v-20l-10,10L99.5,79.5z M59.5,99.5h20l-10-10L59.5,99.5z M19.5,99.5h20l-10-10
	L19.5,99.5z M59.498,89.496l10-9.998l-9.999-10l-9.999,10L39.503,69.5l-10,10l9.999,10l9.998,9.998l10-10L59.498,89.496z M-0.5,79.5
	l10-10l-10-10V79.5z M-0.5,19.5v20l10-10L-0.5,19.5z M29.5,39.499L19.501,29.5l-10,10l9.999,10L29.5,39.499z M19.499,49.499
	L19.499,49.499L9.5,39.501l-10,10L9.5,59.5l9.999,9.998l10-10L19.499,49.499z M49.499,19.5l9.999,10l10-10l-9.999-9.999l0.003-0.003
	l-10-10l-10,10l9.999,9.999L49.499,19.5l-9.999-10l-10,10L39.5,29.5L49.499,19.5z M79.502,49.5l-10,10l10,10l10-10L79.502,49.5z
	 M79.504,49.499l10,10l10-10l-10-10L79.504,49.499z M89.502,39.499l-10-10l-10,10l10,10L89.502,39.499z"/>
</svg>
