<?xml version="1.0" encoding="utf-8"?>
<!-- Generator: Adobe Illustrator 13.0.0, SVG Export Plug-In . SVG Version: 6.00 Build 14948)  -->
<!DOCTYPE svg PUBLIC "-//W3C//DTD SVG 1.1//EN" "http://www.w3.org/Graphics/SVG/1.1/DTD/svg11.dtd">
<svg version="1.1" id="Ebene_1" xmlns="http://www.w3.org/2000/svg" xmlns:xlink="http://www.w3.org/1999/xlink" x="0px" y="0px"
	 width="100px" height="100px" viewBox="0 0 100 100" enable-background="new 0 0 100 100" xml:space="preserve">
<path d="M19.501,39.5l10,10l10-10l-10-10L19.501,39.5z M19.5,19.5l-10,10l10,10l10-10L19.5,19.5z M9.5,9.501l-10,10L9.5,29.5l10-10
	L9.5,9.501z M29.499,9.499L19.5-0.5L9.5,9.499l9.999,9.999L29.499,9.499z M49.5,9.5L39.501,19.5l10,10L59.5,19.5L49.5,9.5z
	 M39.5-0.5L29.5,9.5l10,10L49.5,9.5L39.5-0.5z M19.5-0.5l10,10l10-10l0,0H19.5z M59.501,19.5l9.999-10l-5-5l5,5l10-10h-20
	l0.001,0.001l-10,10L59.501,19.5z M89.502,9.502l-10,9.999L79.501,19.5L89.5,9.501l-9.999-9.999l-9.999,10l9.998,9.999l-9.999,9.998
	L69.5,29.498l-10,10l9.998,9.999l10-10l0.002,0.002l9.999-9.999l0.001,0.001l10-10L89.502,9.502z"/>
</svg>
