<?xml version="1.0" encoding="utf-8"?>
<!-- Generator: Adobe Illustrator 13.0.0, SVG Export Plug-In . SVG Version: 6.00 Build 14948)  -->
<!DOCTYPE svg PUBLIC "-//W3C//DTD SVG 1.1//EN" "http://www.w3.org/Graphics/SVG/1.1/DTD/svg11.dtd">
<svg version="1.1" id="Ebene_1" xmlns="http://www.w3.org/2000/svg" xmlns:xlink="http://www.w3.org/1999/xlink" x="0px" y="0px"
	 width="100px" height="100px" viewBox="0 0 100 100" enable-background="new 0 0 100 100" xml:space="preserve">
<path d="M39.5-0.5h-20l10,10L39.5-0.5z M79.5-0.5h-20l10,10L79.5-0.5z M59.5,9.501l-10-10l-10,10l10,10L59.5,9.501z M29.5,19.5
	l10,10L49.5,19.5l-10-10L29.5,19.5z M89.5,29.5l10,10v-20L89.5,29.5z M99.5,79.5v-20l-10,10L99.5,79.5z M89.495,39.502
	L89.495,39.502l-10,10l9.999,10l10-10L89.495,39.502z M69.491,59.502l9.998,9.998l10-9.999l-9.999-9.999L69.491,59.502z
	 M69.495,39.503l9.999,9.999l10-9.999l-10-9.999L69.495,39.503z M49.502,19.5l10,10l10-10l-10-10L49.502,19.5z M49.5,79.498
	l9.998,10.001l10-9.997l-9.997-10.001L49.5,79.498z M49.497,79.5l-9.999-10l-10,10l9.998,9.999L39.495,89.5l9.999,9.998l9.999-9.998
	l-9.997-9.998L49.497,79.5z M19.499,49.499l9.999-10l-10-10l-9.999,9.999L9.5,39.5l-10,10l9.999,9.999L19.499,49.499L19.499,49.499z
	 M19.499,49.501L9.501,59.5l10,10l9.999-9.998L19.499,49.501z"/>
</svg>
