<?xml version="1.0" encoding="utf-8"?>
<!-- Generator: Adobe Illustrator 13.0.0, SVG Export Plug-In . SVG Version: 6.00 Build 14948)  -->
<!DOCTYPE svg PUBLIC "-//W3C//DTD SVG 1.1//EN" "http://www.w3.org/Graphics/SVG/1.1/DTD/svg11.dtd">
<svg version="1.1" id="Ebene_1" xmlns="http://www.w3.org/2000/svg" xmlns:xlink="http://www.w3.org/1999/xlink" x="0px" y="0px"
	 width="100px" height="100px" viewBox="0 0 100 100" enable-background="new 0 0 100 100" xml:space="preserve">
<path d="M79.499,19.499L69.5,29.498l9.998,9.999l10-10l0.002,0.002l10-10l-20-20v0h-20l10,10L79.499,19.499z M39.499,19.5l10,10
	l9.999-10v0l10-10l-10-10l-9.999,10L39.499,19.5z M19.499,19.499L9.5,9.5l-10,10l9.999,10L19.499,19.499z M29.5,9.5L29.5,9.5
	l10,9.998l10-10l-9.999-9.999L39.5-0.5h-20l-10,10l9.999,10L29.5,9.5L29.5,9.5z M69.5,29.503l-9.998,9.999L59.5,39.501l-10,10
	l10,9.999l0.003-0.003l9.997,9.996l9.998-9.999l-9.995-9.996l9.996-9.997L69.5,29.503z M29.5,49.5l10-10l-10-10l0.001-0.001l-10-10
	l-10,10l10,10L19.5,39.5L29.5,49.5z M89.499,69.5l-10-10l-10,10l10,10l-10,10H69.5l-10,10h20l-0.001-0.001L99.498,79.5L89.499,69.5z
	 M49.499,89.5l10,10l10-10l-10-10L49.499,89.5z M44.501,84.496l4.999,4.998l10-9.998l-10-10l-9.999,10h0l-9.999,10l10,9.999
	l9.999-9.999L44.501,84.496z M19.5,99.5h20l-10-10L19.5,99.5z M19.5,79.5l-10,10l9.999,10l10-10L19.5,79.5z M9.5,69.5l-10,10
	l9.999,10l10-10L9.5,69.5z M39.499,59.5L39.499,59.5l10-9.999l-10-9.999l-9.999,9.999l0-0.001l-20,20l9.999,9.999L39.499,59.5z"/>
</svg>
