<?xml version="1.0" encoding="utf-8"?>
<!-- Generator: Adobe Illustrator 13.0.0, SVG Export Plug-In . SVG Version: 6.00 Build 14948)  -->
<!DOCTYPE svg PUBLIC "-//W3C//DTD SVG 1.1//EN" "http://www.w3.org/Graphics/SVG/1.1/DTD/svg11.dtd">
<svg version="1.1" id="Ebene_1" xmlns="http://www.w3.org/2000/svg" xmlns:xlink="http://www.w3.org/1999/xlink" x="0px" y="0px"
	 width="100px" height="100px" viewBox="0 0 100 100" enable-background="new 0 0 100 100" xml:space="preserve">
<path d="M-0.5,79.5l10-10l-10-10V79.5z M-0.5,19.5v20l10-10L-0.5,19.5z M19.5-0.5l10,10l10-10H19.5z M79.5-0.5h-20l10,10L79.5-0.5z
	 M59.5,9.501l-10-10l-10,10l10,10L59.5,9.501z M49.501,19.5l10,10l9.999-10l-9.999-10L49.501,19.5z M29.5,19.5l10,10L49.5,19.5
	l-10-10L29.5,19.5z M19.5,29.503l-9.999,9.999l0-0.001l-10,10L9.5,59.5l9.999,9.998l10-10L19.5,49.5l9.999-9.999L19.5,29.503z
	 M69.496,39.505l10.001,10l0.004-0.004L89.5,59.5l10.002-10.002l-10.002-10l-0.006,0.006l-10-9.999L69.496,39.505z M69.503,59.506
	l10,10l9.998-9.998l-9.999-10L69.503,59.506z M49.5,79.502l-10-10l-10,10l10,10L49.5,79.502z M39.5,89.505l10,9.999l9.999-9.998
	l-9.999-10L39.5,89.505z M49.5,79.507l10,9.999l9.998-9.998l-10-10L49.5,79.507z"/>
</svg>
