<?xml version="1.0" encoding="utf-8"?>
<!-- Generator: Adobe Illustrator 13.0.0, SVG Export Plug-In . SVG Version: 6.00 Build 14948)  -->
<!DOCTYPE svg PUBLIC "-//W3C//DTD SVG 1.1//EN" "http://www.w3.org/Graphics/SVG/1.1/DTD/svg11.dtd">
<svg version="1.1" id="Ebene_1" xmlns="http://www.w3.org/2000/svg" xmlns:xlink="http://www.w3.org/1999/xlink" x="0px" y="0px"
	 width="100px" height="100px" viewBox="0 0 100 100" enable-background="new 0 0 100 100" xml:space="preserve">
<path d="M19.499,49.5c0.008-16.571,13.43-29.993,30.001-30.001l0,0v10v10c-5.519,0.01-9.99,4.481-10,10l0,0
	c0.01,5.519,4.481,9.99,10,9.999l0,0c5.519-0.009,9.99-4.479,9.999-9.999l0,0c-0.009-5.519-4.479-9.99-9.999-10l0,0v-10v-10
	c16.572,0.008,29.993,13.43,30,30.001l0,0c-0.008,16.572-13.429,29.993-30,30l0,0C32.928,79.492,19.507,66.071,19.499,49.5
	L19.499,49.5z"/>
</svg>
