<?xml version="1.0" encoding="utf-8"?>
<!-- Generator: Adobe Illustrator 13.0.0, SVG Export Plug-In . SVG Version: 6.00 Build 14948)  -->
<!DOCTYPE svg PUBLIC "-//W3C//DTD SVG 1.1//EN" "http://www.w3.org/Graphics/SVG/1.1/DTD/svg11.dtd">
<svg version="1.1" id="Ebene_1" xmlns="http://www.w3.org/2000/svg" xmlns:xlink="http://www.w3.org/1999/xlink" x="0px" y="0px"
	 width="100px" height="100px" viewBox="0 0 100 100" enable-background="new 0 0 100 100" xml:space="preserve">
<path d="M79.498,89.538c0-0.013,0.002-0.025,0.002-0.038c0-5.523-4.477-10-10-10s-10,4.477-10,10h-0.001l0.002,10l9.979-0.001
	c0.007,0,0.013,0.001,0.02,0.001s0.013-0.001,0.02-0.001l9.981-0.001L79.498,89.538z M29.5,9.5c-5.523,0-10,4.477-10,10
	c0,0.01,0.001,0.019,0.001,0.029v79.966h20V19.497H39.5C39.498,13.976,35.022,9.5,29.5,9.5z"/>
</svg>
