<?xml version="1.0" encoding="utf-8"?>
<!-- Generator: Adobe Illustrator 13.0.0, SVG Export Plug-In . SVG Version: 6.00 Build 14948)  -->
<!DOCTYPE svg PUBLIC "-//W3C//DTD SVG 1.1//EN" "http://www.w3.org/Graphics/SVG/1.1/DTD/svg11.dtd">
<svg version="1.1" id="Ebene_1" xmlns="http://www.w3.org/2000/svg" xmlns:xlink="http://www.w3.org/1999/xlink" x="0px" y="0px"
	 width="100px" height="100px" viewBox="0 0 100 100" enable-background="new 0 0 100 100" xml:space="preserve">
<path d="M99.499,59.498l-10,0.002c-5.523,0.001-9.999,4.477-9.999,10s4.477,10,10,10c0.001,0,0.001,0,0.002,0h9.999L99.499,59.498z
	 M9.5,59.5L9.5,59.5L9.5,59.5l-10.001,0.001l0.002,20l9.979-0.002c0.007,0,0.013,0.001,0.02,0.001c5.523,0,10-4.477,10-10
	S15.023,59.5,9.5,59.5z M99.498,19.5H-0.5v20h100L99.498,19.5z"/>
</svg>
