<?xml version="1.0" encoding="utf-8"?>
<!-- Generator: Adobe Illustrator 13.0.0, SVG Export Plug-In . SVG Version: 6.00 Build 14948)  -->
<!DOCTYPE svg PUBLIC "-//W3C//DTD SVG 1.1//EN" "http://www.w3.org/Graphics/SVG/1.1/DTD/svg11.dtd">
<svg version="1.1" id="Ebene_1" xmlns="http://www.w3.org/2000/svg" xmlns:xlink="http://www.w3.org/1999/xlink" x="0px" y="0px"
	 width="100px" height="100px" viewBox="0 0 100 100" enable-background="new 0 0 100 100" xml:space="preserve">
<path d="M-0.5,29.5c0,0.005,0.001,0.01,0.001,0.015l0.001,9.987L9.49,39.5c0.003,0,0.006,0,0.01,0c5.523,0,10-4.477,10-10
	s-4.477-10-10-10v0L-0.5,19.501l0.001,9.984C-0.499,29.49-0.5,29.495-0.5,29.5z M69.5,19.5c-5.522,0-9.998,4.476-10,9.998h-0.003
	V99.5h20.001V29.539c0-0.013,0.002-0.025,0.002-0.039C79.5,23.977,75.023,19.5,69.5,19.5z M-0.5,59.499v19.999
	c11.04,0.021,19.979,8.96,20,20.002h20C39.493,77.403,21.595,59.505-0.5,59.499z"/>
</svg>
