<?xml version="1.0" encoding="utf-8"?>
<!-- Generator: Adobe Illustrator 13.0.0, SVG Export Plug-In . SVG Version: 6.00 Build 14948)  -->
<!DOCTYPE svg PUBLIC "-//W3C//DTD SVG 1.1//EN" "http://www.w3.org/Graphics/SVG/1.1/DTD/svg11.dtd">
<svg version="1.1" id="Ebene_1" xmlns="http://www.w3.org/2000/svg" xmlns:xlink="http://www.w3.org/1999/xlink" x="0px" y="0px"
	 width="100px" height="100px" viewBox="0 0 100 100" enable-background="new 0 0 100 100" xml:space="preserve">
<path d="M99.499,69.48l-0.001-9.981h-10V59.5c-5.522,0.001-9.998,4.478-9.998,10c0,5.523,4.477,10,10,10
	c0.013,0,0.025-0.002,0.039-0.002H99.5l-0.001-9.979c0-0.007,0.001-0.013,0.001-0.02S99.499,69.487,99.499,69.48z M19.502,69.461
	c0,0.014-0.002,0.026-0.002,0.039c0,5.523,4.477,10,10,10c5.522,0,9.999-4.476,10-9.998h0.001V-0.499H19.502V69.461z M79.498-0.5
	H59.499c0.006,22.095,17.904,39.993,40.001,40v-20C88.458,19.479,79.52,10.54,79.498-0.5z"/>
</svg>
