<?xml version="1.0" encoding="utf-8"?>
<!-- Generator: Adobe Illustrator 13.0.0, SVG Export Plug-In . SVG Version: 6.00 Build 14948)  -->
<!DOCTYPE svg PUBLIC "-//W3C//DTD SVG 1.1//EN" "http://www.w3.org/Graphics/SVG/1.1/DTD/svg11.dtd">
<svg version="1.1" id="Ebene_1" xmlns="http://www.w3.org/2000/svg" xmlns:xlink="http://www.w3.org/1999/xlink" x="0px" y="0px"
	 width="100px" height="100px" viewBox="0 0 100 100" enable-background="new 0 0 100 100" xml:space="preserve">
<path d="M79.498-0.502l-20,0.002l0.002,10c0,5.522,4.477,10,10,10s10-4.477,10-10c0,0,0-0.001,0-0.001L79.498-0.502z M69.502,59.5
	v-0.002H-0.5v20h69.961c0.014,0,0.026,0.002,0.039,0.002c5.523,0,10-4.477,10-10C79.5,63.978,75.024,59.501,69.502,59.5z M39.5-0.5
	h-20c-0.021,11.04-8.96,19.979-20,20v20C21.594,39.493,39.493,21.594,39.5-0.5z"/>
</svg>
