<?xml version="1.0" encoding="utf-8"?>
<!-- Generator: Adobe Illustrator 13.0.0, SVG Export Plug-In . SVG Version: 6.00 Build 14948)  -->
<!DOCTYPE svg PUBLIC "-//W3C//DTD SVG 1.1//EN" "http://www.w3.org/Graphics/SVG/1.1/DTD/svg11.dtd">
<svg version="1.1" id="Ebene_1" xmlns="http://www.w3.org/2000/svg" xmlns:xlink="http://www.w3.org/1999/xlink" x="0px" y="0px"
	 width="100px" height="100px" viewBox="0 0 100 100" enable-background="new 0 0 100 100" xml:space="preserve">
<path d="M59.499,99.5h19.999c0.021-11.042,8.96-19.98,20.002-20.002V59.499C77.403,59.505,59.505,77.403,59.499,99.5z M-0.5,59.499
	v19.999c11.04,0.021,19.979,8.96,20,20.002h20C39.493,77.403,21.595,59.505-0.5,59.499z M-0.5,19.5v20
	c22.094-0.006,39.994-17.906,40-40h-20C19.479,10.54,10.54,19.479-0.5,19.5z M79.498-0.5H59.499
	c0.006,22.095,17.904,39.993,40.001,40v-20C88.458,19.479,79.52,10.54,79.498-0.5z"/>
</svg>
