<?xml version="1.0" encoding="utf-8"?>
<!-- Generator: Adobe Illustrator 13.0.0, SVG Export Plug-In . SVG Version: 6.00 Build 14948)  -->
<!DOCTYPE svg PUBLIC "-//W3C//DTD SVG 1.1//EN" "http://www.w3.org/Graphics/SVG/1.1/DTD/svg11.dtd">
<svg version="1.1" id="Ebene_1" xmlns="http://www.w3.org/2000/svg" xmlns:xlink="http://www.w3.org/1999/xlink" x="0px" y="0px"
	 width="100px" height="100px" viewBox="0 0 100 100" enable-background="new 0 0 100 100" xml:space="preserve">
<path d="M89.5,49.502l-9.998,10L79.5,59.5l-20,20l10,10l19.999-19.999l0.001,0.001l0.001-0.001L99.5,79.5v-20l-0.001,0.001
	L89.5,49.502z M69.5,69.498l-10-10L59.498,59.5L49.5,49.503l-10,9.999l9.999,10l0.002-0.002l9.998,9.998L69.5,69.498z M89.5,29.5
	L89.5,29.5l-10,9.999v0l-10,9.999l10,10l10-9.999l9.999-9.999L99.5,39.5v-20L89.5,29.5z M69.5,9.5l-10,10v0l-10,10l9.999,9.999
	l9.999-10L69.5,29.5v0l10,9.999l9.999-10L69.5,9.5z M49.5,29.501l-10,10l9.999,9.998l9.999-10L49.5,29.501z M39.5,39.502l-10,10
	l10,10l10-10L39.5,39.502z"/>
</svg>
