<?xml version="1.0" encoding="utf-8"?>
<!-- Generator: Adobe Illustrator 13.0.0, SVG Export Plug-In . SVG Version: 6.00 Build 14948)  -->
<!DOCTYPE svg PUBLIC "-//W3C//DTD SVG 1.1//EN" "http://www.w3.org/Graphics/SVG/1.1/DTD/svg11.dtd">
<svg version="1.1" id="Ebene_1" xmlns="http://www.w3.org/2000/svg" xmlns:xlink="http://www.w3.org/1999/xlink" x="0px" y="0px"
	 width="100px" height="100px" viewBox="0 0 100 100" enable-background="new 0 0 100 100" xml:space="preserve">
<path d="M39.499,79.504l0.002-0.002l-10-10L19.502,79.5l9.994,9.994l-0.003,0.004l0.004,0.004L19.5,99.499h20l-0.005-0.005
	l9.997-9.998L39.499,79.504z M19.499,59.5L9.5,69.5l10,10l9.999-10L19.499,59.5z M39.497,59.499l-10-10l-9.999,9.999l10,10
	L39.497,59.499z M49.499,49.5l9.997,9.998l9.999-9.999l-9.997-9.997l0.003-0.003l-10-9.999L39.502,39.5l9.998,9.998L49.499,49.5
	l-10-10l-10,10l10,10L49.499,49.5z M49.5,69.5l-10,10l9.998,9.998l10-10L49.5,69.5z M89.5,69.5l-10-10l-30,30l10,10l0.001-0.001
	H79.5l-10-9.999L89.5,69.5z M69.495,69.5l9.999-10l-9.998-10l-10,10L69.495,69.5z"/>
</svg>
