<?xml version="1.0" encoding="utf-8"?>
<!-- Generator: Adobe Illustrator 13.0.0, SVG Export Plug-In . SVG Version: 6.00 Build 14948)  -->
<!DOCTYPE svg PUBLIC "-//W3C//DTD SVG 1.1//EN" "http://www.w3.org/Graphics/SVG/1.1/DTD/svg11.dtd">
<svg version="1.1" id="Ebene_1" xmlns="http://www.w3.org/2000/svg" xmlns:xlink="http://www.w3.org/1999/xlink" x="0px" y="0px"
	 width="100px" height="100px" viewBox="0 0 100 100" enable-background="new 0 0 100 100" xml:space="preserve">
<path d="M-0.5,19.501v20l10-10L-0.5,19.501z M9.5,49.501l10-10l10-10l-10-10l-10,10l-10,10L9.5,49.501z M39.5,19.5l-10-10l-10,10
	l10,10L39.5,19.5z M39.501,39.501L39.501,39.501L49.5,49.5l10-10l-9.999-9.999l-10-10l-10,10L39.501,39.501z M9.501,49.5l10,10
	l10-9.999l-10-10L9.501,49.5z M9.5,69.502l9.999-9.999L9.5,49.504l-9.999,9.998L-0.5,59.501v20L9.5,69.502L9.5,69.502z
	 M19.497,59.507l-9.998,9.999l9.998,9.998l9.999-9.998L19.497,59.507z M19.502,79.5l9.999,10l10-10l-10-9.998L19.502,79.5z
	 M59.5,39.503l-9.997,9.998L49.502,49.5l-9.997,9.997l-0.001-0.001l-9.999,9.998l9.999,9.999l9.996-9.996l0.001,0.001l9.998-9.998
	l0.002,0.002l10-9.999L59.5,39.503z"/>
</svg>
