<?xml version="1.0" encoding="utf-8"?>
<!-- Generator: Adobe Illustrator 13.0.0, SVG Export Plug-In . SVG Version: 6.00 Build 14948)  -->
<!DOCTYPE svg PUBLIC "-//W3C//DTD SVG 1.1//EN" "http://www.w3.org/Graphics/SVG/1.1/DTD/svg11.dtd">
<svg version="1.1" id="Ebene_1" xmlns="http://www.w3.org/2000/svg" xmlns:xlink="http://www.w3.org/1999/xlink" x="0px" y="0px"
	 width="100px" height="100px" viewBox="0 0 100 100" enable-background="new 0 0 100 100" xml:space="preserve">
<path d="M89.5,49.5l-10,10l9.998,9.997l9.999-9.999L89.5,49.5z M69.5,69.506l10,9.998l9.998-9.998l-9.998-10L69.5,69.506z
	 M59.5,79.505l9.999,9.999l9.999-9.999l-9.999-9.999L59.5,79.505z M69.498,69.505l-9.999-10L49.5,69.504l10,10L69.498,69.505z
	 M39.5,59.5l-10,10l10,10l10-10L39.5,59.5z M19.5,59.5l-10,10l10,10l10,10l10-10l-10-10L19.5,59.5z M69.502,49.498l9.998,9.999
	l9.999-9.998l0.001,0.001l9.999-9.999l-10-10L79.5,39.499v0L69.502,49.498z M39.5,39.499L39.5,39.499l9.999,9.998h0l-10,10l10,10
	l9.999-10l-10-10l9.999-9.999l0.001,0.001l10-9.999v0l0.001-0.001l9.997,9.998l10-10L79.5,19.497l-0.001,0.001L69.5,9.5
	L49.501,29.499L49.5,29.498l-0.001,0.001l-10-9.999L29.5,29.499L39.5,39.499z M39.499,19.5l-10-10L19.5,19.499l10,10L39.499,19.5z
	 M9.498,49.501l-9.997,9.998l10,9.999l10-9.999l-10-10l0.001-0.001l9.999,9.999l9.999-9.999L19.5,39.5l9.998-9.998l-10-10l-10,10
	l9.999,9.999h0l-9.999-9.999l-10,10L9.498,49.501z M99.501,79.5v-20l-10,10L99.501,79.5z M-0.5,79.5l10-10l-10-10V79.5z
	 M89.501,29.5l10,10v-20L89.501,29.5z M-0.5,19.5v20l9.998-9.998L9.5,29.5L-0.5,19.5z"/>
</svg>
