<?xml version="1.0" encoding="utf-8"?>
<!-- Generator: Adobe Illustrator 13.0.0, SVG Export Plug-In . SVG Version: 6.00 Build 14948)  -->
<!DOCTYPE svg PUBLIC "-//W3C//DTD SVG 1.1//EN" "http://www.w3.org/Graphics/SVG/1.1/DTD/svg11.dtd">
<svg version="1.1" id="Ebene_1" xmlns="http://www.w3.org/2000/svg" xmlns:xlink="http://www.w3.org/1999/xlink" x="0px" y="0px"
	 width="100px" height="100px" viewBox="0 0 100 100" enable-background="new 0 0 100 100" xml:space="preserve">
<path d="M89.5,29.5l-20-20l-9.999,9.998L69.498,9.5l-10-10l-9.999,10l0,0l-9.998,9.998l10,10l10-9.999l9.999,10l10,10L89.5,29.5z
	 M59.5-0.5l10,10l10-10H59.5z M69.5,49.499l10-10l-10-10l-10,10L69.5,49.499z M29.499,9.5l10,10L49.498,9.5l-9.999-9.999L39.5-0.5
	h-20L29.499,9.5L29.499,9.5z M39.499,19.5l-10-10l-10,10v0l-10,10l10,10l10-10L39.499,19.5z M29.501,29.5l-10,10l10,10l10-10
	L29.501,29.5z M39.501,39.5l-10,10l10,10h0l9.999,9.998l10-9.999l10-10l-10-10l-9.999,10L39.501,39.5z"/>
</svg>
