<?xml version="1.0" encoding="utf-8"?>
<!-- Generator: Adobe Illustrator 13.0.0, SVG Export Plug-In . SVG Version: 6.00 Build 14948)  -->
<!DOCTYPE svg PUBLIC "-//W3C//DTD SVG 1.1//EN" "http://www.w3.org/Graphics/SVG/1.1/DTD/svg11.dtd">
<svg version="1.1" id="Ebene_1" xmlns="http://www.w3.org/2000/svg" xmlns:xlink="http://www.w3.org/1999/xlink" x="0px" y="0px"
	 width="100px" height="100px" viewBox="0 0 100 100" enable-background="new 0 0 100 100" xml:space="preserve">
<path d="M39.499,79.504l0.002-0.002l-10-10L19.502,79.5l9.994,9.994l-0.003,0.004l0.004,0.004L19.5,99.499h20l-0.005-0.005
	l9.997-9.998L39.499,79.504z M19.499,59.5L9.5,69.5l10,10l9.999-10L19.499,59.5z M29.498,69.498l9.999-9.999l-10-10l-9.999,9.999
	L29.498,69.498z M49.499,49.5l9.997,9.998l9.999-9.999l-9.999-9.998L49.499,49.5l-10-10l-10,10l10,10L49.499,49.5z M29.5,49.499
	l10-10L29.501,29.5l-10,10L29.5,49.499z M29.499,29.499L19.5,19.5l-10,10l10,9.999L29.499,29.499z M19.501,19.499l9.999,9.999l10-10
	L29.5,9.5L19.501,19.499z M39.5,19.498l10-10L39.501-0.5l-10,10L39.5,19.498z M49.5,29.499l9.999-9.999l-10-10L39.5,19.499l0,0
	L49.5,29.499z M49.5,69.5l-10,10l9.998,9.998l10-10L49.5,69.5z M79.5,59.5l-30,30l10,10l0.001-0.001H79.5l-10-9.999l20-20L79.5,59.5
	z M79.494,59.5l-9.998-10l-10,10l9.999,10L79.494,59.5z M69.502,29.5l-10,10l10,10l10-10L69.502,29.5z M89.502,29.5l-10-10l-10,10
	l10,10L89.502,29.5z M59.502,19.499l10,10l10-10l-10-10L59.502,19.499z M69.5,9.499l10-10h-20l-10,10l10,10L69.5,9.499z M39.5-0.501
	h-20l10,10L39.5-0.501z"/>
</svg>
