<?xml version="1.0" encoding="utf-8"?>
<!-- Generator: Adobe Illustrator 13.0.0, SVG Export Plug-In . SVG Version: 6.00 Build 14948)  -->
<!DOCTYPE svg PUBLIC "-//W3C//DTD SVG 1.1//EN" "http://www.w3.org/Graphics/SVG/1.1/DTD/svg11.dtd">
<svg version="1.1" id="Ebene_1" xmlns="http://www.w3.org/2000/svg" xmlns:xlink="http://www.w3.org/1999/xlink" x="0px" y="0px"
	 width="100px" height="100px" viewBox="0 0 100 100" enable-background="new 0 0 100 100" xml:space="preserve">
<path d="M39.5-0.499h-20v20h20V-0.499z M79.5,19.5v-20h-20v20h19.998v0H59.499l20,20V39.5H99.5v-20H79.5z M79.498,59.502
	L59.502,79.498h-0.003V99.5h19.999v-20H79.5v-0.002h20V59.499H79.498V59.502z M49.5,39.5l-10,10l10,10l10-10L49.5,39.5z
	 M39.498,79.498L19.5,59.5h-20v20h20v20h20v-20v-0.002H39.498z M19.499,39.501L19.499,39.501l0.001,0V39.5l19.999-19.999H19.5v0h-20
	v20L19.499,39.501L19.499,39.501z"/>
</svg>
