<?xml version="1.0" encoding="utf-8"?>
<!-- Generator: Adobe Illustrator 13.0.0, SVG Export Plug-In . SVG Version: 6.00 Build 14948)  -->
<!DOCTYPE svg PUBLIC "-//W3C//DTD SVG 1.1//EN" "http://www.w3.org/Graphics/SVG/1.1/DTD/svg11.dtd">
<svg version="1.1" id="Ebene_1" xmlns="http://www.w3.org/2000/svg" xmlns:xlink="http://www.w3.org/1999/xlink" x="0px" y="0px"
	 width="100px" height="100px" viewBox="0 0 100 100" enable-background="new 0 0 100 100" xml:space="preserve">
<path d="M59.5,29.5l-10-10L39.501,29.5l10,10L59.5,29.5z M59.5,9.501l-10-10l-10,10l10,10L59.5,9.501z M49.5,49.503l9.999,9.998
	l9.999-10L59.5,39.503L49.5,49.503z M69.5,49.5l-10,10l10,10l10-10L69.5,49.5z M19.502,79.498l10,10l10-10l10-10l-10-9.999
	l9.999-9.999l-10-10l-20,20l10,10L19.502,79.498z M69.5,69.5l-0.004,0.004L59.5,59.506l-10,9.999l9.998,9.997L49.501,89.5l9.999,10
	h20l-10-10l10-10L69.5,69.5z M29.501,89.5l10,10l10-10l-10-10L29.501,89.5z M19.5,99.5h20l-10-10L19.5,99.5z"/>
</svg>
