<?xml version="1.0" encoding="utf-8"?>
<!-- Generator: Adobe Illustrator 13.0.0, SVG Export Plug-In . SVG Version: 6.00 Build 14948)  -->
<!DOCTYPE svg PUBLIC "-//W3C//DTD SVG 1.1//EN" "http://www.w3.org/Graphics/SVG/1.1/DTD/svg11.dtd">
<svg version="1.1" id="Ebene_1" xmlns="http://www.w3.org/2000/svg" xmlns:xlink="http://www.w3.org/1999/xlink" x="0px" y="0px"
	 width="100px" height="100px" viewBox="0 0 100 100" enable-background="new 0 0 100 100" xml:space="preserve">
<path d="M39.498,99.5l0.002,0.002l10-10l-10-10l-9.999,9.999L29.5,89.5l-10,10H39.498z M29.5,69.5l-10,10l10,10l10-10L29.5,69.5z
	 M29.5,29.5l-10,10l10,10l10-10l10-10l-10-10L29.5,29.5z M49.501,39.502l-10,10l9.999,10l10-10L49.501,39.502z M39.5,59.5L39.5,59.5
	l-10-10l-10,10l10,10l10,10l10-10L39.5,59.5z M59.5,99.5h20l-10-10L59.5,99.5z M69.501,89.498l-10-10l-10,10l10,9.999L69.501,89.498
	z M59.506,69.498l9.995,9.996l9.999-9.998l-10-10L69.496,59.5l-9.995-9.995l-10,9.999l9.999,10L59.506,69.498z M69.503,79.5
	l9.999,10l9.999-10l-9.999-9.998L69.503,79.5z M89.5,49.502l-9.999,10l9.999,10l0.001-0.001L99.5,79.5v-20l-0.001,0.001L89.5,49.502
	z M89.5,29.5l-10-10l-9.999,9.999l-0.003-0.002l-0.001,0L59.5,19.5l-10,10l10,10l0.002-0.002l9.997,9.998l9.998-9.999L79.5,39.5v0
	l10,9.999l9.999-9.999L99.5,39.5v-20L89.5,29.5z"/>
</svg>
