<?xml version="1.0" encoding="utf-8"?>
<!-- Generator: Adobe Illustrator 13.0.0, SVG Export Plug-In . SVG Version: 6.00 Build 14948)  -->
<!DOCTYPE svg PUBLIC "-//W3C//DTD SVG 1.1//EN" "http://www.w3.org/Graphics/SVG/1.1/DTD/svg11.dtd">
<svg version="1.1" id="Ebene_1" xmlns="http://www.w3.org/2000/svg" xmlns:xlink="http://www.w3.org/1999/xlink" x="0px" y="0px"
	 width="100px" height="100px" viewBox="0 0 100 100" enable-background="new 0 0 100 100" xml:space="preserve">
<path d="M49.502,49.5l9.999-10l-9.999-9.999l-10,9.999L49.502,49.5z M59.494,49.5l10,10l9.999-10l-9.999-9.999L59.494,49.5z
	 M89.495,39.502l-10,10l9.999,10l10-10L89.495,39.502z M39.504,59.5l10,10l9.999-9.998l-10-10L39.504,59.5z M29.5,69.5l10,10l10-10
	l-10-10L29.5,69.5z M29.5,49.5l10-10l0.001,0.001l10-10l-9.999-9.999l-10,10L29.501,29.5l-10,10L29.5,49.5z M29.5,49.501
	L19.501,59.5l9.999,10l9.999-10L29.5,49.501z M19.499,59.502l-10-10L-0.499,59.5l9.999,10l10,10l10-10l-10-10L19.499,59.502z
	 M19.5,39.5l-5-5L19.5,39.5l10-10L19.5,19.5l-10,10l0,0l-10-10v20l10,10L19.5,39.5z M-0.5,79.5l10-10l-10-10V79.5z"/>
</svg>
