<?xml version="1.0" encoding="utf-8"?>
<!-- Generator: Adobe Illustrator 13.0.0, SVG Export Plug-In . SVG Version: 6.00 Build 14948)  -->
<!DOCTYPE svg PUBLIC "-//W3C//DTD SVG 1.1//EN" "http://www.w3.org/Graphics/SVG/1.1/DTD/svg11.dtd">
<svg version="1.1" id="Ebene_1" xmlns="http://www.w3.org/2000/svg" xmlns:xlink="http://www.w3.org/1999/xlink" x="0px" y="0px"
	 width="100px" height="100px" viewBox="0 0 100 100" enable-background="new 0 0 100 100" xml:space="preserve">
<path d="M-0.5,79.5l10-10l-10-10V79.5z M29.496,49.498l-9.999,10l-9.999-9.999l-9.999,9.999l10,10l9.999-9.999l9.998,9.998l10-9.999
	L29.496,49.498z M9.5,49.499l10-10l-10-10l0,0l-10-10v20l0.001-0.001L9.5,49.499z M29.5,49.499l10-10L39.5,39.5l0,0l10,10l10-10
	l10,9.999l10-10l-10-10v0l-10-10l-10,10l-10-10l-10,10l-10,10L29.5,49.499z M59.496,59.499l-10-10l-9.999,10l0.003,0.003
	L29.502,69.5l10,10l9.999-9.999l-0.004-0.004L59.496,59.499z M79.501,59.498L69.502,49.5l-10,10l0.003,0.003l-10,9.998l9.999,10
	l10-10l-0.002-0.002l9.999-9.998l9.999,9.999l10-10l-10-10L79.501,59.498z M99.502,39.498L99.5,39.496V19.5l-10,10l-9.998,9.998
	l10,10L99.502,39.498z M99.5,79.5v-20l-10,10L99.5,79.5z"/>
</svg>
