<?xml version="1.0" encoding="utf-8"?>
<!-- Generator: Adobe Illustrator 13.0.0, SVG Export Plug-In . SVG Version: 6.00 Build 14948)  -->
<!DOCTYPE svg PUBLIC "-//W3C//DTD SVG 1.1//EN" "http://www.w3.org/Graphics/SVG/1.1/DTD/svg11.dtd">
<svg version="1.1" id="Ebene_1" xmlns="http://www.w3.org/2000/svg" xmlns:xlink="http://www.w3.org/1999/xlink" x="0px" y="0px"
	 width="100px" height="100px" viewBox="0 0 100 100" enable-background="new 0 0 100 100" xml:space="preserve">
<path d="M19.5,39.499l-5-5L19.5,39.499l10-10L19.5,19.5l-10,10l0,0l-10-10v20l10,10L19.5,39.499z M69.5,89.499l10-10l-10-10l-10,10
	L69.5,89.499z M69.494,69.498L59.496,59.5l-10,9.999l10,9.999L69.494,69.498z M69.5,49.499l-10,10l10,10l10-10L69.5,49.499z
	 M69.502,29.5L69.502,29.5l-10-10l-10,9.999l9.999,9.999L59.5,39.499l10,10l10-10L69.502,29.5z M59.5,49.5l-10-10l-10,10l10,10
	L59.5,49.5z M29.5,49.499l10-10l0.001,0.001l10-10l-9.999-9.999l-10,10L29.501,29.5l-10,10L29.5,49.499z M-0.5,79.499l10-10l-10-10
	V79.499z M9.501,49.502l-9.999,9.999L9.501,69.5l9.999-9.999L9.501,49.502z M39.5,49.5l-9.999,10l9.999,9.998l9.999-9.998L39.5,49.5
	z M19.502,69.5l10,10l10-9.998l-10-10L19.502,69.5z M29.504,79.504l-9.999-10l-9.999,10l9.999,9.999L29.504,79.504z M39.493,79.498
	l-10,10l0.004,0.004L19.5,99.499h20l-0.005-0.005l9.997-9.998L39.493,79.498z M59.5,79.5l-10,10l10,10l0.001-0.001H79.5l-10-10V89.5
	L59.5,79.5z"/>
</svg>
