<?xml version="1.0" encoding="utf-8"?>
<!-- Generator: Adobe Illustrator 13.0.0, SVG Export Plug-In . SVG Version: 6.00 Build 14948)  -->
<!DOCTYPE svg PUBLIC "-//W3C//DTD SVG 1.1//EN" "http://www.w3.org/Graphics/SVG/1.1/DTD/svg11.dtd">
<svg version="1.1" id="Ebene_1" xmlns="http://www.w3.org/2000/svg" xmlns:xlink="http://www.w3.org/1999/xlink" x="0px" y="0px"
	 width="100px" height="100px" viewBox="0 0 100 100" enable-background="new 0 0 100 100" xml:space="preserve">
<path d="M59.5,99.5h20l-10-10L59.5,99.5z M59.501,99.497l10-9.999l-10-10l-10,10L59.501,99.497z M69.501,79.494l9.999-9.998l-10-10
	L69.496,59.5l-9.995-9.995l-10,9.999l9.999,10l0.006-0.006L69.501,79.494z M69.503,79.5l9.999,10l9.999-10l-9.999-9.998L69.503,79.5
	z M89.5,49.502l-9.999,10l9.999,10l0.001-0.001L99.5,79.5v-20l-0.001,0.001L89.5,49.502z M89.5,29.5l-10-10l-9.999,9.999
	l-0.003-0.002l-0.001,0L59.5,19.5l-10,10l10,10l0.002-0.002l9.997,9.998l9.998-9.999L79.5,39.5v0l10,9.999l9.999-9.999L99.5,39.5
	v-20L89.5,29.5z M9.5,29.5l-10-10v20l0,0l10,10l9.999-10l10,10l10-10l-10-9.999L29.5,29.5l-10-10L9.5,29.5z M29.5,29.5l10,10l10-10
	l-10-10L29.5,29.5z M29.504,89.504L29.5,89.5l-10,10h19.994l0.006,0.006l10-10.002l-10-9.998L29.504,89.504z M29.499,79.498
	l9.999-9.999l-0.002-0.003l9.999-9.998l-9.999-10l-9.999,10l0.002,0.002l-9.999,9.998L29.499,79.498z M19.496,69.498l-9.999,10
	l9.999,9.998l9.999-9.998L19.496,69.498z M19.498,59.497l-10-10l-10,10l10,10L19.498,59.497z M-0.5,59.5v20l10-10L-0.5,59.5z"/>
</svg>
