<?xml version="1.0" encoding="utf-8"?>
<!-- Generator: Adobe Illustrator 13.0.0, SVG Export Plug-In . SVG Version: 6.00 Build 14948)  -->
<!DOCTYPE svg PUBLIC "-//W3C//DTD SVG 1.1//EN" "http://www.w3.org/Graphics/SVG/1.1/DTD/svg11.dtd">
<svg version="1.1" id="Ebene_1" xmlns="http://www.w3.org/2000/svg" xmlns:xlink="http://www.w3.org/1999/xlink" x="0px" y="0px"
	 width="100px" height="100px" viewBox="0 0 100 100" enable-background="new 0 0 100 100" xml:space="preserve">
<path d="M49.5,49.505l10,9.999l10-10l-10-9.999L49.5,49.505z M39.5,69.498l9.999,9.999l9.999-10L49.5,59.498L39.5,69.498z
	 M39.498,89.502l10,10l10-10l-10-10L39.498,89.502z M59.501,39.501l9.998,9.999l10-10L69.5,29.501L59.501,39.501z M49.5,49.5l-10-10
	l-9.999,9.999l10,10L49.5,49.5z M29.5,29.498l-10,10l10,10l10-10L29.5,29.498z M69.5,29.499l-10-9.999l-10,10l10,10L69.5,29.499z
	 M49.499,29.497L39.5,19.498l10-10l-10-10h-20l10,10l-10,10l10,10l9.999,9.998L49.499,29.497z M59.501-0.499L49.502,9.5l10,10
	l0.001-0.001l9.995,9.996l10-10l-9.997-9.999L79.5-0.502h-20l9.999,9.999l-0.001,0.001L59.501-0.499z"/>
</svg>
