<?xml version="1.0" encoding="utf-8"?>
<!-- Generator: Adobe Illustrator 13.0.0, SVG Export Plug-In . SVG Version: 6.00 Build 14948)  -->
<!DOCTYPE svg PUBLIC "-//W3C//DTD SVG 1.1//EN" "http://www.w3.org/Graphics/SVG/1.1/DTD/svg11.dtd">
<svg version="1.1" id="Ebene_1" xmlns="http://www.w3.org/2000/svg" xmlns:xlink="http://www.w3.org/1999/xlink" x="0px" y="0px"
	 width="100px" height="100px" viewBox="0 0 100 100" enable-background="new 0 0 100 100" xml:space="preserve">
<path d="M99.5,79.5v-20l-10,10L99.5,79.5z M79.501,59.498L69.502,49.5l-10,10l0.003,0.003l-10,9.998l9.999,10l9.998-9.998
	l9.998,9.997l20-20l-10-10L79.501,59.498z M39.5,39.498l10-10L39.5,19.499l10-10L39.5-0.5l-10,10l9.999,9.999l0,0L29.5,9.5l-10,10
	l10,10l0.001-0.001L39.5,39.498z M29.5,29.5l-10,10l10,10l10-10L29.5,29.5z M29.5,49.5l-10,10l10,10l10-10L29.5,49.5z M29.501,69.5
	l10,10l9.999-10l-10-10L29.501,69.5z M39.499,49.498l10,10l10-9.999l-10-10L39.499,49.498z M89.5,29.5l10,10v-20L89.5,29.5z
	 M99.497,39.5l-10-10l-9.999,10l9.999,10L99.497,39.5z M59.5,49.499l10-10l-10-10l-10,10L59.5,49.499z M79.5,29.5l-10-10l-10,10
	l10,10L79.5,29.5z M79.502,29.498l10-10l-10-10l-10,10L79.502,29.498z M59.498,19.5l10-10l-10-10l-9.999,10L59.498,19.5z M19.5-0.5
	l10,10l10-10H19.5z M79.5-0.5h-20l10,10L79.5-0.5z"/>
</svg>
