<?xml version="1.0" encoding="utf-8"?>
<!-- Generator: Adobe Illustrator 13.0.0, SVG Export Plug-In . SVG Version: 6.00 Build 14948)  -->
<!DOCTYPE svg PUBLIC "-//W3C//DTD SVG 1.1//EN" "http://www.w3.org/Graphics/SVG/1.1/DTD/svg11.dtd">
<svg version="1.1" id="Ebene_1" xmlns="http://www.w3.org/2000/svg" xmlns:xlink="http://www.w3.org/1999/xlink" x="0px" y="0px"
	 width="100px" height="100px" viewBox="0 0 100 100" enable-background="new 0 0 100 100" xml:space="preserve">
<path d="M29.501,9.499l10,10L49.5,9.5l-10-10l0,0h-20L29.501,9.499L29.501,9.499z M29.502,29.498L29.502,29.498l-10,9.999
	l9.999,9.999l9.999-9.999l0.001,0.001l10-10l-10-10L29.502,29.498z M69.499,9.499L69.499,9.499L79.5-0.5H59.502L59.5-0.501l-10,10
	l10,10L69.499,9.499z M69.5,29.5L69.5,29.5l-9.999-10l-10,10l10,10L59.5,39.5l10,10l10-10L69.5,29.5z M39.501,39.5l-20,20l10,10
	l10-10l10-10L39.501,39.5z M49.501,49.5l9.999,10l-9.999,9.998l10,10L79.5,59.5l-10-10l-10-10L49.501,49.5z M39.502,79.498
	l9.999-9.998l-10-10l-10,10l9.999,10l-9.998,9.998l10,10l10-10L39.502,79.498z M69.501,89.5l-10-10l-10,10l9.999,10h20L69.501,89.5
	L69.501,89.5z M19.5,99.5h20l-10-10L19.5,99.5z"/>
</svg>
