<?xml version="1.0" encoding="utf-8"?>
<!-- Generator: Adobe Illustrator 13.0.0, SVG Export Plug-In . SVG Version: 6.00 Build 14948)  -->
<!DOCTYPE svg PUBLIC "-//W3C//DTD SVG 1.1//EN" "http://www.w3.org/Graphics/SVG/1.1/DTD/svg11.dtd">
<svg version="1.1" id="Ebene_1" xmlns="http://www.w3.org/2000/svg" xmlns:xlink="http://www.w3.org/1999/xlink" x="0px" y="0px"
	 width="100px" height="100px" viewBox="0 0 100 100" enable-background="new 0 0 100 100" xml:space="preserve">
<path d="M38.998,39.498l10-10L39,19.5l0,0l-10-10l-10,10l9.999,9.999v0l0.001,0l-10,10l10,10l10-10L38.998,39.498z M89,29.5L89,29.5
	l-10,10l10,10l10-10v-20L89,29.5z M59,49.499l10-10l-10-10l-10,10L59,49.499z M69,39.499l10-10l-10-10l-10,10L69,39.499z M89,19.5
	l-10-10l-10,10l10,10L89,19.5z M39.001,19.499l9.998-9.998l9.999,9.999l10-10l-10-10L49,9.499L39.001-0.5L29.002,9.5L39.001,19.499z
	 M19-0.5l10,10l10-10H19z M79-0.5H59l10,10L79-0.5z M88.999,49.503L79,59.502l9.998,10L89,69.5l10,10v-20l-0.002,0.002
	L88.999,49.503z M68.996,59.494l-9.997-9.996l-10,10l10,10l0.005-0.004L69,79.49l9.998-9.999l-10-9.999L68.996,59.494z M68.999,79.5
	l9.999,10l10-10l-9.999-10L68.999,79.5z M58.999,79.5l-10,10l10,10l10-10L58.999,79.5z M39,99.498l10-10l-9.999-9.999l9.998-9.999
	L39,59.5l-10-10l-10,10l10,10l-10,10l10,10l0.001-0.001L39,99.498z M39,99.5l-10-10l-10,10H39z M59,99.5h20l-10-10L59,99.5z"/>
</svg>
