<?xml version="1.0" encoding="utf-8"?>
<!-- Generator: Adobe Illustrator 13.0.0, SVG Export Plug-In . SVG Version: 6.00 Build 14948)  -->
<!DOCTYPE svg PUBLIC "-//W3C//DTD SVG 1.1//EN" "http://www.w3.org/Graphics/SVG/1.1/DTD/svg11.dtd">
<svg version="1.1" id="Ebene_1" xmlns="http://www.w3.org/2000/svg" xmlns:xlink="http://www.w3.org/1999/xlink" x="0px" y="0px"
	 width="100px" height="100px" viewBox="0 0 100 100" enable-background="new 0 0 100 100" xml:space="preserve">
<path d="M79.5-0.5h-20l10,10L79.5-0.5z M69.499,9.501l-9.998-9.998l-9.999,9.999l10,10v0L69.5,29.5l10-10L69.499,9.501L69.499,9.501
	z M69.499,29.503L59.5,19.504l-9.999,9.999l10,10l0.001,0L69.5,49.5l9.999-10L69.5,29.501L69.499,29.503z M9.5,69.5l10,10l10-10
	l-10-10L9.5,69.5z M29.5,69.499l10-10L29.5,49.5l-10,10L29.5,69.499z M29.5,69.5l10,10l10-10l-10-10L29.5,69.5z M59.502,59.502
	L59.5,59.5l-10,10l10,10l9.998-9.998l10-9.999L69.5,49.504L59.502,59.502z M39.5-0.5h-20l10,10L39.5-0.5z M39.501,19.501l10-10
	l-10-10l-10,10L39.501,19.501z M39.5,49.499l10,9.999l10-10L49.5,39.5l-0.001,0l-10-10l0,0l-10-10l-10,10l10,10l0,0L39.5,49.499
	L39.5,49.499z M29.5,19.501l-10-10l-10,10l10,10L29.5,19.501z M9.5,49.5l10-9.999l-10-10l-10,10L9.5,49.5l-10,10v20l10-10l10-10
	L9.5,49.5z M-0.5,19.5v20l9.999-9.999L9.5,29.5L-0.5,19.5z"/>
</svg>
