<?xml version="1.0" encoding="utf-8"?>
<!-- Generator: Adobe Illustrator 13.0.0, SVG Export Plug-In . SVG Version: 6.00 Build 14948)  -->
<!DOCTYPE svg PUBLIC "-//W3C//DTD SVG 1.1//EN" "http://www.w3.org/Graphics/SVG/1.1/DTD/svg11.dtd">
<svg version="1.1" id="Ebene_1" xmlns="http://www.w3.org/2000/svg" xmlns:xlink="http://www.w3.org/1999/xlink" x="0px" y="0px"
	 width="100px" height="100px" viewBox="0 0 100 100" enable-background="new 0 0 100 100" xml:space="preserve">
<path d="M9.5,69.5l10,10l10-10l-10-10L9.5,69.5z M29.5,69.499l10-10L29.5,49.5l-10,10L29.5,69.499z M29.5,69.5l10,10l10-10l-10-10
	L29.5,69.5z M39.5-0.5h-20l10,10L39.5-0.5z M39.501,19.501l10-10l-10-10l-10,10L39.501,19.501z M49.5,39.5l-10-10l0,0l-10-10l-10,10
	l10,10l0,0l10,10L49.5,39.5z M29.5,19.501l-10-10l-10,10l10,10L29.5,19.501z M9.5,49.5l10-9.999l-10-10l-10,10L9.5,49.5l-10,10v20
	l10-10l10-10L9.5,49.5z M-0.5,19.5v20l9.999-9.999L9.5,29.5L-0.5,19.5z M79.494,59.5l-9.998-9.999l-10,9.999l0.002,0.002L49.5,69.5
	l10,10l10-10l-0.002-0.002L79.494,59.5z M69.5,9.5l10-10H59.504l-0.002-0.001L59.5-0.5l-9.997,9.998l9.999,10L69.5,9.5z M69.5,39.5
	l-9.998-10l-10,10l10,9.999L69.5,39.5z M69.5,19.502L59.502,29.5l10,10l10-10l-0.001-0.001l9.997-9.997l-9.999-9.999L69.5,19.502z
	 M89.498,49.501l10-10l-10-10l-10,10L89.498,49.501z M79.5,59.5l-10,10l10,10l10-10l10,10v-20l-10-9.999L79.5,59.5z M89.5,29.5
	l10,10v-20L89.5,29.5z"/>
</svg>
