<?xml version="1.0" encoding="utf-8"?>
<!-- Generator: Adobe Illustrator 13.0.0, SVG Export Plug-In . SVG Version: 6.00 Build 14948)  -->
<!DOCTYPE svg PUBLIC "-//W3C//DTD SVG 1.1//EN" "http://www.w3.org/Graphics/SVG/1.1/DTD/svg11.dtd">
<svg version="1.1" id="Ebene_1" xmlns="http://www.w3.org/2000/svg" xmlns:xlink="http://www.w3.org/1999/xlink" x="0px" y="0px"
	 width="100px" height="100px" viewBox="0 0 100 100" enable-background="new 0 0 100 100" xml:space="preserve">
<path d="M59.5,99.5h20l-10-10L59.5,99.5z M69.501,89.498l-10-10l-10,10l10,9.999L69.501,89.498z M59.506,69.498l9.995,9.996
	l9.999-9.998l-10-10L69.496,59.5l-9.995-9.995l-10,9.999l9.999,10L59.506,69.498z M69.503,79.5l9.999,10l9.999-10l-9.999-9.998
	L69.503,79.5z M89.5,49.502l-9.999,10l9.999,10l0.001-0.001L99.5,79.5v-20l-0.001,0.001L89.5,49.502z M29.504,89.504L29.5,89.5
	l-10,10h19.994l0.006,0.006l10-10.002l-10-9.998L29.504,89.504z M39.495,49.499l-9.999,10l0.002,0.002l-9.999,9.998l10,10
	l9.999-9.999l-0.002-0.003l9.999-9.998L39.495,49.499z M19.496,69.498l-9.999,10l9.999,9.998l9.999-9.998L19.496,69.498z
	 M9.498,69.497l10-10l-9.999-9.998l10-9.999l-10-10l0,0l-10-10v20l0,0l9.998,9.998l-9.999,9.999L9.498,69.497z M-0.5,59.5v20l10-10
	L-0.5,59.5z M29.5,9.5l10,10L49.499,9.5l-10-10L39.5-0.5h-20L29.5,9.5L29.5,9.5z M39.5,29.5l-10,10l10,10l10-10L39.5,29.5z
	 M39.499,29.5l-10-10l-10,10l10,10L39.499,29.5z M29.5,19.499l-10-10l-10,10l10,10L29.5,19.499z M59.502,19.499l10-10v0L79.5-0.5
	H59.502H59.5l0.001,0.001l-9.999,9.998L59.502,19.499z M69.502,39.5l-10-10l-10,10l10,10L69.502,39.5z M69.5,19.502L59.502,29.5
	l10,10l10-10l-0.001-0.001l9.997-9.997l-9.999-9.999L69.5,19.502z M89.498,49.501l10-10l-10-10l-10,10L89.498,49.501z M89.5,29.5
	l10,10v-20L89.5,29.5z"/>
</svg>
