<?xml version="1.0" encoding="utf-8"?>
<!-- Generator: Adobe Illustrator 13.0.0, SVG Export Plug-In . SVG Version: 6.00 Build 14948)  -->
<!DOCTYPE svg PUBLIC "-//W3C//DTD SVG 1.1//EN" "http://www.w3.org/Graphics/SVG/1.1/DTD/svg11.dtd">
<svg version="1.1" id="Ebene_1" xmlns="http://www.w3.org/2000/svg" xmlns:xlink="http://www.w3.org/1999/xlink" x="0px" y="0px"
	 width="100px" height="100px" viewBox="0 0 100 100" enable-background="new 0 0 100 100" xml:space="preserve">
<path d="M59.499,49.5c-0.009,5.517-4.479,9.988-9.999,9.999v0.002c-5.519-0.011-9.992-4.485-10-10.002h0
	c0.012-5.518,4.482-9.988,10-9.999v0C55.02,39.51,59.489,43.983,59.499,49.5L79.5,49.5c-0.008-16.571-13.426-29.992-30-29.999v0
	c-16.575,0.006-29.994,13.43-30,30h0C19.508,66.07,32.927,79.491,49.5,79.499c16.574-0.008,29.993-13.431,30-29.999H59.499z"/>
</svg>
