<?xml version="1.0" encoding="utf-8"?>
<!-- Generator: Adobe Illustrator 13.0.0, SVG Export Plug-In . SVG Version: 6.00 Build 14948)  -->
<!DOCTYPE svg PUBLIC "-//W3C//DTD SVG 1.1//EN" "http://www.w3.org/Graphics/SVG/1.1/DTD/svg11.dtd">
<svg version="1.1" id="Ebene_1" xmlns="http://www.w3.org/2000/svg" xmlns:xlink="http://www.w3.org/1999/xlink" x="0px" y="0px"
	 width="100px" height="100px" viewBox="0 0 100 100" enable-background="new 0 0 100 100" xml:space="preserve">
<path d="M99.5,39.5v-20c-6.756,0.002-12.987,2.236-18.001,6.001C74.203,15.788,62.59,9.503,49.5,9.5l0,0h0l0,0
	c-13.09,0.003-24.704,6.288-32,16.001C12.486,21.735,6.256,19.502-0.5,19.5v20c5.517,0.01,9.988,4.479,9.999,10H9.499
	c-0.008,5.519-4.479,9.99-9.999,10v20c6.756-0.003,12.987-2.236,18-6.003c7.296,9.714,18.91,15.998,32,16.003v-20
	c-11.042-0.021-19.981-8.961-20-20.002h0c0.022-11.04,8.959-19.979,20.001-19.999v0c11.037,0.019,19.972,8.955,19.999,19.988
	c0,0.004,0,0.008,0,0.012c-0.019,11.039-8.957,19.979-19.998,20v20.002c13.089-0.006,24.702-6.29,31.999-16.003
	c5.013,3.765,11.244,5.998,18,6V59.499c-5.507-0.011-9.969-4.46-10-9.962c0-0.012,0.001-0.024,0.001-0.037h0.001L89.5,49.498
	C89.51,43.981,93.979,39.51,99.5,39.5z"/>
</svg>
