<?xml version="1.0" encoding="utf-8"?>
<!-- Generator: Adobe Illustrator 13.0.0, SVG Export Plug-In . SVG Version: 6.00 Build 14948)  -->
<!DOCTYPE svg PUBLIC "-//W3C//DTD SVG 1.1//EN" "http://www.w3.org/Graphics/SVG/1.1/DTD/svg11.dtd">
<svg version="1.1" id="Ebene_1" xmlns="http://www.w3.org/2000/svg" xmlns:xlink="http://www.w3.org/1999/xlink" x="0px" y="0px"
	 width="100px" height="100px" viewBox="0 0 100 100" enable-background="new 0 0 100 100" xml:space="preserve">
<path d="M89.501,49.499c-0.008-22.097-17.909-39.992-40.002-40V9.5c-4.144,0.008-7.706-0.025-11.376,0.374
	c-2.736,0.304-5.604,0.892-8.447,2.124c-4.321,1.832-7.984,5.09-10.817,8.872c-0.641,0.847-1.259,1.733-1.869,2.653
	C11.707,20.949,5.774,19.502-0.5,19.5v20c11.04,0.021,19.979,8.959,20,20h0v5.366c-5.885-3.406-12.711-5.365-20-5.367v19.999
	c11.04,0.021,19.979,8.958,20,20.002h20c-0.002-7.29-1.961-14.116-5.366-20H39.5v-0.002c11.042,0.021,19.979,8.96,20,20.002h20.002
	c-0.003-6.272-1.45-12.205-4.022-17.488c0.461-0.305,0.912-0.612,1.354-0.923c2.642-1.867,4.999-3.918,6.961-6.403
	c2.998-3.721,4.601-8.32,5.154-12.43c0.595-4.168,0.537-8.098,0.552-12.757H89.501z M39.5,59.499L39.5,59.499
	c-0.002-8.484-2.651-16.346-7.156-22.817c0.698-1.185,1.332-2.176,1.9-2.975c1.112-1.577,1.926-2.385,2.452-2.796
	c0.793-0.561,1.032-0.738,2.96-1.073c1.873-0.296,5.184-0.354,9.843-0.339v0.002c11.039,0.019,19.979,8.957,20,19.998h-0.001
	c0.009,4.139-0.022,7.219-0.25,9.164c-0.165,1.475-0.396,2.243-0.601,2.718c-0.322,0.655-0.602,1.254-2.632,2.845
	c-0.896,0.69-2.137,1.504-3.702,2.428C55.843,62.149,47.983,59.501,39.5,59.499z"/>
</svg>
