<?xml version="1.0" encoding="utf-8"?>
<!-- Generator: Adobe Illustrator 13.0.0, SVG Export Plug-In . SVG Version: 6.00 Build 14948)  -->
<!DOCTYPE svg PUBLIC "-//W3C//DTD SVG 1.1//EN" "http://www.w3.org/Graphics/SVG/1.1/DTD/svg11.dtd">
<svg version="1.1" id="Ebene_1" xmlns="http://www.w3.org/2000/svg" xmlns:xlink="http://www.w3.org/1999/xlink" x="0px" y="0px"
	 width="100px" height="100px" viewBox="0 0 100 100" enable-background="new 0 0 100 100" xml:space="preserve">
<path d="M-0.5,19.5v20c9.123,0.017,16.794,6.128,19.202,14.479c-2.035,2.453-3.782,5.154-5.191,8.051
	C9.15,60.398,4.431,59.5-0.5,59.499v19.999c11.04,0.021,19.979,8.96,20,20.002h20c-0.003-9.704-3.458-18.597-9.202-25.521
	C32.705,65.629,40.376,59.516,49.5,59.5v-20c-4.931,0.001-9.651,0.899-14.012,2.53C29.002,28.693,15.329,19.504-0.5,19.5z
	 M99.5,39.5v-20c-15.832,0.004-29.505,9.195-35.989,22.531c-4.36-1.631-9.08-2.529-14.011-2.53v20
	c9.123,0.016,16.794,6.128,19.202,14.478c-5.745,6.925-9.2,15.818-9.203,25.522h19.999c0.021-11.042,8.96-19.98,20.002-20.002
	V59.499c-4.932,0.001-9.651,0.899-14.013,2.53c-1.409-2.896-3.155-5.597-5.191-8.051C82.703,45.629,90.374,39.517,99.5,39.5z"/>
</svg>
