<?xml version="1.0" encoding="utf-8"?>
<!-- Generator: Adobe Illustrator 13.0.0, SVG Export Plug-In . SVG Version: 6.00 Build 14948)  -->
<!DOCTYPE svg PUBLIC "-//W3C//DTD SVG 1.1//EN" "http://www.w3.org/Graphics/SVG/1.1/DTD/svg11.dtd">
<svg version="1.1" id="Ebene_1" xmlns="http://www.w3.org/2000/svg" xmlns:xlink="http://www.w3.org/1999/xlink" x="0px" y="0px"
	 width="100px" height="100px" viewBox="0 0 100 100" enable-background="new 0 0 100 100" xml:space="preserve">
<path d="M79.5,34.134c5.885,3.405,12.711,5.364,20,5.366v-20c-11.04-0.021-19.98-8.957-20.002-20H59.499
	c0.002,7.29,1.961,14.116,5.366,20H59.5v0c-11.042-0.021-19.98-8.959-20-20h-20c0.002,6.271,1.448,12.203,4.02,17.485
	c-0.461,0.305-0.912,0.613-1.354,0.924c-2.642,1.867-4.998,3.918-6.958,6.403c-3,3.721-4.601,8.319-5.156,12.431
	C9.457,40.91,9.514,44.84,9.5,49.5h0c0.006,22.097,17.908,39.992,40,40v-0.001c4.143-0.008,7.704,0.025,11.377-0.374
	c2.736-0.304,5.604-0.893,8.446-2.123c4.319-1.832,7.982-5.09,10.816-8.872c0.641-0.848,1.26-1.733,1.869-2.654
	c5.283,2.573,11.217,4.021,17.491,4.022V59.499c-11.042-0.021-19.98-8.958-20.002-20H79.5V34.134z M66.655,62.317
	c-0.698,1.185-1.332,2.176-1.899,2.974c-1.113,1.578-1.929,2.386-2.452,2.797c-0.795,0.56-1.032,0.737-2.962,1.072
	c-1.871,0.295-5.183,0.354-9.842,0.339v-0.001c-11.042-0.019-19.981-8.957-20-19.998l0,0c-0.008-4.139,0.025-7.22,0.251-9.163
	c0.164-1.476,0.396-2.243,0.602-2.717c0.321-0.656,0.601-1.254,2.629-2.845c0.896-0.69,2.138-1.504,3.703-2.428
	c6.471,4.503,14.331,7.151,22.815,7.153h-0.001C59.501,47.985,62.15,55.846,66.655,62.317z"/>
</svg>
