<?xml version="1.0" encoding="utf-8"?>
<!-- Generator: Adobe Illustrator 13.0.0, SVG Export Plug-In . SVG Version: 6.00 Build 14948)  -->
<!DOCTYPE svg PUBLIC "-//W3C//DTD SVG 1.1//EN" "http://www.w3.org/Graphics/SVG/1.1/DTD/svg11.dtd">
<svg version="1.1" id="Ebene_1" xmlns="http://www.w3.org/2000/svg" xmlns:xlink="http://www.w3.org/1999/xlink" x="0px" y="0px"
	 width="100px" height="100px" viewBox="0 0 100 100" enable-background="new 0 0 100 100" xml:space="preserve">
<path d="M89.5,49.5h-20c-0.021,11.037-8.954,19.972-19.989,19.999c-0.004,0-0.008,0-0.012,0C38.46,69.48,29.52,60.542,29.501,49.501
	H29.5c0.019-11.042,8.96-19.979,20-20.001v0.001c11.039,0.019,19.979,8.957,20,19.998L89.5,49.5
	c-0.004-13.091-6.288-24.704-16.003-32c3.767-5.013,6-11.245,6.003-18H59.498c-0.009,5.511-4.466,9.976-9.974,9.999
	c-0.008,0-0.017,0-0.025,0V9.5C43.98,9.488,39.51,5.02,39.5-0.5h-20c0.002,6.756,2.236,12.987,6.002,18
	c-9.714,7.296-15.999,18.91-16.002,32h0c0.004,13.089,6.287,24.702,16,31.998C21.735,86.513,19.502,92.744,19.5,99.5h20
	c0.01-5.507,4.459-9.969,9.962-10c0.013,0,0.025,0.001,0.038,0.001V89.5c0,0,0,0,0.001,0v0.002V89.5
	c5.521,0.01,9.988,4.479,9.999,10h19.999c-0.002-6.756-2.235-12.987-6.001-18.001C83.211,74.203,89.495,62.59,89.5,49.5z"/>
</svg>
