<?xml version="1.0" encoding="utf-8"?>
<!-- Generator: Adobe Illustrator 13.0.0, SVG Export Plug-In . SVG Version: 6.00 Build 14948)  -->
<!DOCTYPE svg PUBLIC "-//W3C//DTD SVG 1.1//EN" "http://www.w3.org/Graphics/SVG/1.1/DTD/svg11.dtd">
<svg version="1.1" id="Ebene_1" xmlns="http://www.w3.org/2000/svg" xmlns:xlink="http://www.w3.org/1999/xlink" x="0px" y="0px"
	 width="100px" height="100px" viewBox="0 0 100 100" enable-background="new 0 0 100 100" xml:space="preserve">
<path d="M79.498-0.5H59.499c0.001,4.931,0.899,9.65,2.53,14.011c-2.896,1.409-5.597,3.155-8.051,5.191
	C45.629,16.295,39.517,8.625,39.5-0.5h-20c0.004,15.831,9.195,29.503,22.531,35.988c-1.631,4.36-2.529,9.08-2.531,14.011h20
	c0.016-9.124,6.129-16.796,14.478-19.203c6.925,5.744,15.818,9.2,25.522,9.203v-20C88.458,19.479,79.52,10.54,79.498-0.5z
	 M59.5,49.5h-20c0.001,4.931,0.899,9.649,2.53,14.01C28.694,69.995,19.504,83.67,19.5,99.5h20
	c0.017-9.123,6.129-16.796,14.479-19.204c2.454,2.036,5.155,3.782,8.052,5.191c-1.632,4.361-2.53,9.081-2.531,14.013h19.999
	c0.021-11.042,8.96-19.98,20.002-20.002V59.499c-9.704,0.003-18.597,3.458-25.521,9.202C65.629,66.295,59.516,58.623,59.5,49.5z"/>
</svg>
