<?xml version="1.0" encoding="utf-8"?>
<!-- Generator: Adobe Illustrator 13.0.0, SVG Export Plug-In . SVG Version: 6.00 Build 14948)  -->
<!DOCTYPE svg PUBLIC "-//W3C//DTD SVG 1.1//EN" "http://www.w3.org/Graphics/SVG/1.1/DTD/svg11.dtd">
<svg version="1.1" id="Ebene_1" xmlns="http://www.w3.org/2000/svg" xmlns:xlink="http://www.w3.org/1999/xlink" x="0px" y="0px"
	 width="100px" height="100px" viewBox="0 0 100 100" enable-background="new 0 0 100 100" xml:space="preserve">
<path d="M87.002,29.674c-1.832-4.319-5.09-7.982-8.872-10.814c-0.847-0.641-1.733-1.259-2.653-1.869
	C78.05,11.708,79.498,5.774,79.5-0.5H59.498C59.479,10.54,50.541,19.48,39.5,19.499V19.5h-5.367
	C37.538,13.616,39.498,6.789,39.5-0.5h-20c-0.021,11.04-8.958,19.979-20,20v20c7.291-0.002,14.117-1.961,20.001-5.367V39.5H19.5
	c-0.021,11.04-8.958,19.978-20,19.999v20.002c6.272-0.002,12.205-1.449,17.487-4.021c0.305,0.461,0.612,0.912,0.923,1.354
	c1.868,2.64,3.919,4.997,6.404,6.959c3.721,2.998,8.319,4.601,12.43,5.154c4.168,0.595,8.097,0.537,12.756,0.552v0.002
	c22.099-0.008,39.994-17.909,40-40.002c-0.008-4.142,0.025-7.705-0.374-11.376C88.821,35.386,88.232,32.519,87.002,29.674z
	 M49.5,69.499L49.5,69.499c-4.14,0.008-7.22-0.023-9.164-0.251c-1.475-0.165-2.243-0.396-2.718-0.601
	c-0.655-0.322-1.254-0.602-2.845-2.632c-0.69-0.896-1.503-2.138-2.427-3.702c4.503-6.472,7.15-14.33,7.154-22.813V39.5
	c8.485-0.002,16.345-2.651,22.816-7.156c1.185,0.699,2.177,1.332,2.975,1.9c1.578,1.113,2.386,1.927,2.797,2.452
	c0.56,0.793,0.737,1.031,1.072,2.962c0.295,1.872,0.354,5.183,0.339,9.841C69.479,60.539,60.543,69.478,49.5,69.499z"/>
</svg>
