<?xml version="1.0" encoding="utf-8"?>
<!-- Generator: Adobe Illustrator 13.0.0, SVG Export Plug-In . SVG Version: 6.00 Build 14948)  -->
<!DOCTYPE svg PUBLIC "-//W3C//DTD SVG 1.1//EN" "http://www.w3.org/Graphics/SVG/1.1/DTD/svg11.dtd">
<svg version="1.1" id="Ebene_1" xmlns="http://www.w3.org/2000/svg" xmlns:xlink="http://www.w3.org/1999/xlink" x="0px" y="0px"
	 width="100px" height="100px" viewBox="0 0 100 100" enable-background="new 0 0 100 100" xml:space="preserve">
<path d="M99.5,39.5v-20c-11.042-0.021-19.98-8.959-20.002-20H59.499c0.003,9.703,3.458,18.595,9.202,25.52
	C66.295,33.369,58.623,39.482,49.5,39.5v0c-9.124-0.015-16.796-6.13-19.203-14.48c5.744-6.924,9.2-15.817,9.203-25.52h-20
	c-0.021,11.04-8.96,19.979-20,20v20c4.931-0.001,9.651-0.899,14.012-2.531c1.409,2.896,3.155,5.597,5.19,8.051
	c-2.406,8.349-10.078,14.463-19.203,14.48v20.002c15.833-0.006,29.504-9.197,35.989-22.532c4.361,1.632,9.08,2.529,14.012,2.531
	c4.931-0.002,9.65-0.9,14.011-2.531c6.485,13.336,20.16,22.525,35.989,22.529V59.499c-9.124-0.017-16.797-6.129-19.204-14.479
	c2.036-2.454,3.782-5.155,5.191-8.051C89.849,38.6,94.568,39.498,99.5,39.5z"/>
</svg>
