<?xml version="1.0" encoding="utf-8"?>
<!-- Generator: Adobe Illustrator 13.0.0, SVG Export Plug-In . SVG Version: 6.00 Build 14948)  -->
<!DOCTYPE svg PUBLIC "-//W3C//DTD SVG 1.1//EN" "http://www.w3.org/Graphics/SVG/1.1/DTD/svg11.dtd">
<svg version="1.1" id="Ebene_1" xmlns="http://www.w3.org/2000/svg" xmlns:xlink="http://www.w3.org/1999/xlink" x="0px" y="0px"
	 width="100px" height="100px" viewBox="0 0 100 100" enable-background="new 0 0 100 100" xml:space="preserve">
<path d="M56.969,63.511c1.631-4.36,2.529-9.08,2.531-14.011c-0.002-4.932-0.899-9.651-2.531-14.012
	C70.305,29.002,79.494,15.329,79.5-0.5H59.498c-0.016,9.123-6.127,16.796-14.478,19.202c-2.454-2.036-5.155-3.782-8.051-5.191
	C38.6,9.15,39.498,4.431,39.5-0.5h-20c-0.021,11.04-8.96,19.979-20,20v20c9.703-0.003,18.595-3.458,25.52-9.202
	C33.368,32.703,39.482,40.375,39.5,49.5h0c-0.018,9.123-6.13,16.795-14.479,19.202c-6.925-5.745-15.817-9.2-25.521-9.203v19.999
	c11.04,0.021,19.979,8.96,20,20.002h20c-0.001-4.932-0.899-9.652-2.531-14.014c2.896-1.408,5.597-3.155,8.051-5.19
	c8.349,2.407,14.463,10.078,14.48,19.204h20.002C79.495,83.668,70.304,69.995,56.969,63.511z"/>
</svg>
