<?xml version="1.0" encoding="utf-8"?>
<!-- Generator: Adobe Illustrator 13.0.0, SVG Export Plug-In . SVG Version: 6.00 Build 14948)  -->
<!DOCTYPE svg PUBLIC "-//W3C//DTD SVG 1.1//EN" "http://www.w3.org/Graphics/SVG/1.1/DTD/svg11.dtd">
<svg version="1.1" id="Ebene_1" xmlns="http://www.w3.org/2000/svg" xmlns:xlink="http://www.w3.org/1999/xlink" x="0px" y="0px"
	 width="100px" height="100px" viewBox="0 0 100 100" enable-background="new 0 0 100 100" xml:space="preserve">
<path d="M99.5,39.5v-20c-6.756,0.002-12.987,2.236-18.001,6.001c-2.275-3.03-4.972-5.726-8.002-8.001c3.767-5.013,6-11.245,6.003-18
	H59.498c-0.009,5.511-4.466,9.976-9.974,9.999c-0.008,0-0.017,0-0.025,0V9.5C43.98,9.488,39.51,5.02,39.5-0.5h-20
	c0.002,6.756,2.236,12.987,6.002,18c-3.03,2.276-5.726,4.971-8.002,8.001c-5.013-3.766-11.244-5.999-18-6.001v20
	c5.517,0.01,9.988,4.479,9.999,10H9.499c-0.008,5.519-4.479,9.99-9.999,10v20c6.756-0.003,12.986-2.236,17.999-6.002
	c2.276,3.029,4.972,5.726,8.001,8.001C21.735,86.513,19.502,92.744,19.5,99.5h20c0.01-5.507,4.459-9.969,9.962-10
	c0.013,0,0.025,0.001,0.038,0.001V89.5c0,0,0,0,0.001,0v0.002V89.5c5.521,0.01,9.988,4.479,9.999,10h19.999
	c-0.002-6.756-2.235-12.987-6.001-18.001c3.03-2.275,5.726-4.972,8.002-8.002c5.014,3.766,11.245,5.999,18.001,6.001V59.499
	c-5.511-0.011-9.976-4.466-10.001-9.975c0-0.008,0.001-0.016,0.001-0.024h-0.002c0,0,0,0,0-0.001h0.003c0-0.004,0-0.008,0-0.013
	C89.517,43.975,93.982,39.51,99.5,39.5z M69.501,49.5L69.501,49.5c-0.021,11.037-8.955,19.972-19.99,19.999
	c-0.004,0-0.008,0-0.012,0C38.46,69.48,29.52,60.542,29.501,49.501H29.5c0.019-11.042,8.96-19.979,20-20.001v0.001
	c11.039,0.019,19.979,8.957,20,19.998L69.501,49.5L69.501,49.5z" fill="white"/>
</svg>
