<?xml version="1.0" encoding="utf-8"?>
<!-- Generator: Adobe Illustrator 13.0.2, SVG Export Plug-In . SVG Version: 6.00 Build 14948)  -->
<!DOCTYPE svg PUBLIC "-//W3C//DTD SVG 1.1//EN" "http://www.w3.org/Graphics/SVG/1.1/DTD/svg11.dtd">
<svg version="1.1" id="Ebene_1" xmlns="http://www.w3.org/2000/svg" xmlns:xlink="http://www.w3.org/1999/xlink" x="0px" y="0px"
	 width="100px" height="100px" viewBox="0 0 100 100" enable-background="new 0 0 100 100" xml:space="preserve">
<g>
	<g>
		<path fill="#1A171B" d="M0-1.799c0.994,0,1.801,0.808,1.801,1.799l0,0c0,0.992-0.807,1.799-1.801,1.799l0,0
			c-0.99,0-1.798-0.808-1.798-1.799l0,0C-1.798-0.992-0.99-1.799,0-1.799L0-1.799z M7.018-1.799c0.994,0,1.798,0.808,1.798,1.799
			l0,0c0,0.992-0.804,1.799-1.798,1.799l0,0c-0.99,0-1.797-0.808-1.797-1.799l0,0C5.221-0.992,6.028-1.799,7.018-1.799L7.018-1.799z
			 M14.037-1.799c0.994,0,1.798,0.808,1.798,1.799l0,0c0,0.992-0.804,1.799-1.798,1.799l0,0c-0.994,0-1.798-0.808-1.798-1.799l0,0
			C12.239-0.992,13.043-1.799,14.037-1.799L14.037-1.799z M21.055-1.799c0.99,0,1.797,0.808,1.797,1.799l0,0
			c0,0.992-0.808,1.799-1.797,1.799l0,0c-0.994,0-1.798-0.808-1.798-1.799l0,0C19.257-0.992,20.062-1.799,21.055-1.799L21.055-1.799
			z M28.073-1.799c0.99,0,1.798,0.808,1.798,1.799l0,0c0,0.992-0.808,1.799-1.798,1.799l0,0c-0.994,0-1.801-0.808-1.801-1.799l0,0
			C26.272-0.992,27.08-1.799,28.073-1.799L28.073-1.799z M35.092-1.799c0.99,0,1.797,0.808,1.797,1.799l0,0
			c0,0.992-0.807,1.799-1.797,1.799l0,0c-0.994,0-1.801-0.808-1.801-1.799l0,0C33.291-0.992,34.098-1.799,35.092-1.799L35.092-1.799
			z M42.11-1.799c0.99,0,1.797,0.808,1.797,1.799l0,0c0,0.992-0.808,1.799-1.797,1.799l0,0c-0.994,0-1.801-0.808-1.801-1.799l0,0
			C40.309-0.992,41.117-1.799,42.11-1.799L42.11-1.799z M49.126-1.799c0.992,0,1.799,0.808,1.799,1.799l0,0
			c0,0.992-0.807,1.799-1.799,1.799l0,0c-0.991,0-1.799-0.808-1.799-1.799l0,0C47.328-0.992,48.135-1.799,49.126-1.799L49.126-1.799
			z M56.143-1.799c0.994,0,1.799,0.808,1.799,1.799l0,0c0,0.992-0.805,1.799-1.799,1.799l0,0c-0.988,0-1.797-0.808-1.797-1.799l0,0
			C54.346-0.992,55.154-1.799,56.143-1.799L56.143-1.799z M63.162-1.799c0.994,0,1.793,0.808,1.793,1.799l0,0
			c0,0.992-0.799,1.799-1.793,1.799l0,0c-0.994,0-1.799-0.808-1.799-1.799l0,0C61.363-0.992,62.168-1.799,63.162-1.799L63.162-1.799
			z M70.18-1.799c0.99,0,1.791,0.808,1.791,1.799l0,0c0,0.992-0.801,1.799-1.791,1.799l0,0c-0.99,0-1.797-0.808-1.797-1.799l0,0
			C68.383-0.992,69.189-1.799,70.18-1.799L70.18-1.799z M77.199-1.799c0.992,0,1.793,0.808,1.793,1.799l0,0
			c0,0.992-0.801,1.799-1.793,1.799l0,0c-0.994,0-1.801-0.808-1.801-1.799l0,0C75.398-0.992,76.205-1.799,77.199-1.799L77.199-1.799
			z M84.211-1.799c0.996,0,1.797,0.808,1.797,1.799l0,0c0,0.992-0.801,1.799-1.797,1.799l0,0c-0.99,0-1.791-0.808-1.791-1.799l0,0
			C82.42-0.992,83.221-1.799,84.211-1.799L84.211-1.799z"/>
	</g>
	<g>
		<path d="M81.408-9.23c0-0.713,0.582-0.843,1.039-0.583l15.988,9.709c0.193,0.13,0.258,0.258,0.258,0.388s-0.064,0.26-0.258,0.388
			l-15.988,9.709c-0.457,0.26-1.039,0.13-1.039-0.582V-9.23z"/>
	</g>
</g>
</svg>
