<?xml version="1.0" encoding="utf-8"?>
<!-- Generator: Adobe Illustrator 13.0.0, SVG Export Plug-In . SVG Version: 6.00 Build 14948)  -->
<!DOCTYPE svg PUBLIC "-//W3C//DTD SVG 1.0//EN" "http://www.w3.org/TR/2001/REC-SVG-20010904/DTD/svg10.dtd">
<svg version="1.0" id="Ebene_1" xmlns="http://www.w3.org/2000/svg" xmlns:xlink="http://www.w3.org/1999/xlink" x="0px" y="0px"
	 width="100px" height="100px" viewBox="-20.826 -16.359 100 100" enable-background="new -20.826 -16.359 100 100"
	 xml:space="preserve">
<g>
	<path d="M-3.203,95.5c-25.406,0-46-20.595-46-46s20.594-46,46-46c24.604,0,124.08,19.317,125.32,43.614
		C120.873,20.976,19.908,0.166-6.539,0.166c-27.246,0-49.334,22.087-49.334,49.334c0,27.246,22.088,49.334,49.334,49.334
		c26.447,0,127.412-20.811,128.656-46.947C120.877,76.183,21.4,95.5-3.203,95.5z"/>
	<path d="M4.129,88.166c-21.355,0-38.666-17.312-38.666-38.666s17.311-38.666,38.666-38.666c20.686,0,116.963,16.246,117.998,36.675
		C121.086,24.87,23.025,6.834,0.129,6.834c-23.564,0-42.666,19.102-42.666,42.666c0,23.564,19.102,42.666,42.666,42.666
		c22.896,0,120.957-18.036,121.998-40.676C121.092,71.92,24.814,88.166,4.129,88.166z"/>
	<path d="M11.963,80.333c-17.029,0-30.834-13.804-30.834-30.833c0-17.029,13.805-30.833,30.834-30.833
		c16.496,0,109.35,12.955,110.176,29.246c-0.83-18.5-95.471-33.246-114.176-33.246c-19.238,0-34.834,15.595-34.834,34.833
		c0,19.238,15.596,34.833,34.834,34.833c18.705,0,113.346-14.745,114.176-33.245C121.313,67.379,28.459,80.333,11.963,80.333z"/>
	<path d="M15.963,22.667c-14.82,0-26.834,12.014-26.834,26.833S1.143,76.333,15.963,76.333c14.818,0,106.215-12.014,106.215-26.833
		S30.781,22.667,15.963,22.667z M20.629,71.666c-12.242,0-22.166-9.924-22.166-22.166s9.924-22.166,22.166-22.166
		S122.178,37.258,122.178,49.5S32.871,71.666,20.629,71.666z"/>
	<path d="M24.797,31.5c-9.941,0-18,8.059-18,18c0,9.941,8.059,18,18,18s97.383-8.059,97.383-18
		C122.18,39.559,34.738,31.5,24.797,31.5z M29.129,63.167c-7.549,0-13.668-6.119-13.668-13.667s6.119-13.667,13.668-13.667
		s93.049,6.119,93.049,13.667S36.678,63.167,29.129,63.167z"/>
	<path d="M37.297,55c-3.037,0-5.5-2.463-5.5-5.5c0-3.038,2.463-5.5,5.5-5.5c2.844,0,84.566,2.159,84.852,4.928
		c-0.297-5.209-83.986-9.345-89.27-9.345c-5.477,0-9.918,4.44-9.918,9.917c0,5.477,4.441,9.917,9.918,9.917
		c5.283,0,88.973-4.136,89.27-9.345C121.863,52.841,40.141,55,37.297,55z"/>
</g>
</svg>
