<?xml version="1.0" encoding="utf-8"?>
<!-- Generator: Adobe Illustrator 19.1.0, SVG Export Plug-In . SVG Version: 6.00 Build 0)  -->
<svg version="1.1" id="Ebene_1" xmlns="http://www.w3.org/2000/svg" xmlns:xlink="http://www.w3.org/1999/xlink" x="0px" y="0px"
	 viewBox="-230 232 50 50" style="enable-background:new -230 232 50 50;" xml:space="preserve">
<path d="M-181.9,279.9c-10-3.9-16.7-14-26.2-19.1c-1-0.5-2.1-0.9-3.1-1.2c-0.9-0.4-1.7-0.7-2.6-0.9c-2.6-0.8-5.3-1.2-8.1-0.9
	c-1,0.2-2.1,0.5-3.1,1c-1.3,0.9-2.2,1.4-2.3,1.3c-0.2-0.2,0.3-1,1.4-2.2c0.9-0.7,1.6-1,2.6-1.5c3.3-0.6,6.2,0,9.2,0.9
	c1,0.3,1.9,0.7,2.9,1c0.9,0.4,1.8,0.7,2.6,1.1c2.9,1.3,9.8,5.9,12.7,6.9c-0.7-3.7-6.1-10.2-7.2-13.7c-0.4-1-0.8-2-1.1-3
	c-0.4-1.1-0.8-2.1-1.1-3.2c-0.6-2.1-0.9-4.3-0.3-6.7c0.2-0.9,0.5-1.7,0.9-2.5s0.9-1.6,1.6-2.3c1.3-1,2.1-1.5,2.2-1.4s-0.3,1-1.3,2.3
	c-0.7,1-1.1,2-1.5,3c-0.3,1-0.5,2.1-0.6,3.1c0,1.2,0.1,2.3,0.4,3.4c0.2,1.1,0.5,2.2,0.9,3.3c0.3,1.1,0.7,2.1,1.1,3.1
	c4.8,9.7,12.4,17.7,19,26.3C-182.4,278.9-182,279.5-181.9,279.9z"/>
</svg>
