<?xml version="1.0" encoding="utf-8"?>
<!-- Generator: Adobe Illustrator 19.1.0, SVG Export Plug-In . SVG Version: 6.00 Build 0)  -->
<svg version="1.1" id="Ebene_1" xmlns="http://www.w3.org/2000/svg" xmlns:xlink="http://www.w3.org/1999/xlink" x="0px" y="0px"
	 viewBox="-205 207 100 100" style="enable-background:new -205 207 100 100;" xml:space="preserve">
<g>
	<path d="M-174.8,282c-13.8,0-25-11.2-25-25s11.2-25,25-25c13.4,0,67.5,10.5,68.2,23.7c-0.7-14.2-55.6-25.5-70-25.5
		c-14.8,0-26.8,12-26.8,26.8c0,14.8,12,26.8,26.8,26.8c14.4,0,69.3-11.3,70-25.5C-107.3,271.5-161.4,282-174.8,282z"/>
	<path d="M-170.8,278c-11.6,0-21-9.4-21-21c0-11.6,9.4-21,21-21c11.3,0,63.6,8.8,64.2,19.9c-0.6-12.3-53.9-22.1-66.4-22.1
		c-12.8,0-23.2,10.4-23.2,23.2c0,12.8,10.4,23.2,23.2,23.2c12.5,0,65.8-9.8,66.4-22.1C-107.2,269.2-159.5,278-170.8,278z"/>
	<path d="M-166.5,273.8c-9.3,0-16.8-7.5-16.8-16.8c0-9.3,7.5-16.8,16.8-16.8c9,0,59.5,7,59.9,15.9c-0.5-10.1-51.9-18.1-62.1-18.1
		c-10.5,0-18.9,8.5-18.9,18.9c0,10.5,8.5,18.9,18.9,18.9c10.2,0,61.6-8,62.1-18.1C-107,266.7-157.6,273.8-166.5,273.8z"/>
	<path d="M-164.3,242.4c-8.1,0-14.6,6.5-14.6,14.6s6.5,14.6,14.6,14.6c8.1,0,57.8-6.5,57.8-14.6S-156.3,242.4-164.3,242.4z
		 M-161.8,269.1c-6.7,0-12.1-5.4-12.1-12.1s5.4-12.1,12.1-12.1c6.7,0,55.2,5.4,55.2,12.1S-155.2,269.1-161.8,269.1z"/>
	<path d="M-159.5,247.2c-5.4,0-9.8,4.4-9.8,9.8s4.4,9.8,9.8,9.8c5.4,0,53-4.4,53-9.8C-106.6,251.6-154.1,247.2-159.5,247.2z
		 M-157.2,264.4c-4.1,0-7.4-3.3-7.4-7.4c0-4.1,3.3-7.4,7.4-7.4s50.6,3.3,50.6,7.4C-106.6,261.1-153.1,264.4-157.2,264.4z"/>
	<path d="M-152.7,260c-1.7,0-3-1.3-3-3c0-1.7,1.3-3,3-3c1.5,0,46,1.2,46.2,2.7c-0.2-2.8-45.7-5.1-48.6-5.1c-3,0-5.4,2.4-5.4,5.4
		s2.4,5.4,5.4,5.4c2.9,0,48.4-2.2,48.6-5.1C-106.8,258.8-151.2,260-152.7,260z"/>
</g>
</svg>
