<?xml version="1.0" encoding="utf-8"?>
<!-- Generator: Adobe Illustrator 13.0.0, SVG Export Plug-In . SVG Version: 6.00 Build 14948)  -->
<!DOCTYPE svg PUBLIC "-//W3C//DTD SVG 1.1//EN" "http://www.w3.org/Graphics/SVG/1.1/DTD/svg11.dtd">
<svg version="1.1" id="Ebene_1" xmlns="http://www.w3.org/2000/svg" xmlns:xlink="http://www.w3.org/1999/xlink" x="0px" y="0px"
	 width="50px" height="50px" viewBox="0 0 50 50" enable-background="new 0 0 50 50" xml:space="preserve">
<path d="M81.924,63.221C52.959,51.842,33.867,22.851,6.388,8.119C3.452,6.663,0.452,5.476-2.695,4.687
	c-2.53-1.023-5.03-1.929-7.547-2.71c-7.54-2.336-15.248-3.587-23.285-2.566c-2.987,0.502-5.941,1.381-8.869,2.768
	c-3.881,2.729-6.228,4.181-6.705,3.704c-0.478-0.478,0.975-2.824,4.062-6.356c2.539-2.131,4.66-2.838,7.488-4.252
	c9.546-1.768,18.031,0,26.428,2.74C-8.32-1.07-5.527-0.045-2.675,1.027C-0.08,2.063,2.441,3.15,4.928,4.208
	c8.433,3.793,28.23,16.993,36.716,19.822C39.522,13.423,23.968-5.434,20.864-15.554c-1.196-2.828-2.334-5.671-3.205-8.579
	c-1.191-3.083-2.321-6.144-3.206-9.239c-1.772-6.191-2.583-12.532-0.852-19.331c0.551-2.507,1.377-4.934,2.553-7.245
	s2.7-4.508,4.647-6.554c3.642-3.008,5.988-4.461,6.465-3.984s-0.976,2.824-3.861,6.589c-1.91,2.79-3.305,5.666-4.297,8.607
	c-0.978,2.945-1.552,5.956-1.803,9.054c0.049,3.383,0.424,6.692,1.047,9.948c0.625,3.259,1.496,6.462,2.549,9.646
	c0.982,3.063,2.095,6.028,3.314,8.913C38.109,10.123,60.03,33.457,79.112,58.177C80.604,60.362,81.541,62.037,81.924,63.221z"/>
</svg>
