<?xml version="1.0" encoding="utf-8"?>
<!-- Generator: Adobe Illustrator 13.0.0, SVG Export Plug-In . SVG Version: 6.00 Build 14948)  -->
<!DOCTYPE svg PUBLIC "-//W3C//DTD SVG 1.0//EN" "http://www.w3.org/TR/2001/REC-SVG-20010904/DTD/svg10.dtd">
<svg version="1.0" id="Ebene_1" xmlns="http://www.w3.org/2000/svg" xmlns:xlink="http://www.w3.org/1999/xlink" x="0px" y="0px"
	 width="100px" height="100px" viewBox="-20.826 -16.359 100 100" enable-background="new -20.826 -16.359 100 100"
	 xml:space="preserve">
<polygon fill="#1E1E1E" points="47.999,136.5 47.999,-42.499 52,-42.499 52,136.5 47.999,136.5 "/>
<path fill="#1E1E1E" d="M37.999-51.003C38.001-57.633,43.372-63.002,50-63.004l0,0c6.627,0.002,11.999,5.372,12,12.001l0,0
	c-0.002,6.627-5.373,11.999-12,12l0,0C43.372-39.005,38.001-44.376,37.999-51.003L37.999-51.003z M41.999-51.003
	c0.008,4.418,3.582,7.992,8,7.999l0,0c4.417-0.006,7.992-3.581,7.999-7.999l0,0c-0.007-4.418-3.581-7.993-7.999-8l0,0
	C45.581-58.996,42.007-55.422,41.999-51.003L41.999-51.003z"/>
<path fill="#1E1E1E" d="M38,145c0-6.629,5.371-12.001,12-12.001l0,0c6.627,0,11.998,5.372,11.998,12.001l0,0
	c0,6.627-5.371,11.998-11.998,12l0,0C43.371,156.998,38,151.627,38,145L38,145z M41.999,145c0.008,4.417,3.584,7.991,8.001,7.999
	l0,0c4.417-0.008,7.991-3.582,7.999-7.999l0,0c-0.008-4.42-3.582-7.993-7.999-8l0,0C45.583,137.007,42.007,140.58,41.999,145
	L41.999,145z"/>
<polygon fill="#1E1E1E" points="18,48.998 18,44.998 81.5,44.998 81.5,48.998 18,48.998 "/>
<path fill="#1E1E1E" d="M79.306,46.998c0.002-6.629,5.373-11.999,12.001-12.001l0,0c6.628,0.002,11.999,5.372,12.001,12.001l0,0
	c-0.002,6.627-5.373,11.999-12.001,11.999l0,0v-1.998v-2.001c4.418-0.009,7.991-3.582,8-8l0,0c-0.009-4.417-3.582-7.993-8-8l0,0
	c-4.418,0.006-7.991,3.582-7.999,8l0,0c0.008,4.417,3.584,7.991,7.999,8l0,0v2.001v1.998C84.679,58.996,79.308,53.625,79.306,46.998
	L79.306,46.998z"/>
<path fill="#1E1E1E" d="M-2.501,46.997c0.002-6.629,5.372-11.999,12-12l0,0c6.629,0.002,11.999,5.372,12,12l0,0
	c-0.002,6.627-5.371,11.998-12,12l0,0v-2v-1.999c4.419-0.01,7.992-3.583,8-8.001l0,0c-0.008-4.417-3.581-7.992-8-8l0,0
	c-4.418,0.008-7.991,3.583-8,8l0,0c0.008,4.418,3.581,7.991,8,8.001l0,0v1.999v2C2.87,58.995-2.499,53.624-2.501,46.997
	L-2.501,46.997z"/>
</svg>
