<?xml version="1.0" encoding="utf-8"?>
<!-- Generator: Adobe Illustrator 21.1.0, SVG Export Plug-In . SVG Version: 6.00 Build 0)  -->
<svg width="250px" height="250px" version="1.1" id="Ebene_1" xmlns="http://www.w3.org/2000/svg" xmlns:xlink="http://www.w3.org/1999/xlink" x="0px" y="0px"
	 viewBox="0 0 250 250" style="enable-background:new 0 0 250 250;" xml:space="preserve">
<style type="text/css">
	.st0{fill:#4169B8;}
</style>
<polygon class="st0" points="115.1,142.8 115.1,139.4 176.7,139.4 176.7,142.8 "/>
<polygon class="st0" points="144.2,57.9 147.6,57.9 147.6,224.3 144.2,224.3 "/>
<path class="st0" d="M138.9,53.2c0-4,3.3-7.3,7.3-7.3l0,0c4,0,7.3,3.3,7.3,7.3l0,0c0,4-3.3,7.3-7.3,7.3l0,0
	C142.2,60.5,138.9,57.2,138.9,53.2L138.9,53.2z M142.3,53.2c0,2.2,1.8,3.9,3.9,3.9l0,0c2.2,0,3.9-1.8,3.9-3.9l0,0
	c0-2.2-1.8-3.9-3.9-3.9l0,0C144,49.2,142.3,51,142.3,53.2L142.3,53.2z"/>
<path class="st0" d="M138.4,228.9c0-4,3.3-7.3,7.3-7.3l0,0c4,0,7.3,3.3,7.3,7.3l0,0c0,4-3.3,7.3-7.3,7.3l0,0
	C141.7,236.2,138.4,232.9,138.4,228.9L138.4,228.9z M141.8,228.9c0,2.2,1.8,3.9,3.9,3.9l0,0c2.2,0,3.9-1.8,3.9-3.9l0,0
	c0-2.2-1.8-3.9-3.9-3.9l0,0C143.6,224.9,141.8,226.7,141.8,228.9L141.8,228.9z"/>
<path class="st0" d="M173.8,140.9c0-4.1,3.3-7.3,7.3-7.3l0,0c4,0,7.3,3.3,7.3,7.3l0,0c0,4-3.3,7.3-7.3,7.3l0,0
	C177.1,148.2,173.8,145,173.8,140.9L173.8,140.9z M177.2,140.9c0,2.2,1.8,3.9,3.9,3.9l0,0c2.2,0,3.9-1.8,3.9-3.9l0,0
	c0-2.2-1.8-3.9-3.9-3.9l0,0C179,137,177.2,138.7,177.2,140.9L177.2,140.9z"/>
<path class="st0" d="M103.5,140.9c0-4,3.3-7.3,7.3-7.3l0,0c4,0,7.3,3.3,7.3,7.3l0,0c0,4-3.3,7.3-7.3,7.3l0,0
	C106.8,148.2,103.5,145,103.5,140.9L103.5,140.9z M106.9,140.9c0,2.2,1.8,3.9,3.9,3.9l0,0c2.2,0,3.9-1.8,3.9-3.9l0,0
	c0-2.2-1.8-3.9-3.9-3.9l0,0C108.6,137,106.9,138.7,106.9,140.9L106.9,140.9z"/>
</svg>
