<?xml version="1.0" encoding="utf-8"?>
<!-- Generator: Adobe Illustrator 21.1.0, SVG Export Plug-In . SVG Version: 6.00 Build 0)  -->
<svg width="132.7px" height="132.7px" version="1.1" id="Ebene_1" xmlns="http://www.w3.org/2000/svg" xmlns:xlink="http://www.w3.org/1999/xlink" x="0px" y="0px"
	 viewBox="0 0 132.7 132.7" style="enable-background:new 0 0 132.7 132.7;" xml:space="preserve">
<style type="text/css">
	.st0{fill:#0FE976;}
</style>
<path class="st0" d="M98.6,43.5c-4.4,0.5,0.3,3.2-1.5,4.5c-3.7,0.4-2.2-5.1-0.7-6c10.7-0.4,6.7,12.7,0,12.7c-5.8,0-9.4-6-7.4-12.7
	c2.5-8.6,18.2-7.7,20.1,3c1.9,11.2-4.3,11.7-11.9,15.6c7.4,4.3,8.9,18,22.3,15.6c10.1-1.8,11.2-21.7-2.2-20.1
	c-15.3,1.8,2,23.1,3.7,7.4c-1.4-4.5-4.2,2.1-5.2,0c3.6-10,11.1,6.4,2.2,8.2c-4.6,0.9-10.3-4.7-8.2-11.9c3.1-10.3,22.9-4.5,19.4,10.4
	c-2.3,9.8-13.2,10.2-22.3,4.5c-3.9,16.3-1.4,32,12.7,29.8c7.8-1.2,12.5-18.2,0.7-18.6c-13.8-0.4-5.1,19.6,1.5,9.7
	c0-2.9-6.1,0.1-5.2-3.7c7-6.7,10.3,9.4,0.7,8.9c-9.6-0.5-7.1-18.8,4.5-17.1c5.7,0.8,9.2,7.8,7.4,14.9c-3.7,14.5-27.7,9.4-26.1-8.2
	c-6.5,7.6-21,7.7-21.6,21.6c-0.6,13.9,23.4,18,21.6,1.5c-0.4-3.8-3.7-7-6-7.4c-15.4-3.2-8.2,19.7,0,9.7c0.1-4.3-3.6-1.5-5.2-3
	c4.4-9,11.4,5.2,3.7,7.4c-11,3.4-13.1-14.1-3.7-16.4c18.6-4.6,16.7,29.7-4.5,21.6c-9.7-3.7-9.8-17.8-0.7-26.1
	c-9.9-3.7-13.6-8.8-23.8-5.2C52.6,97.8,53,118,68.1,115c4.2-0.8,7.3-5.3,6.7-9.7c-1.1-8.3-14.1-7.8-13.4,0c0.3,3.7,4.4,6.4,7.4,3
	c0.9-5.1-5-1.8-3-5.2c5.2-2.8,6.9,4,4.5,7.4c-16.3,10.2-14.7-21,2.2-12.7c7.2,3.5,6.9,22.5-9.7,19.4c-14.1-2.6-10-24.3,2.2-26.1
	c7-1,13,3.8,18.6,4.5c8.8,1.1,22.2-3.6,20.9-19.4c-2-22.9-39.4-18.8-30.5,6.7c3.8,11,25.5,10.5,25.3-4.5
	C99.2,66.3,78.8,65.9,78.5,77c0,1.3,0.3,7.8,6,8.9C94,87.8,97.1,73.3,86,74.1c-3.5,3.9,5.1,4.2,2.2,7.4c-16.2-3.6,8.6-19.3,6.7-0.7
	c-1.3,12.3-20.5,8.1-17.9-6c2-10.7,20.6-11.7,23.1,0C103,88.2,88,97.7,77.8,90.5c-7.4-5.2-8.9-26.5-21.6-26.1
	c-9.3,0.3-14.1,18.8-1.5,19.4c9.5,0.5,8.4-12.7,3-13.4c-4.2,0.2-6.6,5.1-3.7,8.2c4.7,0.3,0.4-3.9,3.7-4.5c1.7,0.3,2.4,6.8-3,6
	c-3.8-0.6-6.2-10.8,2.2-11.2c8.9-0.4,9.1,16.8-1.5,17.1c-14.6,0.4-12.3-23.1,0-23.8c8.7-0.5,7.8,3.4,14.2,11.9
	c2.2-9.3,12.7-12.1,12.7-23.8c0-5.3-3-9.7-7.4-10.4c-11.7-1.8-13.9,17.6-3,16.4c5.8-0.7,7.7-10.4,0.7-10.4c-4.9,1.3,1,4.3-0.7,6
	c-4,0.6-4.2-3.4-3-6c7.3-9.7,14.4,9.2,5.2,11.9c-13.2,3.9-16.5-21.3,0.7-19.4c8.4,0.9,11.8,13.3,6,20.9c11.3-0.9,27.1,1.1,27.6-11.2
	c0.5-13.4-21.1-13-18.6,0C92,60.2,110,48.6,98.6,43.5z"/>
</svg>
