<?xml version="1.0" encoding="utf-8"?>
<!-- Generator: Adobe Illustrator 16.0.4, SVG Export Plug-In . SVG Version: 6.00 Build 0)  -->
<!DOCTYPE svg PUBLIC "-//W3C//DTD SVG 1.1//EN" "http://www.w3.org/Graphics/SVG/1.1/DTD/svg11.dtd">
<svg version="1.1" id="Ebene_1" xmlns="http://www.w3.org/2000/svg" xmlns:xlink="http://www.w3.org/1999/xlink" x="0px" y="0px"
	 width="91.007px" height="91.006px" viewBox="0 0 91.007 91.006" enable-background="new 0 0 91.007 91.006" xml:space="preserve">
<circle fill="#E32432" cx="45.503" cy="45.503" r="45.503"/>
<g>
	<path fill="#FFFFFF" d="M30.475,15.267c3.18-0.753,8.286-1.255,13.307-1.255c7.281,0,11.969,1.255,15.4,4.101
		c2.929,2.176,4.771,5.524,4.771,9.959c0,5.524-3.683,10.294-9.541,12.387v0.251c5.356,1.256,11.633,5.689,11.633,14.061
		c0,4.854-1.924,8.619-4.854,11.299c-3.85,3.599-10.21,5.271-19.417,5.271c-5.022,0-8.872-0.335-11.299-0.669V15.267z
		 M37.756,38.367h6.612c7.616,0,12.135-4.101,12.135-9.541c0-6.528-4.938-9.207-12.302-9.207c-3.348,0-5.273,0.251-6.445,0.502
		V38.367z M37.756,65.315c1.507,0.252,3.515,0.334,6.11,0.334c7.532,0,14.479-2.762,14.479-10.963
		c0-7.615-6.612-10.879-14.563-10.879h-6.026V65.315z"/>
</g>
</svg>
