<svg xmlns="http://www.w3.org/2000/svg" width="89.025" height="92.74" viewBox="0 0 89.025 92.74"><path fill="#FFF" d="M44.393 92.74c3.896.052 2.315-6.495 3.84-7.392 1.321-.779 4.418 2.166 5.369 2.76 1.115.691 4.374 3.07 5.367 2.521 1.39-.771 1.208-5.519.376-6.81-.78-1.207-2.119-2.057-2.979-2.99-1.212-1.318-2.555-2.809-3.811-4.073-1.28-1.284-3.219-2.595-4.051-4.069-.562-.994-.149-3.148-.108-4.42.058-1.769.184-2.908.251-4.537.065-1.547-.425-8.066.979-8.836 1.119-.612 3.218.869 4.771 1.684 8.386 4.4 15.604 8.176 23.976 12.365 2.831 1.418 8.188 5.031 9.662 4.207 1.181-.664 1.191-4.742.611-5.851-.732-1.403-2.994-3.251-4.524-4.792L54.936 33.17c-1.56-1.569-3.951-3.326-4.646-4.67-.529-1.021-.155-3.661-.105-5.136.065-2.018.188-3.733.252-5.255.168-3.895.747-7.81.268-10.51-.376-2.117-2.337-6.472-4.996-7.418-3.824-1.359-6.834 5.324-7.188 7.864-.396 2.84.081 6.796.211 10.272.063 1.657.306 3.553.346 5.136.043 1.692.315 4.319-.252 5.254-.902 1.481-3.067 3.052-4.791 4.766L5.295 62.061c-1.587 1.578-3.88 3.271-4.79 4.764-.396.652-1.106 5.242.461 6.213.688.428 3.083-.766 4.783-1.66 8.729-4.592 15.694-8.15 24.278-12.479 1.43-.717 8.364-5.069 9.685-3.914.683.6.562 3.404.585 4.423.082 3.47.129 5.925.215 9.077.041 1.488.495 3.394-.25 4.539-2.183 3.344-8.617 7.164-10.778 10.719-.674 1.111-.796 6.042.459 6.688 1.341.692 3.976-1.681 5.501-2.611 1.991-1.217 3.447-2.758 5.501-2.372.695 1.386.074 7.249 3.448 7.292z"/><path d="M40.948 85.448c-2.055-.385-3.511 1.156-5.501 2.371-1.526.933-4.161 3.306-5.502 2.613-1.256-.646-1.134-5.578-.459-6.688 2.161-3.556 8.596-7.375 10.778-10.72.745-1.146.291-3.051.25-4.537-.086-3.153-.133-5.608-.215-9.078-.023-1.018.098-3.823-.585-4.422-1.319-1.156-8.254 3.195-9.684 3.914-8.583 4.326-15.549 7.886-24.279 12.478-1.699.896-4.093 2.088-4.783 1.66-1.567-.972-.856-5.562-.461-6.213.91-1.492 3.203-3.185 4.79-4.763 9.461-9.412 19.161-19.062 28.74-28.589 1.723-1.714 3.888-3.285 4.791-4.766.567-.935.295-3.562.252-5.254-.04-1.583-.282-3.479-.346-5.136-.13-3.476-.606-7.433-.211-10.272.354-2.541 3.364-9.224 7.188-7.864 2.659.946 4.62 5.302 4.996 7.418.479 2.7-.1 6.615-.268 10.51-.064 1.522-.187 3.237-.252 5.255-.05 1.475-.424 4.115.105 5.136.695 1.344 3.087 3.101 4.646 4.67 9.532 9.583 19.474 19.575 29.186 29.337 1.531 1.541 3.792 3.388 4.524 4.792.58 1.107.568 5.188-.611 5.852-1.474.822-6.831-2.789-9.662-4.207-8.371-4.19-15.59-7.965-23.976-12.366-1.555-.813-3.652-2.296-4.771-1.685-1.404.771-.914 7.291-.979 8.838-.067 1.629-.193 2.769-.251 4.537-.041 1.271-.452 3.424.108 4.418.832 1.477 2.771 2.785 4.051 4.07 1.256 1.266 2.6 2.755 3.811 4.073.858.935 2.197 1.782 2.979 2.991.832 1.289 1.014 6.039-.376 6.809-.993.551-4.252-1.829-5.367-2.521-.951-.592-4.048-3.537-5.369-2.76-1.524.896.057 7.443-3.84 7.393-3.376-.045-2.755-5.908-3.447-7.294z"/></svg>