<svg xmlns="http://www.w3.org/2000/svg" width="91.007" height="91.006" viewBox="0 0 91.007 91.006"><circle fill="#E32432" cx="45.503" cy="45.503" r="45.503"/><path fill="#FFF" d="M30.475 15.267c3.18-.753 8.286-1.255 13.307-1.255 7.281 0 11.969 1.255 15.4 4.101 2.929 2.176 4.771 5.524 4.771 9.959 0 5.524-3.683 10.294-9.541 12.387v.251c5.356 1.256 11.633 5.689 11.633 14.061 0 4.854-1.924 8.619-4.854 11.299-3.85 3.599-10.21 5.271-19.417 5.271-5.022 0-8.872-.335-11.299-.669V15.267zm7.281 23.1h6.612c7.616 0 12.135-4.101 12.135-9.541 0-6.528-4.938-9.207-12.302-9.207-3.348 0-5.273.251-6.445.502v18.246zm0 26.948c1.507.252 3.515.334 6.11.334 7.532 0 14.479-2.762 14.479-10.963 0-7.615-6.612-10.879-14.563-10.879h-6.026v21.508z"/></svg>