<?xml version="1.0" encoding="utf-8"?>
<!-- Generator: Adobe Illustrator 16.0.4, SVG Export Plug-In . SVG Version: 6.00 Build 0)  -->
<!DOCTYPE svg PUBLIC "-//W3C//DTD SVG 1.1//EN" "http://www.w3.org/Graphics/SVG/1.1/DTD/svg11.dtd">
<svg version="1.1" id="Ebene_1" xmlns="http://www.w3.org/2000/svg" xmlns:xlink="http://www.w3.org/1999/xlink" x="0px" y="0px"
	 width="89.025px" height="92.74px" viewBox="0 0 89.025 92.74" enable-background="new 0 0 89.025 92.74" xml:space="preserve">
<g>
	<path fill="#FFFFFF" d="M44.393,92.74c3.896,0.052,2.315-6.495,3.84-7.392c1.321-0.779,4.418,2.166,5.369,2.76
		c1.115,0.691,4.374,3.07,5.367,2.521c1.39-0.771,1.208-5.519,0.376-6.81c-0.78-1.207-2.119-2.057-2.979-2.99
		c-1.212-1.318-2.555-2.809-3.811-4.073c-1.28-1.284-3.219-2.595-4.051-4.069c-0.562-0.994-0.149-3.148-0.108-4.42
		c0.058-1.769,0.184-2.908,0.251-4.537c0.065-1.547-0.425-8.066,0.979-8.836c1.119-0.612,3.218,0.869,4.771,1.684
		c8.386,4.4,15.604,8.176,23.976,12.365c2.831,1.418,8.188,5.031,9.662,4.207c1.181-0.664,1.191-4.742,0.611-5.851
		c-0.732-1.403-2.994-3.251-4.524-4.792c-9.712-9.763-19.652-19.754-29.186-29.337c-1.56-1.569-3.951-3.326-4.646-4.67
		c-0.529-1.021-0.155-3.661-0.105-5.136c0.065-2.018,0.188-3.733,0.252-5.255c0.168-3.895,0.747-7.81,0.268-10.51
		c-0.376-2.117-2.337-6.472-4.996-7.418c-3.824-1.359-6.834,5.324-7.188,7.864c-0.396,2.84,0.081,6.796,0.211,10.272
		c0.063,1.657,0.306,3.553,0.346,5.136c0.043,1.692,0.315,4.319-0.252,5.254c-0.902,1.481-3.067,3.052-4.791,4.766
		c-9.579,9.529-19.279,19.176-28.74,28.588c-1.587,1.578-3.88,3.271-4.79,4.764c-0.396,0.652-1.106,5.242,0.461,6.213
		c0.688,0.428,3.083-0.766,4.783-1.66c8.729-4.592,15.694-8.15,24.278-12.479c1.43-0.717,8.364-5.069,9.685-3.914
		c0.683,0.6,0.562,3.404,0.585,4.423c0.082,3.47,0.129,5.925,0.215,9.077c0.041,1.488,0.495,3.394-0.25,4.539
		c-2.183,3.344-8.617,7.164-10.778,10.719c-0.674,1.111-0.796,6.042,0.459,6.688c1.341,0.692,3.976-1.681,5.501-2.611
		c1.991-1.217,3.447-2.758,5.501-2.372C41.64,86.834,41.019,92.697,44.393,92.74z"/>
	<path d="M40.948,85.448c-2.055-0.385-3.511,1.156-5.501,2.371c-1.526,0.933-4.161,3.306-5.502,2.613
		c-1.256-0.646-1.134-5.578-0.459-6.688c2.161-3.556,8.596-7.375,10.778-10.72c0.745-1.146,0.291-3.051,0.25-4.537
		c-0.086-3.153-0.133-5.608-0.215-9.078c-0.023-1.018,0.098-3.823-0.585-4.422c-1.319-1.156-8.254,3.195-9.684,3.914
		c-8.583,4.326-15.549,7.886-24.279,12.478c-1.699,0.896-4.093,2.088-4.783,1.66c-1.567-0.972-0.856-5.562-0.461-6.213
		c0.91-1.492,3.203-3.185,4.79-4.763c9.461-9.412,19.161-19.062,28.74-28.589c1.723-1.714,3.888-3.285,4.791-4.766
		c0.567-0.935,0.295-3.562,0.252-5.254c-0.04-1.583-0.282-3.479-0.346-5.136c-0.13-3.476-0.606-7.433-0.211-10.272
		c0.354-2.541,3.364-9.224,7.188-7.864c2.659,0.946,4.62,5.302,4.996,7.418c0.479,2.7-0.1,6.615-0.268,10.51
		c-0.064,1.522-0.187,3.237-0.252,5.255c-0.05,1.475-0.424,4.115,0.105,5.136c0.695,1.344,3.087,3.101,4.646,4.67
		c9.532,9.583,19.474,19.575,29.186,29.337c1.531,1.541,3.792,3.388,4.524,4.792c0.58,1.107,0.568,5.188-0.611,5.852
		c-1.474,0.822-6.831-2.789-9.662-4.207c-8.371-4.19-15.59-7.965-23.976-12.366c-1.555-0.813-3.652-2.296-4.771-1.685
		c-1.404,0.771-0.914,7.291-0.979,8.838c-0.067,1.629-0.193,2.769-0.251,4.537c-0.041,1.271-0.452,3.424,0.108,4.418
		c0.832,1.477,2.771,2.785,4.051,4.07c1.256,1.266,2.6,2.755,3.811,4.073c0.858,0.935,2.197,1.782,2.979,2.991
		c0.832,1.289,1.014,6.039-0.376,6.809c-0.993,0.551-4.252-1.829-5.367-2.521c-0.951-0.592-4.048-3.537-5.369-2.76
		c-1.524,0.896,0.057,7.443-3.84,7.393C41.019,92.697,41.64,86.834,40.948,85.448z"/>
</g>
</svg>
