<?xml version="1.0" encoding="utf-8"?>
<svg id="Ebene_1" x="0px" y="0px" width="100px" height="100px" viewBox="0 0 100 100" xmlns="http://www.w3.org/2000/svg">
  <path d="M 0.009 25 L 2.13 25 C 4.886 24.996 7.123 22.76 7.129 20.001 L 7.129 20.001 C 7.123 17.242 4.887 15.005 2.13 15 L 2.13 15 L 0.009 15 L 0.009 0 L 2.13 0 C 13.177 0.006 22.123 8.952 22.129 20.001 L 22.129 20.001 C 22.123 31.048 13.177 39.996 2.13 40 L 2.13 40 L 0.009 40.002 L 0.009 25 L 0.009 25 Z M 0.009 15 L 0.009 15.002 L 0.009 15 L 0.009 15 Z"/>
</svg>