<?xml version="1.0" encoding="utf-8"?>
<!-- Generator: Adobe Illustrator 13.0.0, SVG Export Plug-In . SVG Version: 6.00 Build 14948)  -->
<!DOCTYPE svg PUBLIC "-//W3C//DTD SVG 1.0//EN" "http://www.w3.org/TR/2001/REC-SVG-20010904/DTD/svg10.dtd">
<svg version="1.0" id="Ebene_1" xmlns="http://www.w3.org/2000/svg" xmlns:xlink="http://www.w3.org/1999/xlink" x="0px" y="0px"
	 width="100px" height="100px" viewBox="-20.826 -16.359 100 100" enable-background="new -20.826 -16.359 100 100"
	 xml:space="preserve">
<line fill="none" stroke="#6E48A0" stroke-width="2" x1="5.849" y1="26.167" x2="26.338" y2="5.678"/>
<line fill="none" stroke="#6E48A0" stroke-width="2" x1="0.96" y1="39.559" x2="39.717" y2="0.802"/>
<line fill="none" stroke="#6E48A0" stroke-width="2" x1="-0.099" y1="49.122" x2="49.256" y2="-0.232"/>
<line fill="none" stroke="#6E48A0" stroke-width="2" x1="57.241" y1="0.286" x2="0.398" y2="57.129"/>
<line fill="none" stroke="#6E48A0" stroke-width="2" x1="1.916" y1="64.115" x2="64.204" y2="1.827"/>
<line fill="none" stroke="#6E48A0" stroke-width="2" x1="4.198" y1="70.337" x2="70.402" y2="4.133"/>
<line fill="none" stroke="#6E48A0" stroke-width="2" x1="7.104" y1="75.935" x2="75.978" y2="7.061"/>
<line fill="none" stroke="#6E48A0" stroke-width="2" x1="10.589" y1="80.954" x2="80.976" y2="10.567"/>
<line fill="none" stroke="#6E48A0" stroke-width="2" x1="85.47" y1="14.577" x2="14.575" y2="85.472"/>
<line fill="none" stroke="#6E48A0" stroke-width="2" x1="19.089" y1="89.462" x2="89.439" y2="19.111"/>
<line fill="none" stroke="#6E48A0" stroke-width="2" x1="24.106" y1="92.948" x2="92.901" y2="24.153"/>
<line fill="none" stroke="#6E48A0" stroke-width="2" x1="29.701" y1="95.857" x2="95.792" y2="29.767"/>
<line fill="none" stroke="#6E48A0" stroke-width="2" x1="35.926" y1="98.137" x2="98.047" y2="36.016"/>
<line fill="none" stroke="#6E48A0" stroke-width="2" x1="42.922" y1="99.645" x2="99.531" y2="43.035"/>
<line fill="none" stroke="#6E48A0" stroke-width="2" x1="50.949" y1="100.121" x2="99.987" y2="51.083"/>
<line fill="none" stroke="#6E48A0" stroke-width="2" x1="60.57" y1="99.004" x2="98.846" y2="60.729"/>
<line fill="none" stroke="#6E48A0" stroke-width="2" x1="74.231" y1="93.847" x2="93.664" y2="74.414"/>
</svg>
