<svg  width="100px" height="100px" version="1" xmlns="http://www.w3.org/2000/svg" viewBox="0 0 100 100"><path fill="none" stroke="#1A171B" stroke-width="2" d="M5.849 26.167L26.338 5.678M.96 39.559L39.717.802M-.099 49.122L49.256-.232M57.241.286L.398 57.129M1.916 64.115L64.204 1.827M4.198 70.337L70.402 4.133M7.104 75.935L75.978 7.061M10.589 80.954l70.387-70.387M85.47 14.577L14.575 85.472M19.089 89.462l70.35-70.351M24.106 92.948l68.795-68.795M29.701 95.857l66.091-66.09M35.926 98.137l62.121-62.121M42.922 99.645l56.609-56.61M50.949 100.121l49.038-49.038M60.57 99.004l38.276-38.275M74.231 93.847l19.433-19.433"/></svg>
