<svg version="1" xmlns="http://www.w3.org/2000/svg" viewBox="0 0 100 100"><path fill="#FFF" d="M49.792 38.646l5.23-38.777-2.882 39.026L65.257 2.061l-10.871 37.57L74.816 6.35 56.434 40.821l26.848-28.273-25.095 29.866 32.095-22.03-30.706 23.955 35.94-14.822-34.981 16.997 38.213-6.969-37.72 9.297 38.814 1.19-38.814 1.19 37.72 9.299-38.213-6.969 34.981 16.996-35.94-14.823L90.282 79.68 58.187 57.65l25.095 29.868-26.848-28.275 18.382 34.472-20.43-33.281 10.871 37.571L52.14 61.169l2.882 39.026-5.23-38.777-5.232 38.777 2.882-39.026-13.116 36.836 10.871-37.571-20.431 33.281L43.15 59.243 16.301 87.518 41.396 57.65 9.3 79.68l30.707-23.955L4.068 70.548l34.979-16.996L.835 60.521l37.721-9.299-38.814-1.19 38.814-1.19L.835 39.545l38.212 6.969L4.068 29.517l35.939 14.822L9.3 20.384l32.096 22.03-25.095-29.866L43.15 40.821 24.766 6.35l20.431 33.281-10.871-37.57 13.116 36.834L44.56-.131z"/><path fill="#1A171B" d="M49.789 68.897l-4.238 31.43-1.988-.207 2.335-31.641-10.631 29.86-1.903-.612 8.816-30.47-16.562 26.98-1.735-.993 14.913-27.965-21.77 22.927-1.491-1.332 20.368-24.242L9.864 80.503 8.686 78.89l24.928-19.45L4.449 71.471l-.819-1.823 28.401-13.803-31.017 5.658-.418-1.955 30.634-7.552-31.52-.966v-1.998l31.517-.968L.596 40.517l.418-1.955 31.02 5.657L3.63 30.417l.819-1.825L33.616 40.62 8.686 21.172l1.179-1.613L35.902 37.43 15.536 13.19l1.489-1.332 21.772 22.926L23.882 6.82l1.735-.993L42.18 32.805 33.364 2.339l1.903-.614 10.632 29.854L43.563-.058l1.988-.207 4.24 31.433 4.24-31.433 1.988.207-2.338 31.636L64.313 1.725l1.903.614-8.818 30.468 16.565-26.98 1.735.993-14.913 27.965 21.771-22.926 1.489 1.332L63.679 37.43l26.037-17.871 1.181 1.613-24.933 19.45 29.169-12.03.819 1.825-28.408 13.802 31.024-5.657.418 1.955-30.636 7.55 31.521.966v1.998l-31.521.966 30.636 7.552-.418 1.955-31.02-5.655L95.951 69.65l-.819 1.822L65.966 59.44l24.93 19.45-1.181 1.613-26.036-17.869 20.367 24.24-1.489 1.332-21.775-22.931 14.916 27.969-1.735.993-16.565-26.984 8.818 30.474-1.903.612-10.631-29.856 2.338 31.637-1.988.207-4.243-31.43zm-1.351-7.655l-.442 5.996.805-5.955h1.981l.802 5.951-.442-5.992 1.938-.41 2.021 5.672-1.675-5.794 1.812-.8 3.191 5.199-2.879-5.396 1.607-1.16 4.188 4.41-3.926-4.671 1.332-1.469 5.063 3.476-4.855-3.787.997-1.713 5.67 2.339-5.529-2.687.614-1.884 6.129 1.116-6.054-1.491.209-1.971 6.188-.19-6.188-.19-.209-1.969 6.052-1.491-6.127 1.117-.614-1.884 5.561-2.702-5.701 2.352-.997-1.713 4.859-3.793-5.067 3.481-1.332-1.469 3.919-4.665-4.182 4.404-1.607-1.158 2.875-5.393-3.188 5.196-1.812-.802 1.675-5.794-2.02 5.672-1.938-.41.442-5.986-.802 5.944h-1.981l-.805-5.953.442 5.994-1.938.411-2.017-5.661 1.673 5.783-1.814.802-3.173-5.171 2.863 5.368-1.609 1.158-4.186-4.41 3.924 4.67-1.333 1.469-5.063-3.477 4.857 3.789-.997 1.713-5.709-2.356 5.568 2.706-.616 1.884-6.121-1.117 6.048 1.491-.209 1.969-6.201.19 6.201.19.209 1.971-6.064 1.493 6.137-1.118.616 1.884-5.542 2.691 5.682-2.344.997 1.713-4.851 3.783 5.057-3.472 1.333 1.469-3.924 4.671 4.186-4.41 1.609 1.16-2.86 5.361 3.171-5.164 1.814.8-1.671 5.779L46.5 60.83l1.938.412zm1.354-22.596l.991-.134-.991.134z"/></svg>