<svg version="1" xmlns="http://www.w3.org/2000/svg" viewBox="0 0 100 100"><path fill="#FFF" d="M49.818 47.02L52.973.079l-2.75 46.965L59.23.87l-8.611 46.249L65.34 2.44 51.004 47.245l20.2-42.481-19.835 42.653L76.731 7.804l-25.02 39.83 30.123-36.119-29.812 36.377 34.411-32.057L52.3 48.187l38.154-27.489-37.917 27.816 41.297-22.487-41.103 22.842 43.788-17.131-43.638 17.507 45.586-11.504-45.486 11.896 46.668-5.696-46.618 6.097 47.015.203-47.015.202 46.618 6.098-46.668-5.697 45.486 11.895-45.586-11.503 43.638 17.508-43.788-17.132 41.103 22.84-41.297-22.484 37.917 27.815L52.3 52.294l34.133 32.352-34.411-32.057 29.812 36.378-30.123-36.12 25.02 39.829-25.362-39.612 19.835 42.653-20.2-42.481L65.34 98.042 50.619 53.361l8.611 46.25-9.007-46.173 2.75 46.963-3.155-46.939-3.153 46.939 2.75-46.963-9.008 46.173 8.611-46.25-14.721 44.681 14.336-44.806-20.2 42.481 19.835-42.653-25.362 39.612 25.02-39.829-30.124 36.12 29.813-36.378-34.41 32.057 34.132-32.352L9.184 79.783 47.1 51.968 5.804 74.452l41.101-22.84L3.119 68.744l43.637-17.508L1.17 62.739l45.486-11.895-46.669 5.697 46.618-6.098-47.014-.202 47.014-.203-46.618-6.097 46.669 5.696L1.17 37.741l45.586 11.504L3.119 31.738l43.786 17.131L5.804 26.027 47.1 48.514 9.184 20.698l38.153 27.489-34.132-32.352 34.41 32.057-29.813-36.377 30.124 36.119-25.02-39.83 25.362 39.613L28.433 4.764l20.2 42.481L34.297 2.44l14.721 44.679L40.407.87l9.008 46.174L46.665.079z"/><path fill="#009EE0" d="M51.975 100.457l-.002.001-.009-.158-2.146-31.929-2.156 32.097-1.996-.126v-.009l.003-.056 1.876-32.042L41.4 99.743l-.01.051-.001.008-1.965-.374 5.885-31.617-10.061 30.543-1.903-.618.003-.008.02-.062 9.78-30.566-13.799 29.017-.009.02-.004.008-1.81-.85 13.561-29.161-17.218 26.89-.116.185-.001-.001-.005.007-1.688-1.071 17.108-27.235-20.533 24.619-.059.072v-.001l-.006.007-1.541-1.274 20.383-24.873-23.525 21.92-1.369-1.459.005-.005-.001-.001.139-.13 23.195-21.988L9.768 80.594l-1.177-1.617.007-.005-.001-.001.125-.091 25.799-18.927L6.283 75.33l-.964-1.754 28.1-15.615L3.482 69.675l-.736-1.859.009-.004v-.001l.082-.031 29.762-11.94-31.175 7.864-.002.001-.008.002-.497-1.936 31.102-8.136-31.91 3.897-.25-1.984.009-.001v-.001l.112-.014 31.761-4.156-32.154-.136v-2l32.152-.139-31.881-4.17.25-1.984.008.001v-.001l.115.015 31.795 3.88-31.11-8.135.497-1.936.008.002h.002l31.164 7.864L2.835 32.702l-.081-.032-.009-.003.736-1.859L33.42 42.519 5.387 26.939l-.062-.034-.006-.003.964-1.752 28.234 15.375L8.591 21.504l1.177-1.62 26.089 18.798-23.195-21.984-.14-.13.001-.001-.005-.005 1.369-1.458L37.41 37.018 17.028 12.149l1.541-1.274.006.007.058.071L39.167 35.57 22.119 8.431l-.056-.088h.001l-.005-.008 1.688-1.069.005.007.001-.001.116.184 17.218 26.891L27.526 5.185l1.81-.85.004.008.009.019L43.147 33.38l-9.78-30.567-.02-.061-.003-.008 1.903-.616L45.311 32.67 39.424 1.052l1.965-.375.002.01.001.006 6.153 31.546L45.67.201l-.003-.056V.137l1.996-.126 2.156 32.1L51.964.194l.01-.174h.002V.011l1.996.126-1.88 32.103L58.246.694l.001-.006.002-.01 1.964.375-.002.01h.002l-.043.217-5.847 31.397L64.339 2.282l.047-.147h.001l.003-.008 1.901.616-.003.008h.001l-.021.061-9.778 30.563L70.3 4.334l1.81.85-13.559 29.16L75.876 7.285l.008-.014h.001l.004-.006 1.689 1.069-17.106 27.232 20.529-24.614.059-.071h.001l.005-.007 1.541 1.274-20.378 24.866L85.75 15.103l1.371 1.458-.007.006h.001l-.021.019-23.315 22.095 26.09-18.796 1.175 1.62-25.931 19.021 28.2-15.355.032-.018h.001l.008-.004.964 1.752L66.212 42.52l29.941-11.713.736 1.859-.007.003v.001l-.165.065L67.05 44.636l31.161-7.862h.002l.009-.002.498 1.936-31.111 8.135 31.795-3.88.115-.015v.001l.008-.001.251 1.984-31.882 4.17 32.154.139v2l-32.158.137 31.736 4.152.143.018v.001l.007.001-.251 1.984-31.91-3.897 31.104 8.136-.498 1.936-.009-.002-.002-.001-31.169-7.865L96.72 67.749l.164.063v.002l.007.003-.736 1.859-29.934-11.713 28.098 15.613-.964 1.754-.008-.005-.001.001-.032-.019-28.2-15.354 25.8 18.927.125.091-.001.001.007.005-1.175 1.617-26.094-18.8 23.318 22.102.021.019h-.001l.007.006-1.371 1.459-23.521-21.915 20.378 24.867-1.541 1.274-.005-.006-.001.001-.059-.071-20.529-24.617 17.106 27.229-1.689 1.071-.004-.007-.001.001-.008-.014-17.327-27.059L72.11 95.295l-1.81.85L56.488 67.1l9.78 30.566.021.062h-.001l.003.008-1.901.618-.003-.009-.001.001-.047-.147-10.015-30.392 5.854 31.439.034.173-.002.001.002.008-1.964.374-.001-.008h-.001l-.009-.051-6.148-31.508 1.882 32.106-1.996.126v-.01zm-1.949-47.063l.379-.048.392-.101.354-.14.356-.196.32-.232.295-.276.245-.296.217-.343.168-.355.125-.383.073-.381.024-.403-.024-.403-.072-.379-.127-.387-.167-.354-.211-.333-.259-.312-.281-.264-.331-.24-.338-.186-.383-.151-.371-.095-.396-.049h-.394l-.396.049-.365.093-.391.155-.34.187-.327.237-.281.264-.262.316-.201.317-.177.375-.118.363-.079.41-.024.387.024.386.079.413.117.358.178.377.207.326.249.3.295.276.316.229.358.197.362.144.386.099.38.048h.416v.001z"/></svg>