<?xml version="1.0" encoding="utf-8"?>
<!-- Generator: Adobe Illustrator 13.0.0, SVG Export Plug-In . SVG Version: 6.00 Build 14948)  -->
<!DOCTYPE svg PUBLIC "-//W3C//DTD SVG 1.0//EN" "http://www.w3.org/TR/2001/REC-SVG-20010904/DTD/svg10.dtd">
<svg version="1.0" id="Ebene_1" xmlns="http://www.w3.org/2000/svg" xmlns:xlink="http://www.w3.org/1999/xlink" x="0px" y="0px"
	 width="100px" height="100px" viewBox="-20.826 -16.359 100 100" enable-background="new -20.826 -16.359 100 100"
	 xml:space="preserve">
<g>
	<polygon fill="#FFFFFF" points="49.818,47.02 52.973,0.079 50.223,47.044 59.23,0.87 50.619,47.119 65.34,2.44 51.004,47.245 
		71.204,4.764 51.369,47.417 76.731,7.804 51.711,47.634 81.834,11.515 52.022,47.892 86.433,15.835 52.3,48.187 90.454,20.698 
		52.537,48.514 93.834,26.027 52.731,48.869 96.519,31.738 52.881,49.245 98.467,37.741 52.981,49.637 99.649,43.941 53.031,50.038 
		100.046,50.241 53.031,50.443 99.649,56.541 52.981,50.844 98.467,62.739 52.881,51.236 96.519,68.744 52.731,51.612 
		93.834,74.452 52.537,51.968 90.454,79.783 52.3,52.294 86.433,84.646 52.022,52.589 81.834,88.967 51.711,52.847 76.731,92.676 
		51.369,53.064 71.204,95.717 51.004,53.236 65.34,98.042 50.619,53.361 59.23,99.611 50.223,53.438 52.973,100.401 49.818,53.462 
		46.665,100.401 49.415,53.438 40.407,99.611 49.018,53.361 34.297,98.042 48.633,53.236 28.433,95.717 48.268,53.064 
		22.906,92.676 47.926,52.847 17.802,88.967 47.615,52.589 13.205,84.646 47.337,52.294 9.184,79.783 47.1,51.968 5.804,74.452 
		46.905,51.612 3.119,68.744 46.756,51.236 1.17,62.739 46.656,50.844 -0.013,56.541 46.605,50.443 -0.409,50.241 46.605,50.038 
		-0.013,43.941 46.656,49.637 1.17,37.741 46.756,49.245 3.119,31.738 46.905,48.869 5.804,26.027 47.1,48.514 9.184,20.698 
		47.337,48.187 13.205,15.835 47.615,47.892 17.802,11.515 47.926,47.634 22.906,7.804 48.268,47.417 28.433,4.764 48.633,47.245 
		34.297,2.44 49.018,47.119 40.407,0.87 49.415,47.044 46.665,0.079 	"/>
	<path fill="#009EE0" d="M51.975,100.457l-0.002,0.001l-0.009-0.158l-2.146-31.929l-2.156,32.097l-1.996-0.126l0-0.009h0
		l0.003-0.056l1.876-32.042L41.4,99.743l-0.01,0.051h0l-0.001,0.008l-1.965-0.374l5.885-31.617L35.248,98.354l-1.903-0.618
		l0.003-0.008h0l0.02-0.062l9.78-30.566L29.349,96.117l-0.009,0.02l0,0l-0.004,0.008l-1.81-0.85l13.561-29.161l-17.218,26.89
		l-0.116,0.185l-0.001-0.001l-0.005,0.007l-1.688-1.071l17.108-27.235L18.634,89.528l-0.059,0.072l0-0.001l-0.006,0.007
		l-1.541-1.274l20.383-24.873l-23.525,21.92l-1.369-1.459l0.005-0.005l-0.001-0.001l0.139-0.13l23.195-21.988L9.768,80.594
		l-1.177-1.617l0.007-0.005l-0.001-0.001l0.125-0.091l25.799-18.927L6.283,75.33l-0.964-1.754l28.1-15.615L3.482,69.675
		l-0.736-1.859l0.009-0.004l0-0.001l0.082-0.031l29.762-11.94L1.424,63.704l-0.002,0.001l0,0l-0.008,0.002l-0.497-1.936
		l31.102-8.136l-31.91,3.897l-0.25-1.984l0.009-0.001l0-0.001l0.112-0.014l31.761-4.156L-0.413,51.24v-2l32.152-0.139l-31.881-4.17
		l0.25-1.984l0.008,0.001v-0.001l0.115,0.015l31.795,3.88l-31.11-8.135l0.497-1.936l0.008,0.002l0,0l0.002,0l31.164,7.864
		L2.835,32.702L2.754,32.67l0,0l-0.009-0.003l0.736-1.859l29.939,11.711L5.387,26.939l-0.062-0.034v0l-0.006-0.003l0.964-1.752
		l28.234,15.375L8.591,21.504l1.177-1.62l26.089,18.798L12.662,16.698l-0.14-0.13l0.001-0.001l-0.005-0.005l1.369-1.458
		l23.523,21.914L17.028,12.149l1.541-1.274l0.006,0.007l0,0l0.058,0.071L39.167,35.57L22.119,8.431l-0.056-0.088l0.001,0
		l-0.005-0.008l1.688-1.069l0.005,0.007l0.001-0.001l0.116,0.184l17.218,26.891L27.526,5.185l1.81-0.85l0.004,0.008l0,0l0.009,0.019
		l13.798,29.018l-9.78-30.567l-0.02-0.061h0l-0.003-0.008l1.903-0.616L45.311,32.67L39.424,1.052l1.965-0.375l0.002,0.01l0,0
		l0.001,0.006l6.153,31.546L45.67,0.201l-0.003-0.056h0l0-0.008l1.996-0.126l2.156,32.1l2.145-31.917l0.01-0.174h0.002V0.011
		l1.996,0.126l-1.88,32.103l6.154-31.546l0.001-0.006l0,0l0.002-0.01l1.964,0.375l-0.002,0.01l0.002,0l-0.043,0.217l-5.847,31.397
		L64.339,2.282l0.047-0.147l0.001,0l0.003-0.008l1.901,0.616l-0.003,0.008h0.001l-0.021,0.061L56.49,33.375L70.3,4.334l1.81,0.85
		L58.551,34.344L75.876,7.285l0.008-0.014h0.001l0.004-0.006l1.689,1.069L60.472,35.566l20.529-24.614l0.059-0.071l0.001,0
		l0.005-0.007l1.541,1.274L62.229,37.014l23.521-21.911l1.371,1.458l-0.007,0.006l0.001,0l-0.021,0.019L63.779,38.681l26.09-18.796
		l1.175,1.62L65.113,40.526l28.2-15.355l0.032-0.018l0.001,0l0.008-0.004l0.964,1.752L66.212,42.52l29.941-11.713l0.736,1.859
		l-0.007,0.003v0.001l-0.165,0.065L67.05,44.636l31.161-7.862l0.002,0l0,0l0.009-0.002l0.498,1.936l-31.111,8.135l31.795-3.88
		l0.115-0.015v0.001l0.008-0.001l0.251,1.984l-31.882,4.17l32.154,0.139v2l-32.158,0.137l31.736,4.152l0.143,0.018v0.001
		l0.007,0.001l-0.251,1.984l-31.91-3.897l31.104,8.136l-0.498,1.936l-0.009-0.002l0,0l-0.002-0.001l-31.169-7.865l29.677,11.908
		l0.164,0.063v0.002l0.007,0.003l-0.736,1.859L66.221,57.963l28.098,15.613l-0.964,1.754l-0.008-0.005l-0.001,0.001l-0.032-0.019
		l-28.2-15.354l25.8,18.927l0.125,0.091l-0.001,0.001l0.007,0.005l-1.175,1.617l-26.094-18.8l23.318,22.102l0.021,0.019h-0.001
		l0.007,0.006l-1.371,1.459L62.229,63.465l20.378,24.867l-1.541,1.274L81.061,89.6l-0.001,0.001l-0.059-0.071L60.472,64.913
		l17.106,27.229l-1.689,1.071l-0.004-0.007l-0.001,0.001l-0.008-0.014L58.549,66.134l13.561,29.161l-1.81,0.85L56.488,67.1
		l9.78,30.566l0.021,0.062h-0.001l0.003,0.008l-1.901,0.618l-0.003-0.009l-0.001,0.001l-0.047-0.147L54.324,67.807l5.854,31.439
		l0.034,0.173L60.21,99.42l0.002,0.008l-1.964,0.374l-0.001-0.008h-0.001l-0.009-0.051l-6.148-31.508l1.882,32.106l-1.996,0.126
		V100.457L51.975,100.457z M50.026,53.394l0.379-0.048l0.392-0.101l0.354-0.14l0.356-0.196l0.32-0.232l0.295-0.276l0.245-0.296
		l0.217-0.343l0.168-0.355l0.125-0.383l0.073-0.381l0.024-0.403l-0.024-0.403l-0.072-0.379l-0.127-0.387l-0.167-0.354l-0.211-0.333
		l-0.259-0.312l-0.281-0.264l-0.331-0.24l-0.338-0.186l-0.383-0.151l-0.371-0.095l-0.396-0.049H49.62l-0.396,0.049l-0.365,0.093
		l-0.391,0.155l-0.34,0.187l-0.327,0.237l-0.281,0.264l-0.262,0.316l-0.201,0.317L46.88,49.08l-0.118,0.363l-0.079,0.41
		l-0.024,0.387l0.024,0.386l0.079,0.413l0.117,0.358l0.178,0.377l0.207,0.326l0.249,0.3l0.295,0.276l0.316,0.229l0.358,0.197
		l0.362,0.144l0.386,0.099l0.38,0.048H50.026L50.026,53.394z"/>
</g>
</svg>
