<?xml version="1.0" encoding="utf-8"?>
<!-- Generator: Adobe Illustrator 13.0.0, SVG Export Plug-In . SVG Version: 6.00 Build 14948)  -->
<!DOCTYPE svg PUBLIC "-//W3C//DTD SVG 1.0//EN" "http://www.w3.org/TR/2001/REC-SVG-20010904/DTD/svg10.dtd">
<svg version="1.0" id="Ebene_1" xmlns="http://www.w3.org/2000/svg" xmlns:xlink="http://www.w3.org/1999/xlink" x="0px" y="0px"
	 width="100px" height="100px" viewBox="-20.826 -16.359 100 100" enable-background="new -20.826 -16.359 100 100"
	 xml:space="preserve">
<polygon fill="#1A171B" points="48.678,-0.066 49.925,45.929 50.785,-0.066 "/>
<polygon fill="#1A171B" points="53.522,0.056 50.327,45.957 55.62,0.26 "/>
<polygon fill="#1A171B" points="58.333,0.647 50.726,46.023 60.4,1.054 "/>
<polygon fill="#1A171B" points="63.062,1.703 51.115,46.128 65.082,2.308 "/>
<polygon fill="#1A171B" points="67.67,3.211 51.492,46.271 69.619,4.01 "/>
<polygon fill="#1A171B" points="72.107,5.16 51.854,46.448 73.973,6.144 "/>
<polygon fill="#1A171B" points="76.338,7.529 52.198,46.661 78.1,8.689 "/>
<polygon fill="#1A171B" points="80.321,10.298 52.519,46.905 81.962,11.624 "/>
<polygon fill="#1A171B" points="84.018,13.44 52.814,47.181 85.522,14.918 "/>
<polygon fill="#1A171B" points="87.393,16.927 53.083,47.482 88.749,18.544 "/>
<polygon fill="#1A171B" points="90.417,20.723 53.321,47.809 91.611,22.465 "/>
<polygon fill="#1A171B" points="93.061,24.796 53.526,48.157 94.081,26.644 "/>
<polygon fill="#1A171B" points="95.299,29.105 53.697,48.523 96.136,31.043 "/>
<polygon fill="#1A171B" points="97.111,33.612 53.832,48.904 97.758,35.622 "/>
<polygon fill="#1A171B" points="98.479,38.273 53.928,49.296 98.93,40.337 "/>
<polygon fill="#1A171B" points="99.395,43.044 53.988,49.696 99.643,45.142 "/>
<polygon fill="#1A171B" points="99.842,47.883 54.008,50.1 99.887,49.996 "/>
<polygon fill="#1A171B" points="99.822,52.742 53.988,50.504 99.663,54.849 "/>
<polygon fill="#1A171B" points="99.333,57.577 53.931,50.903 98.972,59.658 "/>
<polygon fill="#1A171B" points="98.382,62.342 53.834,51.298 97.82,64.377 "/>
<polygon fill="#1A171B" points="96.973,66.99 53.7,51.678 96.219,68.963 "/>
<polygon fill="#1A171B" points="95.124,71.481 53.53,52.046 94.182,73.371 "/>
<polygon fill="#1A171B" points="92.85,75.772 53.326,52.393 91.73,77.562 "/>
<polygon fill="#1A171B" points="90.173,79.823 53.089,52.721 88.886,81.496 "/>
<polygon fill="#1A171B" points="87.117,83.594 52.822,53.023 85.676,85.135 "/>
<polygon fill="#1A171B" points="83.713,87.053 52.526,53.298 82.129,88.445 "/>
<polygon fill="#1A171B" points="79.99,90.163 52.206,53.545 78.28,91.397 "/>
<polygon fill="#1A171B" points="75.985,92.9 51.862,53.756 74.164,93.96 "/>
<polygon fill="#1A171B" points="71.736,95.233 51.502,53.935 69.821,96.113 "/>
<polygon fill="#1A171B" points="67.28,97.145 51.125,54.078 65.289,97.834 "/>
<polygon fill="#1A171B" points="62.661,98.614 50.736,54.185 60.614,99.11 "/>
<polygon fill="#1A171B" points="57.923,99.632 50.337,54.252 55.837,99.924 "/>
<polygon fill="#1A171B" points="53.109,100.183 49.936,54.28 51.004,100.272 "/>
<polygon fill="#1A171B" points="48.264,100.265 49.533,54.27 46.161,100.149 "/>
<polygon fill="#1A171B" points="43.434,99.877 49.132,54.221 41.351,99.559 "/>
<polygon fill="#1A171B" points="38.664,99.022 48.739,54.132 36.621,98.503 "/>
<polygon fill="#1A171B" points="33.999,97.709 48.356,54.007 32.016,96.994 "/>
<polygon fill="#1A171B" points="29.481,95.949 47.986,53.844 27.577,95.045 "/>
<polygon fill="#1A171B" points="25.156,93.759 47.634,53.646 23.347,92.676 "/>
<polygon fill="#1A171B" points="21.061,91.16 47.303,53.415 19.365,89.907 "/>
<polygon fill="#1A171B" points="17.236,88.177 46.996,53.153 15.669,86.764 "/>
<polygon fill="#1A171B" points="13.717,84.837 46.715,52.863 12.293,83.278 "/>
<polygon fill="#1A171B" points="10.538,81.171 46.463,52.547 9.271,79.482 "/>
<polygon fill="#1A171B" points="7.725,77.214 46.245,52.207 6.627,75.41 "/>
<polygon fill="#1A171B" points="5.308,73.003 46.058,51.85 4.389,71.101 "/>
<polygon fill="#1A171B" points="3.309,68.576 45.908,51.475 2.577,66.595 "/>
<polygon fill="#1A171B" points="1.746,63.978 45.794,51.085 1.208,61.935 "/>
<polygon fill="#1A171B" points="0.634,59.247 45.718,50.689 0.295,57.163 "/>
<polygon fill="#1A171B" points="-0.018,54.434 45.682,50.286 -0.153,52.324 "/>
<polygon fill="#1A171B" points="-0.201,49.578 45.684,49.882 -0.133,47.466 "/>
<polygon fill="#1A171B" points="0.084,44.727 45.724,49.479 0.355,42.632 "/>
<polygon fill="#1A171B" points="0.836,39.927 45.804,49.083 1.309,37.868 "/>
<polygon fill="#1A171B" points="2.047,35.222 45.921,48.697 2.716,33.219 "/>
<polygon fill="#1A171B" points="3.707,30.658 46.076,48.322 4.565,28.728 "/>
<polygon fill="#1A171B" points="5.799,26.275 46.266,47.965 6.839,24.438 "/>
<polygon fill="#1A171B" points="8.304,22.116 46.489,47.629 9.517,20.388 "/>
<polygon fill="#1A171B" points="11.198,18.219 46.743,47.314 12.571,16.616 "/>
<polygon fill="#1A171B" points="14.454,14.621 47.027,47.027 15.976,13.159 "/>
<polygon fill="#1A171B" points="18.042,11.355 47.337,46.769 19.698,10.048 "/>
<polygon fill="#1A171B" points="21.928,8.453 47.671,46.542 23.702,7.312 "/>
<polygon fill="#1A171B" points="26.077,5.942 48.025,46.348 27.952,4.978 "/>
<polygon fill="#1A171B" points="30.447,3.844 48.396,46.189 32.407,3.066 "/>
<polygon fill="#1A171B" points="35,2.18 48.78,46.067 37.026,1.596 "/>
<polygon fill="#1A171B" points="39.691,0.965 49.174,45.983 41.764,0.58 "/>
<polygon fill="#1A171B" points="44.479,0.211 49.575,45.938 46.579,0.029 "/>
</svg>
