<?xml version="1.0" encoding="utf-8"?>
<!-- Generator: Adobe Illustrator 13.0.0, SVG Export Plug-In . SVG Version: 6.00 Build 14948)  -->
<!DOCTYPE svg PUBLIC "-//W3C//DTD SVG 1.0//EN" "http://www.w3.org/TR/2001/REC-SVG-20010904/DTD/svg10.dtd">
<svg version="1.0" id="Ebene_1" xmlns="http://www.w3.org/2000/svg" xmlns:xlink="http://www.w3.org/1999/xlink" x="0px" y="0px"
	 width="100px" height="100px" viewBox="-20.826 -16.359 100 100" enable-background="new -20.826 -16.359 100 100"
	 xml:space="preserve">
<g>
	<polygon fill="#FFFFFF" points="49.792,38.646 55.022,-0.131 52.14,38.895 65.257,2.061 54.386,39.631 74.816,6.35 56.434,40.821 
		83.282,12.548 58.187,42.414 90.282,20.384 59.576,44.339 95.516,29.517 60.535,46.514 98.748,39.545 61.028,48.842 99.842,50.032 
		61.028,51.222 98.748,60.521 60.535,53.552 95.516,70.548 59.576,55.725 90.282,79.68 58.187,57.65 83.282,87.518 56.434,59.243 
		74.816,93.715 54.386,60.434 65.257,98.005 52.14,61.169 55.022,100.195 49.792,61.418 44.56,100.195 47.442,61.169 34.326,98.005 
		45.197,60.434 24.766,93.715 43.15,59.243 16.301,87.518 41.396,57.65 9.3,79.68 40.007,55.725 4.068,70.548 39.047,53.552 
		0.835,60.521 38.556,51.222 -0.258,50.032 38.556,48.842 0.835,39.545 39.047,46.514 4.068,29.517 40.007,44.339 9.3,20.384 
		41.396,42.414 16.301,12.548 43.15,40.821 24.766,6.35 45.197,39.631 34.326,2.061 47.442,38.895 44.56,-0.131 	"/>
	<path fill="#1A171B" d="M49.789,68.897l-4.238,31.43l-1.988-0.207l2.335-31.641L35.267,98.339l-1.903-0.612l8.816-30.47
		l-16.562,26.98l-1.735-0.993l14.913-27.965l-21.77,22.927l-1.491-1.332l20.368-24.242L9.864,80.503L8.686,78.89L33.614,59.44
		L4.449,71.471L3.63,69.648l28.401-13.803L1.014,61.503l-0.418-1.955l30.634-7.552L-0.29,51.03v-1.998l31.517-0.968L0.596,40.517
		l0.418-1.955l31.02,5.657L3.63,30.417l0.819-1.825L33.616,40.62L8.686,21.172l1.179-1.613L35.902,37.43L15.536,13.19l1.489-1.332
		l21.772,22.926L23.882,6.82l1.735-0.993L42.18,32.805L33.364,2.339l1.903-0.614l10.632,29.854L43.563-0.058l1.988-0.207
		l4.24,31.433l4.24-31.433l1.988,0.207l-2.338,31.636L64.313,1.725l1.903,0.614l-8.818,30.468L73.963,5.827l1.735,0.993
		L60.785,34.785l21.771-22.926l1.489,1.332L63.679,37.43l26.037-17.871l1.181,1.613l-24.933,19.45l29.169-12.03l0.819,1.825
		L67.544,44.219l31.024-5.657l0.418,1.955l-30.636,7.55l31.521,0.966v1.998l-31.521,0.966l30.636,7.552l-0.418,1.955l-31.02-5.655
		l28.403,13.801l-0.819,1.822L65.966,59.44L90.896,78.89l-1.181,1.613L63.679,62.634l20.367,24.24l-1.489,1.332L60.782,65.275
		l14.916,27.969l-1.735,0.993L57.398,67.253l8.818,30.474l-1.903,0.612L53.682,68.483l2.338,31.637l-1.988,0.207L49.789,68.897
		L49.789,68.897z M48.438,61.242l-0.442,5.996l0.805-5.955h1.981l0.802,5.951l-0.442-5.992l1.938-0.41l2.021,5.672l-1.675-5.794
		l1.812-0.8l3.191,5.199l-2.879-5.396l1.607-1.16l4.188,4.41l-3.926-4.671l1.332-1.469l5.063,3.476l-4.855-3.787l0.997-1.713
		l5.67,2.339l-5.529-2.687l0.614-1.884l6.129,1.116l-6.054-1.491l0.209-1.971l6.188-0.19l-6.188-0.19l-0.209-1.969l6.052-1.491
		l-6.127,1.117l-0.614-1.884l5.561-2.702l-5.701,2.352l-0.997-1.713l4.859-3.793l-5.067,3.481L57.42,41.77l3.919-4.665l-4.182,4.404
		l-1.607-1.158l2.875-5.393l-3.188,5.196l-1.812-0.802l1.675-5.794L53.08,39.23l-1.938-0.41l0.442-5.986l-0.802,5.944h-1.981
		l-0.805-5.953l0.442,5.994L46.5,39.23l-2.017-5.661l1.673,5.783l-1.814,0.802l-3.173-5.171l2.863,5.368l-1.609,1.158l-4.186-4.41
		l3.924,4.67l-1.333,1.469l-5.063-3.477l4.857,3.789l-0.997,1.713l-5.709-2.356l5.568,2.706l-0.616,1.884l-6.121-1.117l6.048,1.491
		l-0.209,1.969l-6.201,0.19l6.201,0.19l0.209,1.971l-6.064,1.493l6.137-1.118l0.616,1.884l-5.542,2.691l5.682-2.344l0.997,1.713
		l-4.851,3.783l5.057-3.472l1.333,1.469l-3.924,4.671l4.186-4.41l1.609,1.16l-2.86,5.361l3.171-5.164l1.814,0.8l-1.671,5.779
		l2.015-5.657L48.438,61.242L48.438,61.242z M49.792,38.646l0.991-0.134L49.792,38.646L49.792,38.646z"/>
</g>
</svg>
