<svg width="100px" height="100px" version="1" xmlns="http://www.w3.org/2000/svg" viewBox="0 0 100 100"><path fill="#009EE0" d="M48.678-.066l1.247 45.995.86-45.995zM53.522.056l-3.195 45.901L55.62.26zM58.333.647l-7.607 45.376L60.4 1.054zM63.062 1.703L51.115 46.128l13.967-43.82zM67.67 3.211l-16.178 43.06L69.619 4.01zM72.107 5.16L51.854 46.448 73.973 6.144zM76.338 7.529l-24.14 39.132L78.1 8.689zM80.321 10.298L52.519 46.905l29.443-35.281zM84.018 13.44L52.814 47.181l32.708-32.263zM87.393 16.927l-34.31 30.555 35.666-28.938zM90.417 20.723L53.321 47.809l38.29-25.344zM93.061 24.796L53.526 48.157l40.555-21.513zM95.299 29.105L53.697 48.523l42.439-17.48zM97.111 33.612L53.832 48.904l43.926-13.282zM98.479 38.273L53.928 49.296l45.002-8.959zM99.395 43.044l-45.407 6.652 45.655-4.554zM99.842 47.883L54.008 50.1l45.879-.104zM99.822 52.742l-45.834-2.238 45.675 4.345zM99.333 57.577l-45.402-6.674 45.041 8.755zM98.382 62.342L53.834 51.298 97.82 64.377zM96.973 66.99L53.7 51.678l42.519 17.285zM95.124 71.481L53.53 52.046l40.652 21.325zM92.85 75.772L53.326 52.393 91.73 77.562zM90.173 79.823L53.089 52.721l35.797 28.775zM87.117 83.594L52.822 53.023l32.854 32.112zM83.713 87.053L52.526 53.298l29.603 35.147zM79.99 90.163L52.206 53.545 78.28 91.397zM75.985 92.9L51.862 53.756 74.164 93.96zM71.736 95.233L51.502 53.935l18.319 42.178zM67.28 97.145L51.125 54.078l14.164 43.756zM62.661 98.614L50.736 54.185l9.878 44.925zM57.923 99.632l-7.586-45.38 5.5 45.672zM53.109 100.183L49.936 54.28l1.068 45.992zM48.264 100.265l1.269-45.995-3.372 45.879zM43.434 99.877l5.698-45.656-7.781 45.338zM38.664 99.022l10.075-44.89-12.118 44.371zM33.999 97.709l14.357-43.702-16.34 42.987zM29.481 95.949l18.505-42.105-20.409 41.201zM25.156 93.759l22.478-40.113-24.287 39.03zM21.061 91.16l26.242-37.745-27.938 36.492zM17.236 88.177l29.76-35.024-31.327 33.611zM13.717 84.837l32.998-31.974-34.422 30.415zM10.538 81.171l35.925-28.624L9.271 79.482zM7.725 77.214l38.52-25.007L6.627 75.41zM5.308 73.003l40.75-21.153L4.389 71.101zM3.309 68.576l42.599-17.101-43.331 15.12zM1.746 63.978l44.048-12.893-44.586 10.85zM.634 59.247l45.084-8.558L.295 57.163zM-.018 54.434l45.7-4.148-45.835 2.038zM-.201 49.578l45.885.304-45.817-2.416zM.084 44.727l45.64 4.752L.355 42.632zM.836 39.927l44.968 9.156L1.309 37.868zM2.047 35.222l43.874 13.475L2.716 33.219zM3.707 30.658l42.369 17.664L4.565 28.728zM5.799 26.275l40.467 21.69L6.839 24.438zM8.304 22.116l38.185 25.513L9.517 20.388zM11.198 18.219l35.545 29.095-34.172-30.698zM14.454 14.621l32.573 32.406-31.051-33.868zM18.042 11.355l29.295 35.414-27.639-36.721zM21.928 8.453l25.743 38.089-23.969-39.23zM26.077 5.942l21.948 40.406-20.073-41.37zM30.447 3.844l17.949 42.345L32.407 3.066zM35 2.18l13.78 43.887L37.026 1.596zM39.691.965l9.483 45.018L41.764.58zM44.479.211l5.096 45.727L46.579.029z"/></svg>
